<svg version="1.2" xmlns="http://www.w3.org/2000/svg" viewBox="0 0 2623 2497" width="2623" height="2497">
	<title>ghost-eps</title>
	<defs>
		<clipPath clipPathUnits="userSpaceOnUse" id="cp1">
			<path d="m-1446-2111h7827v6654h-7827z"/>
		</clipPath>
	</defs>
	<style>
		.s0 { fill: #dbdcd3 } 
		.s1 { fill: #1a1a1a } 
		.s2 { fill: #ffffff } 
		.s3 { fill: #bdbfaf } 
		.s4 { fill: #ff9bad } 
	</style>
	<g id="Page 1" clip-path="url(#cp1)">
		<path id="Path 3" class="s0" d="m1110.3 2032.2c22.4 170.1-2.5 419.3-72.5 428.6-69.9 9.2-158.5-225.2-180.9-395.3-22.4-170.1 48-213.9 99.8-220.8 51.8-6.8 131.2 17.3 153.6 187.5z"/>
		<path id="Path 4" fill-rule="evenodd" class="s1" d="m1068.5 1845.7c37.6 34.1 65.3 91.6 77.2 181.8 11.7 89 11.1 195.7-1.7 284.4-6.4 44.3-15.5 83.9-29.4 116.1-14 32.2-34.3 63.1-72.1 68.1-37.9 5-65.5-19.7-87.3-47.1-21.7-27.5-40.8-63.4-58.5-104.6-35.2-82.3-63.5-185.2-75.2-274.2-11.8-90.3 0-152.9 27.5-195.6 27.4-42.7 69.4-60.8 103.1-65.2 33.6-4.4 78.9 2.2 116.4 36.3zm-159.5 67.5c-15.1 23.5-27.3 67.8-16.7 147.7 10.6 81.1 37.9 180.4 70 255.4 16.1 37.6 33.6 69.2 48.8 88.4 11.5 14.4 19.8 18.6 22 20 1.8-1.9 8.7-8.2 16-25 9.7-22.5 18.5-57.6 24.3-98 11.6-80.8 12.2-183.8 1.6-264.9-10.6-79.9-33.7-119.5-54.4-138.3-20.7-18.8-41-20.8-59.2-18.4-18.2 2.4-37.3 9.6-52.4 33.1z"/>
		<path id="Path 5" class="s0" d="m1824.2 2160.7c69.4 31.9 116.9 68 112.6 100.3-3.2 24.6-36.1 44-84.9 57.3-101.4 27.6-182.9-13.8-248.5-79.1-34.3-34-66.6-70.3-93.2-105-104.5-136.1-65.4-209.3-23.9-241.1 41.4-31.8 122.3-50.6 226.7 85.5 40.2 52.3 80.1 118.2 111.2 182.1z"/>
		<path id="Path 6" fill-rule="evenodd" class="s1" d="m1464.6 1864.8c26.9-20.7 69.4-37.5 119-26.8 49.6 10.8 102.3 46.7 157.7 118.9 39.6 51.6 77.9 114.5 109.1 176.8 31.7 15.3 59.3 31.5 80.9 49.9 24.1 20.5 45.5 47.2 40.9 82.1-3.5 26.6-21.7 45.4-41.3 58.1-19.6 12.7-43 21.6-69.6 28.9-114.8 31.3-212.4-17.8-283.1-88.2-35.2-35.1-68.5-72.3-96.3-108.5-55.4-72.3-76.5-132.5-74-183.2 2.4-50.6 29.7-87.3 56.7-108zm43.4 56.6c-14.5 11.2-27.5 27-28.9 54.9-1.3 27.9 10.4 72.3 59.4 136.2 25.4 33.2 56.8 68.4 90 101.4 60.5 60.2 126 93.9 214 70 22.1-6.1 39.6-13.5 49.5-19.9 6.1-4 8.2-6.5 9-7.5-1-1.7-4.1-8.5-16-18.7-15.9-13.5-42.9-29.6-75.7-44.7l-11.6-5.4-5.6-11.4c-30.1-61.7-69.1-126.1-107.4-176-49-63.9-88.9-86.6-116.2-92.6-27.3-5.9-46 2.5-60.5 13.7z"/>
		<path id="Path 7" class="s0" d="m464.7 1291.2c-148.6 85.8-388.5 158.2-423.7 97.1-35.3-61.1 147.3-232.7 295.9-318.4 148.6-85.8 216-37.5 242.1 7.7 26.2 45.3 34.3 127.8-114.3 213.6z"/>
		<path id="Path 8" fill-rule="evenodd" class="s1" d="m621 1181.3c-17.2 47.7-59.7 95.3-138.5 140.8-77.7 44.9-176.6 85.1-263.3 107.3-43.4 11.1-83.6 17.8-118.6 17.2-35-0.5-71.4-7.4-90.5-40.5-19.1-33.1-6.9-68 10.1-98.6 17.1-30.7 42.9-62.1 74.2-94.1 62.6-64.1 146.9-129.6 224.6-174.4 78.9-45.5 141.3-58.5 191.2-49.5 49.9 9 82.8 40.9 99.7 70.3 17 29.4 28.2 73.7 11.1 121.5zm-123.5-121.6c-27.5-5-73 0.8-142.8 41-70.9 41-152.2 104.1-209.2 162.5-28.6 29.2-51 57.5-62.9 78.9-9 16.1-9.7 25.4-10.1 28 2.4 0.9 10.8 4.9 29.2 5.2 24.5 0.4 60.2-4.9 99.8-15 79.1-20.2 174.5-59.1 245.3-100 69.8-40.3 97.6-76.8 107-103.1 9.4-26.3 3.5-45.9-5.6-61.8-9.2-15.8-23.2-30.7-50.7-35.7z"/>
		<path id="Path 9" class="s0" d="m2286.4 1069.9c148.6 85.8 331.2 257.3 295.9 318.4-35.3 61.1-275.1-11.3-423.7-97.1-148.6-85.8-140.5-168.3-114.4-213.6 26.2-45.2 93.6-93.5 242.2-7.7z"/>
		<path id="Path 10" fill-rule="evenodd" class="s1" d="m2113.1 989.5c49.9-9 112.3 4 191.2 49.5 77.7 44.9 162 110.3 224.6 174.4 31.2 32 57.1 63.4 74.2 94.1 17 30.6 29.2 65.5 10.1 98.6-19.1 33.1-55.5 40-90.5 40.5-35 0.6-75.2-6.1-118.6-17.2-86.7-22.2-185.6-62.4-263.3-107.3-78.8-45.5-121.3-93.1-138.5-140.8-17.1-47.8-5.9-92.1 11.1-121.5 16.9-29.4 49.7-61.3 99.7-70.3zm-43.6 167.7c9.4 26.3 37.2 62.9 107 103.1 70.8 41 166.2 79.8 245.3 100 39.5 10.1 75.3 15.4 99.8 15 18.4-0.3 26.8-4.3 29.2-5.2-0.4-2.6-1.1-11.9-10.1-27.9-11.9-21.5-34.4-49.8-62.9-79-57-58.4-138.4-121.5-209.2-162.4-69.8-40.3-115.3-46.1-142.8-41.1-27.5 5-41.5 19.9-50.7 35.7-9.1 15.9-15 35.5-5.6 61.8z"/>
		<path id="Path 11" fill-rule="evenodd" class="s1" d="m1309.9 0.6h1.8c552.1 0 1000.9 448.8 1000.9 1000.9v766.9c0 194-158 352-352 352-88.3 0-169.1-32.6-231-86.3-96.8 124.4-248.1 204.3-417.9 204.3-169.9 0-321.2-79.9-417.9-204.4-61.9 53.8-142.8 86.4-231.1 86.4-194 0-352-158-352-352l0.2-766.8c0-551.4 447.6-999.9 999-1001zm-884.9 1001l-0.2 766.8c0 132.8 105.1 237.9 237.9 237.9 79.7 0 148.9-38.3 192.1-97.4l52.2-71.3 43.6 76.9c71.1 125.4 205.2 209.8 361 209.8 155.8 0 289.9-84.4 361.1-209.8l43.6-76.7 52.1 71.2c43.2 59.1 112.4 97.3 192.1 97.3 132.8 0 237.9-105.1 237.9-237.9v-766.8c0-490.5-396.4-886.8-886.8-886.8h-1.6c-489.7 1-885 397-885 886.8z"/>
		<path id="Path 12" class="s2" d="m1311.8 57.7c521.2 0 943.8 422.6 943.8 943.9v766.8c0 163.4-131.6 295-295 295-127.9 0-236.3-80.7-277.4-194.2-117.4 50.2-243.7 76.2-371.4 76.2-127.8 0-254.2-26-371.6-76.2-41 113.4-149.4 194.2-277.4 194.2-163.4 0-295-131.6-295-295l0.1-766.8c0-520.6 421.5-942.9 942.1-943.9zm-0.1 943.8c261.5 0 472 210.5 472 472v235.9c0 261.4-210.5 471.9-472 471.9-261.5 0-471.9-210.5-471.9-471.9v-235.9c0-261.5 210.4-472 471.9-472z"/>
		<path id="Path 13" class="s0" d="m1311.7 57.7c521.2 0 943.8 422.6 943.8 943.9v766.8c0 163.4-131.5 295-294.9 295-98.1 0-184.7-47.5-238.2-120.7-81 142.7-234.2 238.6-410.7 238.6-144.1 0-304.5-54.8-410.7-238.7 173 164.7 636.4 120.5 636.4-278.9v-662.1c0-394.2-241.6-731.8-584.7-873.1 110.1-45.4 230.8-70.5 357.3-70.8z"/>
		<path id="Path 14" class="s3" d="m1311.7 57.7c521.2 0 943.8 422.6 943.8 943.9v766.8c0 163.4-131.5 295-294.9 295-41.2 0-80.4-8.4-115.9-23.6 105.4-44.8 179-149.2 179-271.4v-766.8c0-482-361.3-879.6-827.8-936.8 37.4-4.6 75.4-7 114.1-7.1z"/>
		<path id="Path 15" fill-rule="evenodd" class="s1" d="m1311.7 43.5c529-0.1 958.1 429.1 958.1 958.1v766.8c0 171.1-138.2 309.2-309.2 309.2-95.2 0-179.8-43-236.5-110.4-85.8 137.3-238.1 228.4-412.4 228.4-174.3 0-326.7-91.1-412.5-228.5-56.6 67.4-141.3 110.5-236.5 110.5-171 0-309.2-138.1-309.2-309.2l0.2-766.8c0-528.3 428-957.2 956.2-958.1zm-929.4 958.1l-0.2 766.8c0 155.7 124.9 280.7 280.7 280.7 93.5 0 175.7-45.2 226.7-114.9l13-17.8 10.9 19.2c78.5 138.4 227 231.5 398.4 231.5 171.3 0 319.7-93 398.2-231.4l10.9-19.2 13.1 17.8c50.9 69.7 133.2 114.8 226.6 114.8 155.8 0 280.7-125 280.7-280.7v-766.8c0-513.6-416-929.6-929.6-929.6h-1.7c-512.8 1-927.7 416.7-927.7 929.6z"/>
		<path id="Path 16" class="s3" d="m1946.3 1995.1q0.2 0 0.4 0 0.6 0 1.1 0 0.5 0.1 1 0.2 0.6 0 1.1 0.1 0.5 0.1 1.1 0.2 0.5 0.1 1 0.3 0.5 0.1 1 0.3 0.5 0.2 1 0.4 0.5 0.2 1 0.4 0.5 0.2 1 0.4 0.5 0.3 0.9 0.5 0.5 0.3 0.9 0.6 0.5 0.3 0.9 0.6 0.5 0.3 0.9 0.6 0.4 0.4 0.8 0.7 0.4 0.4 0.8 0.7 0.4 0.4 0.8 0.8 0.3 0.4 0.7 0.8 0.3 0.4 0.6 0.8 0.4 0.5 0.7 0.9 0.3 0.4 0.5 0.9 0.3 0.5 0.6 0.9 0.2 0.5 0.5 1 0.2 0.4 0.4 0.9 0.2 0.5 0.4 1 0.3 0.7 0.5 1.4 0 0.2 0.1 0.3 0 0.1 0 0.2 0.1 0.5 0.2 0.9 0.1 0.6 0.2 1.1 0.1 0.5 0.2 1.1 0.1 0.5 0.1 1 0 0.2 0 0.4 0 0.5 0 1 0 0.2 0 0.4 0 0.6 0 1.1 0 0.5-0.1 1.1-0.1 0.5-0.2 1-0.1 0.6-0.2 1.1-0.1 0.5-0.2 1-0.2 0.5-0.3 1-0.2 0.6-0.4 1-0.2 0.6-0.4 1-0.2 0.5-0.5 1-0.2 0.5-0.5 0.9-0.2 0.5-0.5 1-0.3 0.4-0.6 0.8-0.3 0.5-0.7 0.9-0.3 0.4-0.7 0.8-0.3 0.4-0.7 0.8-0.3 0.4-0.7 0.8-0.4 0.3-0.8 0.7-0.4 0.3-0.9 0.6-0.4 0.4-0.8 0.7-0.5 0.3-0.9 0.5-0.5 0.3-1 0.6-0.4 0.2-0.9 0.5-0.5 0.2-1 0.4-0.5 0.2-1 0.4-0.7 0.3-1.4 0.5-0.1 0.1-0.3 0.1-0.1 0-0.1 0-0.5 0.1-1 0.2-0.5 0.2-1 0.3-0.6 0-1.1 0.1-0.5 0.1-1.1 0.1-0.1 0-0.3 0-0.5 0-1.1 0-0.2 0-0.4 0-0.5 0-1.1 0-0.5 0-1-0.1-0.5-0.1-1.1-0.2-0.5-0.1-1-0.2-0.5-0.1-1.1-0.3-0.5-0.1-1-0.3-0.5-0.1-1-0.3-0.5-0.2-1-0.4-0.5-0.3-1-0.5-0.4-0.2-0.9-0.5-0.5-0.3-0.9-0.6-0.5-0.2-0.9-0.6-0.4-0.3-0.8-0.6-0.5-0.3-0.9-0.7-0.4-0.3-0.8-0.7-0.3-0.4-0.7-0.8-0.4-0.4-0.7-0.8-0.4-0.4-0.7-0.8-0.3-0.4-0.6-0.9-0.3-0.4-0.6-0.9-0.3-0.4-0.5-0.9-0.3-0.5-0.5-0.9-0.2-0.5-0.5-1-0.2-0.5-0.3-1-0.3-0.7-0.5-1.4-0.1-0.2-0.2-0.3 0-0.1 0-0.2-0.1-0.4-0.2-0.9-0.1-0.5-0.2-1.1-0.1-0.5-0.1-1-0.1-0.6-0.2-1.1 0-0.2 0-0.3 0-0.6 0-1.1 0-0.2 0-0.4 0-0.5 0-1.1 0.1-0.5 0.2-1 0-0.6 0.1-1.1 0.1-0.5 0.2-1 0.1-0.6 0.3-1.1 0.1-0.5 0.3-1 0.2-0.5 0.4-1 0.1-0.5 0.4-1 0.2-0.5 0.4-1 0.3-0.4 0.5-0.9 0.3-0.5 0.6-0.9 0.3-0.5 0.6-0.9 0.3-0.4 0.6-0.9 0.3-0.4 0.7-0.8 0.4-0.4 0.7-0.8 0.4-0.4 0.8-0.7 0.4-0.4 0.8-0.7 0.4-0.4 0.8-0.7 0.4-0.3 0.9-0.6 0.4-0.3 0.9-0.6 0.4-0.3 0.9-0.6 0.5-0.2 0.9-0.5 0.5-0.2 1-0.4 0.5-0.2 1-0.4 0.7-0.3 1.4-0.5 0.2 0 0.3-0.1 0.1 0 0.2 0 0.4-0.1 0.9-0.2 0.5-0.1 1.1-0.2 0.5-0.1 1-0.2 0.6-0.1 1.1-0.1 0.2 0 0.3 0 0.6 0 1.1 0zm0.4 0q0.5-0.1 1.1 0 0.5 0 1 0.1 0.6 0.1 1.1 0.2 0.5 0 1 0.2 0.6 0.1 1.1 0.2 0.5 0.2 1 0.3 0.5 0.2 1 0.4 0.5 0.2 1 0.4 0.5 0.2 1 0.5 0.4 0.2 0.9 0.5 0.5 0.2 0.9 0.5 0.5 0.3 0.9 0.6 0.5 0.3 0.9 0.7 0.4 0.3 0.8 0.6 0.4 0.4 0.8 0.8 0.4 0.3 0.7 0.7 0.4 0.4 0.8 0.8 0.3 0.5 0.6 0.9 0.4 0.4 0.7 0.8 0.3 0.5 0.5 0.9 0.3 0.5 0.6 1 0.2 0.4 0.5 0.9 0.2 0.5 0.4 1 0.2 0.5 0.4 1 0.3 0.7 0.5 1.4 0 0.1 0.1 0.3 0 0 0 0.1 0.1 0.5 0.2 1 0.1 0.5 0.2 1 0.1 0.5 0.2 1.1 0.1 0.5 0.1 1.1 0 0.1 0 0.3 0 0.5 0 1.1 0 0.2 0 0.4 0 0.5 0 1 0 0.6-0.1 1.1-0.1 0.5-0.2 1.1-0.1 0.5-0.2 1-0.1 0.5-0.3 1.1-0.1 0.5-0.3 1-0.1 0.5-0.3 1-0.2 0.5-0.4 1-0.2 0.5-0.5 0.9-0.2 0.5-0.5 1-0.2 0.5-0.5 0.9-0.3 0.5-0.6 0.9-0.3 0.4-0.7 0.8-0.3 0.5-0.7 0.9-0.3 0.4-0.7 0.7-0.4 0.4-0.7 0.8-0.4 0.4-0.8 0.7-0.4 0.3-0.9 0.7-0.4 0.3-0.8 0.6-0.5 0.3-0.9 0.6-0.5 0.3-1 0.5-0.4 0.3-0.9 0.5-0.5 0.2-1 0.4-0.5 0.3-1 0.4-0.7 0.3-1.4 0.5-0.1 0.1-0.3 0.2-0.1 0-0.2 0-0.4 0.1-0.9 0.2-0.5 0.1-1 0.2-0.6 0.1-1.1 0.1-0.5 0.1-1.1 0.2-0.2 0-0.3 0-0.6 0-1.1 0-0.2 0-0.4 0-0.5 0-1.1 0-0.5-0.1-1-0.2-0.6 0-1.1-0.1-0.5-0.1-1-0.2-0.5-0.1-1.1-0.3-0.5-0.1-1-0.3-0.5-0.2-1-0.4-0.5-0.1-1-0.4-0.5-0.2-1-0.4-0.4-0.3-0.9-0.5-0.5-0.3-0.9-0.6-0.5-0.3-0.9-0.6-0.4-0.3-0.9-0.6-0.4-0.4-0.8-0.7-0.4-0.4-0.8-0.7-0.4-0.4-0.7-0.8-0.4-0.4-0.7-0.8-0.4-0.4-0.7-0.8-0.3-0.4-0.6-0.9-0.3-0.4-0.6-0.9-0.3-0.4-0.5-0.9-0.3-0.5-0.5-1-0.3-0.4-0.5-0.9-0.2-0.5-0.4-1-0.2-0.7-0.4-1.4-0.1-0.2-0.2-0.3 0-0.1 0-0.2-0.1-0.4-0.2-0.9-0.1-0.6-0.2-1.1-0.1-0.5-0.1-1.1-0.1-0.5-0.2-1 0-0.2 0-0.4 0-0.5 0-1 0-0.2 0-0.4 0-0.6 0-1.1 0.1-0.5 0.2-1.1 0-0.5 0.1-1 0.1-0.5 0.2-1.1 0.1-0.5 0.3-1 0.1-0.5 0.3-1 0.1-0.5 0.3-1 0.2-0.5 0.5-1 0.2-0.5 0.4-1 0.2-0.5 0.5-0.9 0.3-0.5 0.6-0.9 0.3-0.5 0.6-0.9 0.3-0.5 0.6-0.9 0.3-0.4 0.7-0.8 0.3-0.4 0.7-0.8 0.4-0.4 0.8-0.8 0.4-0.3 0.8-0.7 0.4-0.3 0.8-0.6 0.4-0.4 0.9-0.7 0.4-0.3 0.9-0.6 0.4-0.2 0.9-0.5 0.5-0.2 0.9-0.5 0.5-0.2 1-0.4 0.5-0.2 1-0.4 0.7-0.3 1.4-0.5 0.2-0.1 0.3-0.1 0.1 0 0.2 0 0.4-0.1 0.9-0.2 0.5-0.2 1-0.3 0.6 0 1.1-0.1 0.5-0.1 1.1-0.2 0.2 0 0.3 0 0.5 0 1.1 0 0.2 0.1 0.4 0.1zm0 0q0.5-0.1 1.1 0 0.5 0 1 0.1 0.6 0.1 1.1 0.2 0.5 0 1 0.2 0.6 0.1 1.1 0.2 0.5 0.2 1 0.3 0.5 0.2 1 0.4 0.5 0.2 1 0.4 0.5 0.2 1 0.5 0.4 0.2 0.9 0.5 0.5 0.2 0.9 0.5 0.5 0.3 0.9 0.6 0.5 0.3 0.9 0.7 0.4 0.3 0.8 0.6 0.4 0.4 0.8 0.8 0.4 0.3 0.7 0.7 0.4 0.4 0.8 0.8 0.3 0.5 0.6 0.9 0.4 0.4 0.7 0.8 0.3 0.5 0.5 0.9 0.3 0.5 0.6 1 0.2 0.4 0.5 0.9 0.2 0.5 0.4 1 0.2 0.5 0.4 1 0.3 0.7 0.5 1.4 0 0.1 0.1 0.3 0 0 0 0.1 0.1 0.5 0.2 1 0.1 0.5 0.2 1 0.1 0.5 0.2 1.1 0.1 0.5 0.1 1.1 0 0.1 0 0.3 0 0.5 0 1.1 0 0.2 0 0.4 0 0.5 0 1 0 0.6-0.1 1.1-0.1 0.5-0.2 1.1-0.1 0.5-0.2 1-0.1 0.5-0.3 1.1-0.1 0.5-0.3 1-0.1 0.5-0.3 1-0.2 0.5-0.4 1-0.2 0.5-0.5 0.9-0.2 0.5-0.5 1-0.2 0.5-0.5 0.9-0.3 0.5-0.6 0.9-0.3 0.4-0.7 0.8-0.3 0.5-0.7 0.9-0.3 0.4-0.7 0.7-0.4 0.4-0.7 0.8-0.4 0.4-0.8 0.7-0.4 0.3-0.9 0.7-0.4 0.3-0.8 0.6-0.5 0.3-0.9 0.6-0.5 0.3-1 0.5-0.4 0.3-0.9 0.5-0.5 0.2-1 0.4-0.5 0.3-1 0.4-0.7 0.3-1.4 0.5-0.1 0.1-0.3 0.2-0.1 0-0.2 0-0.4 0.1-0.9 0.2-0.5 0.1-1 0.2-0.6 0.1-1.1 0.1-0.5 0.1-1.1 0.2-0.2 0-0.3 0-0.6 0-1.1 0-0.2 0-0.4 0-0.5 0-1.1 0-0.5-0.1-1-0.2-0.6 0-1.1-0.1-0.5-0.1-1-0.2-0.5-0.1-1.1-0.3-0.5-0.1-1-0.3-0.5-0.2-1-0.4-0.5-0.1-1-0.4-0.5-0.2-1-0.4-0.4-0.3-0.9-0.5-0.5-0.3-0.9-0.6-0.5-0.3-0.9-0.6-0.4-0.3-0.9-0.6-0.4-0.4-0.8-0.7-0.4-0.4-0.8-0.7-0.4-0.4-0.7-0.8-0.4-0.4-0.7-0.8-0.4-0.4-0.7-0.8-0.3-0.4-0.6-0.9-0.3-0.4-0.6-0.9-0.3-0.4-0.5-0.9-0.3-0.5-0.5-1-0.3-0.4-0.5-0.9-0.2-0.5-0.4-1-0.2-0.7-0.4-1.4-0.1-0.2-0.2-0.3 0-0.1 0-0.2-0.1-0.4-0.2-0.9-0.1-0.6-0.2-1.1-0.1-0.5-0.1-1.1-0.1-0.5-0.2-1 0-0.2 0-0.4 0-0.5 0-1 0-0.2 0-0.4 0-0.6 0-1.1 0.1-0.5 0.2-1.1 0-0.5 0.1-1 0.1-0.5 0.2-1.1 0.1-0.5 0.3-1 0.1-0.5 0.3-1 0.1-0.5 0.3-1 0.2-0.5 0.5-1 0.2-0.5 0.4-1 0.2-0.5 0.5-0.9 0.3-0.5 0.6-0.9 0.3-0.5 0.6-0.9 0.3-0.5 0.6-0.9 0.3-0.4 0.7-0.8 0.3-0.4 0.7-0.8 0.4-0.4 0.8-0.8 0.4-0.3 0.8-0.7 0.4-0.3 0.8-0.6 0.4-0.4 0.9-0.7 0.4-0.3 0.9-0.6 0.4-0.2 0.9-0.5 0.5-0.2 0.9-0.5 0.5-0.2 1-0.4 0.5-0.2 1-0.4 0.7-0.3 1.4-0.5 0.2-0.1 0.3-0.1 0.1 0 0.2 0 0.4-0.1 0.9-0.2 0.5-0.2 1-0.3 0.6 0 1.1-0.1 0.5-0.1 1.1-0.2 0.2 0 0.3 0 0.5 0 1.1 0 0.2 0.1 0.4 0.1zm0 0q0.5-0.1 1.1 0 0.5 0 1 0.1 0.6 0.1 1.1 0.2 0.5 0 1 0.2 0.6 0.1 1.1 0.2 0.5 0.2 1 0.3 0.5 0.2 1 0.4 0.5 0.2 1 0.4 0.5 0.2 1 0.5 0.4 0.2 0.9 0.5 0.5 0.2 0.9 0.5 0.5 0.3 0.9 0.6 0.5 0.3 0.9 0.7 0.4 0.3 0.8 0.6 0.4 0.4 0.8 0.8 0.4 0.3 0.7 0.7 0.4 0.4 0.8 0.8 0.3 0.5 0.6 0.9 0.4 0.4 0.7 0.8 0.3 0.5 0.5 0.9 0.3 0.5 0.6 1 0.2 0.4 0.5 0.9 0.2 0.5 0.4 1 0.2 0.5 0.4 1 0.3 0.7 0.5 1.4 0 0.1 0.1 0.3 0 0 0 0.1 0.1 0.5 0.2 1 0.1 0.5 0.2 1 0.1 0.5 0.2 1.1 0.1 0.5 0.1 1.1 0 0.1 0 0.3 0 0.5 0 1.1 0 0.2 0 0.4 0 0.5 0 1 0 0.6-0.1 1.1-0.1 0.5-0.2 1.1-0.1 0.5-0.2 1-0.1 0.5-0.3 1.1-0.1 0.5-0.3 1-0.1 0.5-0.3 1-0.2 0.5-0.4 1-0.2 0.5-0.5 0.9-0.2 0.5-0.5 1-0.2 0.5-0.5 0.9-0.3 0.5-0.6 0.9-0.3 0.4-0.7 0.8-0.3 0.5-0.7 0.9-0.3 0.4-0.7 0.7-0.4 0.4-0.7 0.8-0.4 0.4-0.8 0.7-0.4 0.3-0.9 0.7-0.4 0.3-0.8 0.6-0.5 0.3-0.9 0.6-0.5 0.3-1 0.5-0.4 0.3-0.9 0.5-0.5 0.2-1 0.4-0.5 0.3-1 0.4-0.7 0.3-1.4 0.5-0.1 0.1-0.3 0.2-0.1 0-0.2 0-0.4 0.1-0.9 0.2-0.5 0.1-1 0.2-0.6 0.1-1.1 0.1-0.5 0.1-1.1 0.2-0.2 0-0.3 0-0.6 0-1.1 0-0.2 0-0.4 0-0.5 0-1.1 0-0.5-0.1-1-0.2-0.6 0-1.1-0.1-0.5-0.1-1-0.2-0.5-0.1-1.1-0.3-0.5-0.1-1-0.3-0.5-0.2-1-0.4-0.5-0.1-1-0.4-0.5-0.2-1-0.4-0.4-0.3-0.9-0.5-0.5-0.3-0.9-0.6-0.5-0.3-0.9-0.6-0.4-0.3-0.9-0.6-0.4-0.4-0.8-0.7-0.4-0.4-0.8-0.7-0.4-0.4-0.7-0.8-0.4-0.4-0.7-0.8-0.4-0.4-0.7-0.8-0.3-0.4-0.6-0.9-0.3-0.4-0.6-0.9-0.3-0.4-0.5-0.9-0.3-0.5-0.5-1-0.3-0.4-0.5-0.9-0.2-0.5-0.4-1-0.2-0.7-0.4-1.4-0.1-0.2-0.2-0.3 0-0.1 0-0.2-0.1-0.4-0.2-0.9-0.1-0.6-0.2-1.1-0.1-0.5-0.1-1.1-0.1-0.5-0.2-1 0-0.2 0-0.4 0-0.5 0-1 0-0.2 0-0.4 0-0.6 0-1.1 0.1-0.5 0.2-1.1 0-0.5 0.1-1 0.1-0.5 0.2-1.1 0.1-0.5 0.3-1 0.1-0.5 0.3-1 0.1-0.5 0.3-1 0.2-0.5 0.5-1 0.2-0.5 0.4-1 0.2-0.5 0.5-0.9 0.3-0.5 0.6-0.9 0.3-0.5 0.6-0.9 0.3-0.5 0.6-0.9 0.3-0.4 0.7-0.8 0.3-0.4 0.7-0.8 0.4-0.4 0.8-0.8 0.4-0.3 0.8-0.7 0.4-0.3 0.8-0.6 0.4-0.4 0.9-0.7 0.4-0.3 0.9-0.6 0.4-0.2 0.9-0.5 0.5-0.2 0.9-0.5 0.5-0.2 1-0.4 0.5-0.2 1-0.4 0.7-0.3 1.4-0.5 0.2-0.1 0.3-0.1 0.1 0 0.2 0 0.4-0.1 0.9-0.2 0.5-0.2 1-0.3 0.6 0 1.1-0.1 0.5-0.1 1.1-0.2 0.2 0 0.3 0 0.5 0 1.1 0 0.2 0.1 0.4 0.1zm0 0q0.5-0.1 1.1 0 0.5 0 1 0.1 0.6 0.1 1.1 0.2 0.5 0 1 0.2 0.6 0.1 1.1 0.2 0.5 0.2 1 0.3 0.5 0.2 1 0.4 0.5 0.2 1 0.4 0.5 0.2 1 0.5 0.4 0.2 0.9 0.5 0.5 0.2 0.9 0.5 0.5 0.3 0.9 0.6 0.5 0.3 0.9 0.7 0.4 0.3 0.8 0.6 0.4 0.4 0.8 0.8 0.4 0.3 0.7 0.7 0.4 0.4 0.8 0.8 0.3 0.5 0.6 0.9 0.4 0.4 0.7 0.8 0.3 0.5 0.5 0.9 0.3 0.5 0.6 1 0.2 0.4 0.5 0.9 0.2 0.5 0.4 1 0.2 0.5 0.4 1 0.3 0.7 0.5 1.4 0 0.1 0.1 0.3 0 0 0 0.1 0.1 0.5 0.2 1 0.1 0.5 0.2 1 0.1 0.5 0.2 1.1 0.1 0.5 0.1 1.1 0 0.1 0 0.3 0 0.5 0 1.1 0 0.2 0 0.4 0 0.5 0 1 0 0.6-0.1 1.1-0.1 0.5-0.2 1.1-0.1 0.5-0.2 1-0.1 0.5-0.3 1.1-0.1 0.5-0.3 1-0.1 0.5-0.3 1-0.2 0.5-0.4 1-0.2 0.5-0.5 0.9-0.2 0.5-0.5 1-0.2 0.5-0.5 0.9-0.3 0.5-0.6 0.9-0.3 0.4-0.7 0.8-0.3 0.5-0.7 0.9-0.3 0.4-0.7 0.7-0.4 0.4-0.7 0.8-0.4 0.4-0.8 0.7-0.4 0.3-0.9 0.7-0.4 0.3-0.8 0.6-0.5 0.3-0.9 0.6-0.5 0.3-1 0.5-0.4 0.3-0.9 0.5-0.5 0.2-1 0.4-0.5 0.3-1 0.4-0.7 0.3-1.4 0.5-0.1 0.1-0.3 0.2-0.1 0-0.2 0-0.4 0.1-0.9 0.2-0.5 0.1-1 0.2-0.6 0.1-1.1 0.1-0.5 0.1-1.1 0.2-0.2 0-0.3 0-0.6 0-1.1 0-0.2 0-0.4 0-0.5 0-1.1 0-0.5-0.1-1-0.2-0.6 0-1.1-0.1-0.5-0.1-1-0.2-0.5-0.1-1.1-0.3-0.5-0.1-1-0.3-0.5-0.2-1-0.4-0.5-0.1-1-0.4-0.5-0.2-1-0.4-0.4-0.3-0.9-0.5-0.5-0.3-0.9-0.6-0.5-0.3-0.9-0.6-0.4-0.3-0.9-0.6-0.4-0.4-0.8-0.7-0.4-0.4-0.8-0.7-0.4-0.4-0.7-0.8-0.4-0.4-0.7-0.8-0.4-0.4-0.7-0.8-0.3-0.4-0.6-0.9-0.3-0.4-0.6-0.9-0.3-0.4-0.5-0.9-0.3-0.5-0.5-1-0.3-0.4-0.5-0.9-0.2-0.5-0.4-1-0.2-0.7-0.4-1.4-0.1-0.2-0.2-0.3 0-0.1 0-0.2-0.1-0.4-0.2-0.9-0.1-0.6-0.2-1.1-0.1-0.5-0.1-1.1-0.1-0.5-0.2-1 0-0.2 0-0.4 0-0.5 0-1 0-0.2 0-0.4 0-0.6 0-1.1 0.1-0.5 0.2-1.1 0-0.5 0.1-1 0.1-0.5 0.2-1.1 0.1-0.5 0.3-1 0.1-0.5 0.3-1 0.1-0.5 0.3-1 0.2-0.5 0.5-1 0.2-0.5 0.4-1 0.2-0.5 0.5-0.9 0.3-0.5 0.6-0.9 0.3-0.5 0.6-0.9 0.3-0.5 0.6-0.9 0.3-0.4 0.7-0.8 0.3-0.4 0.7-0.8 0.4-0.4 0.8-0.8 0.4-0.3 0.8-0.7 0.4-0.3 0.8-0.6 0.4-0.4 0.9-0.7 0.4-0.3 0.9-0.6 0.4-0.2 0.9-0.5 0.5-0.2 0.9-0.5 0.5-0.2 1-0.4 0.5-0.2 1-0.4 0.7-0.3 1.4-0.5 0.2-0.1 0.3-0.1 0.1 0 0.2 0 0.4-0.1 0.9-0.2 0.5-0.2 1-0.3 0.6 0 1.1-0.1 0.5-0.1 1.1-0.2 0.2 0 0.3 0 0.5 0 1.1 0 0.2 0.1 0.4 0.1zm0 0q0.5-0.1 1.1 0 0.5 0 1 0.1 0.6 0.1 1.1 0.2 0.5 0 1 0.2 0.6 0.1 1.1 0.2 0.5 0.2 1 0.3 0.5 0.2 1 0.4 0.5 0.2 1 0.4 0.5 0.2 1 0.5 0.4 0.2 0.9 0.5 0.5 0.2 0.9 0.5 0.5 0.3 0.9 0.6 0.5 0.3 0.9 0.7 0.4 0.3 0.8 0.6 0.4 0.4 0.8 0.8 0.4 0.3 0.7 0.7 0.4 0.4 0.8 0.8 0.3 0.5 0.6 0.9 0.4 0.4 0.7 0.8 0.3 0.5 0.5 0.9 0.3 0.5 0.6 1 0.2 0.4 0.5 0.9 0.2 0.5 0.4 1 0.2 0.5 0.4 1 0.3 0.7 0.5 1.4 0 0.1 0.1 0.3 0 0 0 0.1 0.1 0.5 0.2 1 0.1 0.5 0.2 1 0.1 0.5 0.2 1.1 0.1 0.5 0.1 1.1 0 0.1 0 0.3 0 0.5 0 1.1 0 0.2 0 0.4 0 0.5 0 1 0 0.6-0.1 1.1-0.1 0.5-0.2 1.1-0.1 0.5-0.2 1-0.1 0.5-0.3 1.1-0.1 0.5-0.3 1-0.1 0.5-0.3 1-0.2 0.5-0.4 1-0.2 0.5-0.5 0.9-0.2 0.5-0.5 1-0.2 0.5-0.5 0.9-0.3 0.5-0.6 0.9-0.3 0.4-0.7 0.8-0.3 0.5-0.7 0.9-0.3 0.4-0.7 0.7-0.4 0.4-0.7 0.8-0.4 0.4-0.8 0.7-0.4 0.3-0.9 0.7-0.4 0.3-0.8 0.6-0.5 0.3-0.9 0.6-0.5 0.3-1 0.5-0.4 0.3-0.9 0.5-0.5 0.2-1 0.4-0.5 0.3-1 0.4-0.7 0.3-1.4 0.5-0.1 0.1-0.3 0.2-0.1 0-0.2 0-0.4 0.1-0.9 0.2-0.5 0.1-1 0.2-0.6 0.1-1.1 0.1-0.5 0.1-1.1 0.2-0.2 0-0.3 0-0.6 0-1.1 0-0.2 0-0.4 0-0.5 0-1.1 0-0.5-0.1-1-0.2-0.6 0-1.1-0.1-0.5-0.1-1-0.2-0.5-0.1-1.1-0.3-0.5-0.1-1-0.3-0.5-0.2-1-0.4-0.5-0.1-1-0.4-0.5-0.2-1-0.4-0.4-0.3-0.9-0.5-0.5-0.3-0.9-0.6-0.5-0.3-0.9-0.6-0.4-0.3-0.9-0.6-0.4-0.4-0.8-0.7-0.4-0.4-0.8-0.7-0.4-0.4-0.7-0.8-0.4-0.4-0.7-0.8-0.4-0.4-0.7-0.8-0.3-0.4-0.6-0.9-0.3-0.4-0.6-0.9-0.3-0.4-0.5-0.9-0.3-0.5-0.5-1-0.3-0.4-0.5-0.9-0.2-0.5-0.4-1-0.2-0.7-0.4-1.4-0.1-0.2-0.2-0.3 0-0.1 0-0.2-0.1-0.4-0.2-0.9-0.1-0.6-0.2-1.1-0.1-0.5-0.1-1.1-0.1-0.5-0.2-1 0-0.2 0-0.4 0-0.5 0-1 0-0.2 0-0.4 0-0.6 0-1.1 0.1-0.5 0.2-1.1 0-0.5 0.1-1 0.1-0.5 0.2-1.1 0.1-0.5 0.3-1 0.1-0.5 0.3-1 0.1-0.5 0.3-1 0.2-0.5 0.5-1 0.2-0.5 0.4-1 0.2-0.5 0.5-0.9 0.3-0.5 0.6-0.9 0.3-0.5 0.6-0.9 0.3-0.5 0.6-0.9 0.3-0.4 0.7-0.8 0.3-0.4 0.7-0.8 0.4-0.4 0.8-0.8 0.4-0.3 0.8-0.7 0.4-0.3 0.8-0.6 0.4-0.4 0.9-0.7 0.4-0.3 0.9-0.6 0.4-0.2 0.9-0.5 0.5-0.2 0.9-0.5 0.5-0.2 1-0.4 0.5-0.2 1-0.4 0.7-0.3 1.4-0.5 0.2-0.1 0.3-0.1 0.1 0 0.2 0 0.4-0.1 0.9-0.2 0.5-0.2 1-0.3 0.6 0 1.1-0.1 0.5-0.1 1.1-0.2 0.2 0 0.3 0 0.5 0 1.1 0 0.2 0.1 0.4 0.1zm0 0q0.5-0.1 1.1 0 0.5 0 1 0.1 0.6 0.1 1.1 0.2 0.5 0 1 0.2 0.6 0.1 1.1 0.2 0.5 0.2 1 0.3 0.5 0.2 1 0.4 0.5 0.2 1 0.4 0.5 0.2 1 0.5 0.4 0.2 0.9 0.5 0.5 0.2 0.9 0.5 0.5 0.3 0.9 0.6 0.5 0.3 0.9 0.7 0.4 0.3 0.8 0.6 0.4 0.4 0.8 0.8 0.4 0.3 0.7 0.7 0.4 0.4 0.8 0.8 0.3 0.5 0.6 0.9 0.4 0.4 0.7 0.8 0.3 0.5 0.5 0.9 0.3 0.5 0.6 1 0.2 0.4 0.5 0.9 0.2 0.5 0.4 1 0.2 0.5 0.4 1 0.3 0.7 0.5 1.4 0 0.1 0.1 0.3 0 0 0 0.1 0.1 0.5 0.2 1 0.1 0.5 0.2 1 0.1 0.5 0.2 1.1 0.1 0.5 0.1 1.1 0 0.1 0 0.3 0 0.5 0 1.1 0 0.2 0 0.4 0 0.5 0 1 0 0.6-0.1 1.1-0.1 0.5-0.2 1.1-0.1 0.5-0.2 1-0.1 0.5-0.3 1.1-0.1 0.5-0.3 1-0.1 0.5-0.3 1-0.2 0.5-0.4 1-0.2 0.5-0.5 0.9-0.2 0.5-0.5 1-0.2 0.5-0.5 0.9-0.3 0.5-0.6 0.9-0.3 0.4-0.7 0.8-0.3 0.5-0.7 0.9-0.3 0.4-0.7 0.7-0.4 0.4-0.7 0.8-0.4 0.4-0.8 0.7-0.4 0.3-0.9 0.7-0.4 0.3-0.8 0.6-0.5 0.3-0.9 0.6-0.5 0.3-1 0.5-0.4 0.3-0.9 0.5-0.5 0.2-1 0.4-0.5 0.3-1 0.4-0.7 0.3-1.4 0.5-0.1 0.1-0.3 0.2-0.1 0-0.2 0-0.4 0.1-0.9 0.2-0.5 0.1-1 0.2-0.6 0.1-1.1 0.1-0.5 0.1-1.1 0.2-0.2 0-0.3 0-0.6 0-1.1 0-0.2 0-0.4 0-0.5 0-1.1 0-0.5-0.1-1-0.2-0.6 0-1.1-0.1-0.5-0.1-1-0.2-0.5-0.1-1.1-0.3-0.5-0.1-1-0.3-0.5-0.2-1-0.4-0.5-0.1-1-0.4-0.5-0.2-1-0.4-0.4-0.3-0.9-0.5-0.5-0.3-0.9-0.6-0.5-0.3-0.9-0.6-0.4-0.3-0.9-0.6-0.4-0.4-0.8-0.7-0.4-0.4-0.8-0.7-0.4-0.4-0.7-0.8-0.4-0.4-0.7-0.8-0.4-0.4-0.7-0.8-0.3-0.4-0.6-0.9-0.3-0.4-0.6-0.9-0.3-0.4-0.5-0.9-0.3-0.5-0.5-1-0.3-0.4-0.5-0.9-0.2-0.5-0.4-1-0.2-0.7-0.4-1.4-0.1-0.2-0.2-0.3 0-0.1 0-0.2-0.1-0.4-0.2-0.9-0.1-0.6-0.2-1.1-0.1-0.5-0.1-1.1-0.1-0.5-0.2-1 0-0.2 0-0.4 0-0.5 0-1 0-0.2 0-0.4 0-0.6 0-1.1 0.1-0.5 0.2-1.1 0-0.5 0.1-1 0.1-0.5 0.2-1.1 0.1-0.5 0.3-1 0.1-0.5 0.3-1 0.1-0.5 0.3-1 0.2-0.5 0.5-1 0.2-0.5 0.4-1 0.2-0.5 0.5-0.9 0.3-0.5 0.6-0.9 0.3-0.5 0.6-0.9 0.3-0.5 0.6-0.9 0.3-0.4 0.7-0.8 0.3-0.4 0.7-0.8 0.4-0.4 0.8-0.8 0.4-0.3 0.8-0.7 0.4-0.3 0.8-0.6 0.4-0.4 0.9-0.7 0.4-0.3 0.9-0.6 0.4-0.2 0.9-0.5 0.5-0.2 0.9-0.5 0.5-0.2 1-0.4 0.5-0.2 1-0.4 0.7-0.3 1.4-0.5 0.2-0.1 0.3-0.1 0.1 0 0.2 0 0.4-0.1 0.9-0.2 0.5-0.2 1-0.3 0.6 0 1.1-0.1 0.5-0.1 1.1-0.2 0.2 0 0.3 0 0.5 0 1.1 0 0.2 0.1 0.4 0.1zm0 0q0.5-0.1 1.1 0 0.5 0 1 0.1 0.6 0.1 1.1 0.2 0.5 0 1 0.2 0.6 0.1 1.1 0.2 0.5 0.2 1 0.3 0.5 0.2 1 0.4 0.5 0.2 1 0.4 0.5 0.2 1 0.5 0.4 0.2 0.9 0.5 0.5 0.2 0.9 0.5 0.5 0.3 0.9 0.6 0.5 0.3 0.9 0.7 0.4 0.3 0.8 0.6 0.4 0.4 0.8 0.8 0.4 0.3 0.7 0.7 0.4 0.4 0.8 0.8 0.3 0.5 0.6 0.9 0.4 0.4 0.7 0.8 0.3 0.5 0.5 0.9 0.3 0.5 0.6 1 0.2 0.4 0.5 0.9 0.2 0.5 0.4 1 0.2 0.5 0.4 1 0.3 0.7 0.5 1.4 0 0.1 0.1 0.3 0 0 0 0.1 0.1 0.5 0.2 1 0.1 0.5 0.2 1 0.1 0.5 0.2 1.1 0.1 0.5 0.1 1.1 0 0.1 0 0.3 0 0.5 0 1.1 0 0.2 0 0.4 0 0.5 0 1 0 0.6-0.1 1.1-0.1 0.5-0.2 1.1-0.1 0.5-0.2 1-0.1 0.5-0.3 1.1-0.1 0.5-0.3 1-0.1 0.5-0.3 1-0.2 0.5-0.4 1-0.2 0.5-0.5 0.9-0.2 0.5-0.5 1-0.2 0.5-0.5 0.9-0.3 0.5-0.6 0.9-0.3 0.4-0.7 0.8-0.3 0.5-0.7 0.9-0.3 0.4-0.7 0.7-0.4 0.4-0.7 0.8-0.4 0.4-0.8 0.7-0.4 0.3-0.9 0.7-0.4 0.3-0.8 0.6-0.5 0.3-0.9 0.6-0.5 0.3-1 0.5-0.4 0.3-0.9 0.5-0.5 0.2-1 0.4-0.5 0.3-1 0.4-0.7 0.3-1.4 0.5-0.1 0.1-0.3 0.2-0.1 0-0.2 0-0.4 0.1-0.9 0.2-0.5 0.1-1 0.2-0.6 0.1-1.1 0.1-0.5 0.1-1.1 0.2-0.2 0-0.3 0-0.6 0-1.1 0-0.2 0-0.4 0-0.5 0-1.1 0-0.5-0.1-1-0.2-0.6 0-1.1-0.1-0.5-0.1-1-0.2-0.5-0.1-1.1-0.3-0.5-0.1-1-0.3-0.5-0.2-1-0.4-0.5-0.1-1-0.4-0.5-0.2-1-0.4-0.4-0.3-0.9-0.5-0.5-0.3-0.9-0.6-0.5-0.3-0.9-0.6-0.4-0.3-0.9-0.6-0.4-0.4-0.8-0.7-0.4-0.4-0.8-0.7-0.4-0.4-0.7-0.8-0.4-0.4-0.7-0.8-0.4-0.4-0.7-0.8-0.3-0.4-0.6-0.9-0.3-0.4-0.6-0.9-0.3-0.4-0.5-0.9-0.3-0.5-0.5-1-0.3-0.4-0.5-0.9-0.2-0.5-0.4-1-0.2-0.7-0.4-1.4-0.1-0.2-0.2-0.3 0-0.1 0-0.2-0.1-0.4-0.2-0.9-0.1-0.6-0.2-1.1-0.1-0.5-0.1-1.1-0.1-0.5-0.2-1 0-0.2 0-0.4 0-0.5 0-1 0-0.2 0-0.4 0-0.6 0-1.1 0.1-0.5 0.2-1.1 0-0.5 0.1-1 0.1-0.5 0.2-1.1 0.1-0.5 0.3-1 0.1-0.5 0.3-1 0.1-0.5 0.3-1 0.2-0.5 0.5-1 0.2-0.5 0.4-1 0.2-0.5 0.5-0.9 0.3-0.5 0.6-0.9 0.3-0.5 0.6-0.9 0.3-0.5 0.6-0.9 0.3-0.4 0.7-0.8 0.3-0.4 0.7-0.8 0.4-0.4 0.8-0.8 0.4-0.3 0.8-0.7 0.4-0.3 0.8-0.6 0.4-0.4 0.9-0.7 0.4-0.3 0.9-0.6 0.4-0.2 0.9-0.5 0.5-0.2 0.9-0.5 0.5-0.2 1-0.4 0.5-0.2 1-0.4 0.7-0.3 1.4-0.5 0.2-0.1 0.3-0.1 0.1 0 0.2 0 0.4-0.1 0.9-0.2 0.5-0.2 1-0.3 0.6 0 1.1-0.1 0.5-0.1 1.1-0.2 0.2 0 0.3 0 0.5 0 1.1 0 0.2 0.1 0.4 0.1zm0 0q0.5-0.1 1.1 0 0.5 0 1 0.1 0.6 0.1 1.1 0.2 0.5 0 1 0.2 0.6 0.1 1.1 0.2 0.5 0.2 1 0.3 0.5 0.2 1 0.4 0.5 0.2 1 0.4 0.5 0.2 1 0.5 0.4 0.2 0.9 0.5 0.5 0.2 0.9 0.5 0.5 0.3 0.9 0.6 0.5 0.3 0.9 0.7 0.4 0.3 0.8 0.6 0.4 0.4 0.8 0.8 0.4 0.3 0.7 0.7 0.4 0.4 0.8 0.8 0.3 0.5 0.6 0.9 0.4 0.4 0.7 0.8 0.3 0.5 0.5 0.9 0.3 0.5 0.6 1 0.2 0.4 0.5 0.9 0.2 0.5 0.4 1 0.2 0.5 0.4 1 0.3 0.7 0.5 1.4 0 0.1 0.1 0.3 0 0 0 0.1 0.1 0.5 0.2 1 0.1 0.5 0.2 1 0.1 0.5 0.2 1.1 0.1 0.5 0.1 1.1 0 0.1 0 0.3 0 0.5 0 1.1 0 0.2 0 0.4 0 0.5 0 1 0 0.6-0.1 1.1-0.1 0.5-0.2 1.1-0.1 0.5-0.2 1-0.1 0.5-0.3 1.1-0.1 0.5-0.3 1-0.1 0.5-0.3 1-0.2 0.5-0.4 1-0.2 0.5-0.5 0.9-0.2 0.5-0.5 1-0.2 0.5-0.5 0.9-0.3 0.5-0.6 0.9-0.3 0.4-0.7 0.8-0.3 0.5-0.7 0.9-0.3 0.4-0.7 0.7-0.4 0.4-0.7 0.8-0.4 0.4-0.8 0.7-0.4 0.3-0.9 0.7-0.4 0.3-0.8 0.6-0.5 0.3-0.9 0.6-0.5 0.3-1 0.5-0.4 0.3-0.9 0.5-0.5 0.2-1 0.4-0.5 0.3-1 0.4-0.7 0.3-1.4 0.5-0.1 0.1-0.3 0.2-0.1 0-0.2 0-0.4 0.1-0.9 0.2-0.5 0.1-1 0.2-0.6 0.1-1.1 0.1-0.5 0.1-1.1 0.2-0.2 0-0.3 0-0.6 0-1.1 0-0.2 0-0.4 0-0.5 0-1.1 0-0.5-0.1-1-0.2-0.6 0-1.1-0.1-0.5-0.1-1-0.2-0.5-0.1-1.1-0.3-0.5-0.1-1-0.3-0.5-0.2-1-0.4-0.5-0.1-1-0.4-0.5-0.2-1-0.4-0.4-0.3-0.9-0.5-0.5-0.3-0.9-0.6-0.5-0.3-0.9-0.6-0.4-0.3-0.9-0.6-0.4-0.4-0.8-0.7-0.4-0.4-0.8-0.7-0.4-0.4-0.7-0.8-0.4-0.4-0.7-0.8-0.4-0.4-0.7-0.8-0.3-0.4-0.6-0.9-0.3-0.4-0.6-0.9-0.3-0.4-0.5-0.9-0.3-0.5-0.5-1-0.3-0.4-0.5-0.9-0.2-0.5-0.4-1-0.2-0.7-0.4-1.4-0.1-0.2-0.2-0.3 0-0.1 0-0.2-0.1-0.4-0.2-0.9-0.1-0.6-0.2-1.1-0.1-0.5-0.1-1.1-0.1-0.5-0.2-1 0-0.2 0-0.4 0-0.5 0-1 0-0.2 0-0.4 0-0.6 0-1.1 0.1-0.5 0.2-1.1 0-0.5 0.1-1 0.1-0.5 0.2-1.1 0.1-0.5 0.3-1 0.1-0.5 0.3-1 0.1-0.5 0.3-1 0.2-0.5 0.5-1 0.2-0.5 0.4-1 0.2-0.5 0.5-0.9 0.3-0.5 0.6-0.9 0.3-0.5 0.6-0.9 0.3-0.5 0.6-0.9 0.3-0.4 0.7-0.8 0.3-0.4 0.7-0.8 0.4-0.4 0.8-0.8 0.4-0.3 0.8-0.7 0.4-0.3 0.8-0.6 0.4-0.4 0.9-0.7 0.4-0.3 0.9-0.6 0.4-0.2 0.9-0.5 0.5-0.2 0.9-0.5 0.5-0.2 1-0.4 0.5-0.2 1-0.4 0.7-0.3 1.4-0.5 0.2-0.1 0.3-0.1 0.1 0 0.2 0 0.4-0.1 0.9-0.2 0.5-0.2 1-0.3 0.6 0 1.1-0.1 0.5-0.1 1.1-0.2 0.2 0 0.3 0 0.5 0 1.1 0 0.2 0.1 0.4 0.1zm0 0q0.5-0.1 1.1 0 0.5 0 1 0.1 0.6 0.1 1.1 0.2 0.5 0 1 0.2 0.6 0.1 1.1 0.2 0.5 0.2 1 0.3 0.5 0.2 1 0.4 0.5 0.2 1 0.4 0.5 0.2 1 0.5 0.4 0.2 0.9 0.5 0.5 0.2 0.9 0.5 0.5 0.3 0.9 0.6 0.5 0.3 0.9 0.7 0.4 0.3 0.8 0.6 0.4 0.4 0.8 0.8 0.4 0.3 0.7 0.7 0.4 0.4 0.8 0.8 0.3 0.5 0.6 0.9 0.4 0.4 0.7 0.8 0.3 0.5 0.5 0.9 0.3 0.5 0.6 1 0.2 0.4 0.5 0.9 0.2 0.5 0.4 1 0.2 0.5 0.4 1 0.3 0.7 0.5 1.4 0 0.1 0.1 0.3 0 0 0 0.1 0.1 0.5 0.2 1 0.1 0.5 0.2 1 0.1 0.5 0.2 1.1 0.1 0.5 0.1 1.1 0 0.1 0 0.3 0 0.5 0 1.1 0 0.2 0 0.4 0 0.5 0 1 0 0.6-0.1 1.1-0.1 0.5-0.2 1.1-0.1 0.5-0.2 1-0.1 0.5-0.3 1.1-0.1 0.5-0.3 1-0.1 0.5-0.3 1-0.2 0.5-0.4 1-0.2 0.5-0.5 0.9-0.2 0.5-0.5 1-0.2 0.5-0.5 0.9-0.3 0.5-0.6 0.9-0.3 0.4-0.7 0.8-0.3 0.5-0.7 0.9-0.3 0.4-0.7 0.7-0.4 0.4-0.7 0.8-0.4 0.4-0.8 0.7-0.4 0.3-0.9 0.7-0.4 0.3-0.8 0.6-0.5 0.3-0.9 0.6-0.5 0.3-1 0.5-0.4 0.3-0.9 0.5-0.5 0.2-1 0.4-0.5 0.3-1 0.4-0.7 0.3-1.4 0.5-0.1 0.1-0.3 0.2-0.1 0-0.2 0-0.4 0.1-0.9 0.2-0.5 0.1-1 0.2-0.6 0.1-1.1 0.1-0.5 0.1-1.1 0.2-0.2 0-0.3 0-0.6 0-1.1 0-0.2 0-0.4 0-0.5 0-1.1 0-0.5-0.1-1-0.2-0.6 0-1.1-0.1-0.5-0.1-1-0.2-0.5-0.1-1.1-0.3-0.5-0.1-1-0.3-0.5-0.2-1-0.4-0.5-0.1-1-0.4-0.5-0.2-1-0.4-0.4-0.3-0.9-0.5-0.5-0.3-0.9-0.6-0.5-0.3-0.9-0.6-0.4-0.3-0.9-0.6-0.4-0.4-0.8-0.7-0.4-0.4-0.8-0.7-0.4-0.4-0.7-0.8-0.4-0.4-0.7-0.8-0.4-0.4-0.7-0.8-0.3-0.4-0.6-0.9-0.3-0.4-0.6-0.9-0.3-0.4-0.5-0.9-0.3-0.5-0.5-1-0.3-0.4-0.5-0.9-0.2-0.5-0.4-1-0.2-0.7-0.4-1.4-0.1-0.2-0.2-0.3 0-0.1 0-0.2-0.1-0.4-0.2-0.9-0.1-0.6-0.2-1.1-0.1-0.5-0.1-1.1-0.1-0.5-0.2-1 0-0.2 0-0.4 0-0.5 0-1 0-0.2 0-0.4 0-0.6 0-1.1 0.1-0.5 0.2-1.1 0-0.5 0.1-1 0.1-0.5 0.2-1.1 0.1-0.5 0.3-1 0.1-0.5 0.3-1 0.1-0.5 0.3-1 0.2-0.5 0.5-1 0.2-0.5 0.4-1 0.2-0.5 0.5-0.9 0.3-0.5 0.6-0.9 0.3-0.5 0.6-0.9 0.3-0.5 0.6-0.9 0.3-0.4 0.7-0.8 0.3-0.4 0.7-0.8 0.4-0.4 0.8-0.8 0.4-0.3 0.8-0.7 0.4-0.3 0.8-0.6 0.4-0.4 0.9-0.7 0.4-0.3 0.9-0.6 0.4-0.2 0.9-0.5 0.5-0.2 0.9-0.5 0.5-0.2 1-0.4 0.5-0.2 1-0.4 0.7-0.3 1.4-0.5 0.2-0.1 0.3-0.1 0.1 0 0.2 0 0.4-0.1 0.9-0.2 0.5-0.2 1-0.3 0.6 0 1.1-0.1 0.5-0.1 1.1-0.2 0.2 0 0.3 0 0.5 0 1.1 0 0.2 0.1 0.4 0.1zm-0.4 0q0.2 0 0.4 0 0.5 0 1.1 0 0.5 0.1 1 0.1 0.6 0.1 1.1 0.2 0.5 0.1 1 0.2 0.6 0.1 1.1 0.3 0.5 0.1 1 0.3 0.5 0.2 1 0.3 0.5 0.2 1 0.4 0.5 0.3 1 0.5 0.4 0.3 0.9 0.5 0.5 0.3 0.9 0.6 0.5 0.3 0.9 0.6 0.5 0.3 0.9 0.6 0.4 0.3 0.8 0.7 0.4 0.3 0.8 0.7 0.4 0.4 0.7 0.8 0.4 0.4 0.8 0.8 0.3 0.4 0.6 0.8 0.4 0.4 0.7 0.9 0.3 0.4 0.5 0.9 0.3 0.4 0.6 0.9 0.2 0.5 0.5 0.9 0.2 0.5 0.4 1 0.2 0.5 0.4 1 0.3 0.7 0.5 1.4 0 0.2 0.1 0.3 0 0.1 0 0.2 0.1 0.4 0.2 0.9 0.1 0.5 0.2 1.1 0.1 0.5 0.2 1 0.1 0.6 0.1 1.1 0 0.2 0 0.3 0 0.6 0 1.1 0 0.2 0 0.4 0 0.5 0 1.1 0 0.5-0.1 1-0.1 0.6-0.2 1.1-0.1 0.5-0.2 1.1-0.1 0.5-0.3 1-0.1 0.5-0.3 1-0.1 0.5-0.3 1-0.2 0.5-0.4 1-0.2 0.5-0.5 1-0.2 0.5-0.5 0.9-0.2 0.5-0.5 0.9-0.3 0.5-0.6 0.9-0.3 0.5-0.7 0.9-0.3 0.4-0.7 0.8-0.3 0.4-0.7 0.8-0.4 0.4-0.7 0.7-0.4 0.4-0.8 0.7-0.4 0.4-0.9 0.7-0.4 0.3-0.8 0.6-0.5 0.3-0.9 0.6-0.5 0.3-1 0.5-0.4 0.3-0.9 0.5-0.5 0.3-1 0.5-0.5 0.2-1 0.4-0.7 0.2-1.4 0.5-0.1 0-0.3 0.1-0.1 0-0.2 0-0.4 0.1-0.9 0.2-0.5 0.1-1 0.2-0.6 0.1-1.1 0.2-0.5 0.1-1.1 0.1-0.2 0-0.3 0-0.6 0-1.1 0-0.2 0-0.4 0-0.5 0-1.1 0-0.5-0.1-1-0.2-0.6 0-1.1-0.1-0.5-0.1-1-0.2-0.5-0.1-1.1-0.3-0.5-0.1-1-0.3-0.5-0.2-1-0.4-0.5-0.1-1-0.4-0.5-0.2-1-0.4-0.4-0.3-0.9-0.5-0.5-0.3-0.9-0.6-0.5-0.3-0.9-0.6-0.4-0.3-0.9-0.6-0.4-0.4-0.8-0.7-0.4-0.4-0.8-0.7-0.4-0.4-0.7-0.8-0.4-0.4-0.7-0.8-0.4-0.4-0.7-0.8-0.3-0.4-0.6-0.9-0.3-0.4-0.6-0.9-0.3-0.4-0.5-0.9-0.3-0.5-0.5-1-0.3-0.4-0.5-0.9-0.2-0.5-0.4-1-0.2-0.7-0.4-1.4-0.1-0.2-0.2-0.3 0-0.1 0-0.2-0.1-0.5-0.2-0.9-0.1-0.6-0.2-1.1-0.1-0.5-0.1-1.1-0.1-0.5-0.2-1 0-0.2 0-0.4 0-0.5 0-1 0-0.2 0-0.4 0-0.6 0-1.1 0.1-0.5 0.2-1.1 0-0.5 0.1-1 0.1-0.5 0.2-1.1 0.1-0.5 0.3-1 0.1-0.5 0.3-1 0.1-0.5 0.3-1 0.2-0.5 0.5-1 0.2-0.5 0.4-1 0.2-0.5 0.5-0.9 0.3-0.5 0.6-0.9 0.3-0.5 0.6-0.9 0.3-0.5 0.6-0.9 0.3-0.4 0.7-0.8 0.3-0.4 0.7-0.8 0.4-0.4 0.8-0.8 0.4-0.3 0.8-0.7 0.4-0.3 0.8-0.6 0.4-0.4 0.9-0.7 0.4-0.3 0.9-0.6 0.4-0.2 0.9-0.5 0.5-0.2 0.9-0.5 0.5-0.2 1-0.4 0.5-0.2 1-0.4 0.7-0.3 1.4-0.5 0.2-0.1 0.3-0.1 0.1 0 0.2 0 0.4-0.1 0.9-0.2 0.5-0.2 1-0.3 0.6 0 1.1-0.1 0.5-0.1 1.1-0.2 0.2 0 0.3 0 0.5 0 1.1 0zm0.4 0q0.5 0 1.1 0 0.5 0.1 1 0.2 0.5 0 1.1 0.1 0.5 0.1 1 0.2 0.5 0.2 1.1 0.3 0.5 0.1 1 0.3 0.5 0.2 1 0.4 0.5 0.2 1 0.4 0.5 0.2 0.9 0.4 0.5 0.3 1 0.5 0.5 0.3 0.9 0.6 0.5 0.3 0.9 0.6 0.4 0.3 0.9 0.6 0.4 0.4 0.8 0.7 0.4 0.4 0.8 0.8 0.4 0.3 0.7 0.7 0.4 0.4 0.7 0.8 0.4 0.4 0.7 0.8 0.3 0.5 0.6 0.9 0.3 0.5 0.6 0.9 0.3 0.5 0.5 0.9 0.3 0.5 0.6 1 0.2 0.5 0.4 0.9 0.2 0.5 0.4 1 0.2 0.7 0.4 1.4 0.1 0.2 0.2 0.4 0 0 0 0.1 0.1 0.5 0.2 0.9 0.1 0.6 0.2 1.1 0.1 0.5 0.2 1 0 0.6 0.1 1.1 0 0.2 0 0.4 0 0.5 0 1 0 0.3 0 0.5 0 0.5 0 1-0.1 0.6-0.1 1.1-0.1 0.5-0.2 1-0.1 0.6-0.2 1.1-0.1 0.5-0.3 1-0.1 0.6-0.3 1-0.1 0.6-0.3 1.1-0.2 0.5-0.4 1-0.3 0.4-0.5 0.9-0.2 0.5-0.5 1-0.3 0.4-0.6 0.9-0.2 0.4-0.6 0.9-0.3 0.4-0.6 0.8-0.3 0.4-0.7 0.8-0.3 0.4-0.7 0.8-0.4 0.4-0.8 0.8-0.4 0.3-0.8 0.7-0.4 0.3-0.8 0.6-0.4 0.4-0.9 0.7-0.4 0.3-0.9 0.6-0.4 0.2-0.9 0.5-0.5 0.2-0.9 0.5-0.5 0.2-1 0.4-0.5 0.2-1 0.4-0.7 0.3-1.4 0.5-0.2 0.1-0.3 0.1-0.1 0-0.2 0-0.4 0.1-0.9 0.2-0.5 0.2-1.1 0.3-0.5 0-1 0.1-0.6 0.1-1.1 0.1-0.2 0-0.3 0-0.6 0.1-1.1 0-0.2 0-0.4 0-0.5 0.1-1.1 0-0.5 0-1-0.1-0.6-0.1-1.1-0.2-0.5 0-1-0.2-0.6-0.1-1.1-0.2-0.5-0.1-1-0.3-0.5-0.2-1-0.4-0.5-0.2-1-0.4-0.5-0.2-1-0.4-0.5-0.3-0.9-0.6-0.5-0.2-0.9-0.5-0.5-0.3-0.9-0.6-0.5-0.3-0.9-0.7-0.4-0.3-0.8-0.6-0.4-0.4-0.8-0.8-0.4-0.3-0.7-0.7-0.4-0.4-0.8-0.8-0.3-0.4-0.6-0.8-0.3-0.5-0.6-0.9-0.3-0.5-0.6-0.9-0.3-0.5-0.6-0.9-0.2-0.5-0.4-1-0.3-0.5-0.5-1-0.2-0.5-0.4-1-0.2-0.6-0.5-1.4 0-0.1-0.1-0.3 0 0 0-0.1-0.1-0.5-0.2-1-0.1-0.5-0.2-1-0.1-0.5-0.2-1.1 0-0.5-0.1-1 0-0.2 0-0.4 0-0.5 0-1 0-0.2 0-0.5 0-0.5 0-1 0.1-0.6 0.1-1.1 0.1-0.5 0.2-1 0.1-0.6 0.2-1.1 0.1-0.5 0.3-1 0.1-0.5 0.3-1 0.1-0.6 0.3-1 0.2-0.5 0.4-1 0.3-0.5 0.5-1 0.2-0.5 0.5-1 0.3-0.4 0.6-0.9 0.2-0.4 0.5-0.9 0.4-0.4 0.7-0.8 0.3-0.4 0.7-0.8 0.3-0.4 0.7-0.8 0.4-0.4 0.8-0.8 0.4-0.3 0.8-0.7 0.4-0.3 0.8-0.7 0.4-0.3 0.9-0.6 0.4-0.3 0.8-0.6 0.5-0.3 1-0.5 0.4-0.3 0.9-0.5 0.5-0.2 1-0.5 0.5-0.2 1-0.3 0.7-0.3 1.4-0.5 0.1-0.1 0.3-0.2 0.1 0 0.1 0 0.5-0.1 1-0.2 0.5-0.1 1-0.2 0.6-0.1 1.1-0.1 0.5-0.1 1.1-0.2 0.1 0 0.3 0 0.5 0 1.1 0 0.2 0 0.4 0zm0 0q0.5 0 1.1 0 0.5 0.1 1 0.2 0.5 0 1.1 0.1 0.5 0.1 1 0.2 0.5 0.2 1.1 0.3 0.5 0.1 1 0.3 0.5 0.2 1 0.4 0.5 0.2 1 0.4 0.5 0.2 0.9 0.4 0.5 0.3 1 0.5 0.5 0.3 0.9 0.6 0.5 0.3 0.9 0.6 0.4 0.3 0.9 0.6 0.4 0.4 0.8 0.7 0.4 0.4 0.8 0.8 0.4 0.3 0.7 0.7 0.4 0.4 0.7 0.8 0.4 0.4 0.7 0.8 0.3 0.5 0.6 0.9 0.3 0.5 0.6 0.9 0.3 0.5 0.5 0.9 0.3 0.5 0.6 1 0.2 0.5 0.4 0.9 0.2 0.5 0.4 1 0.2 0.7 0.4 1.4 0.1 0.2 0.2 0.4 0 0 0 0.1 0.1 0.5 0.2 0.9 0.1 0.6 0.2 1.1 0.1 0.5 0.2 1 0 0.6 0.1 1.1 0 0.2 0 0.4 0 0.5 0 1 0 0.3 0 0.5 0 0.5 0 1-0.1 0.6-0.1 1.1-0.1 0.5-0.2 1-0.1 0.6-0.2 1.1-0.1 0.5-0.3 1-0.1 0.6-0.3 1-0.1 0.6-0.3 1.1-0.2 0.5-0.4 1-0.3 0.4-0.5 0.9-0.2 0.5-0.5 1-0.3 0.4-0.6 0.9-0.2 0.4-0.6 0.9-0.3 0.4-0.6 0.8-0.3 0.4-0.7 0.8-0.3 0.4-0.7 0.8-0.4 0.4-0.8 0.8-0.4 0.3-0.8 0.7-0.4 0.3-0.8 0.6-0.4 0.4-0.9 0.7-0.4 0.3-0.9 0.6-0.4 0.2-0.9 0.5-0.5 0.2-0.9 0.5-0.5 0.2-1 0.4-0.5 0.2-1 0.4-0.7 0.3-1.4 0.5-0.2 0.1-0.3 0.1-0.1 0-0.2 0-0.4 0.1-0.9 0.2-0.5 0.2-1.1 0.3-0.5 0-1 0.1-0.6 0.1-1.1 0.1-0.2 0-0.3 0-0.6 0.1-1.1 0-0.2 0-0.4 0-0.5 0.1-1.1 0-0.5 0-1-0.1-0.6-0.1-1.1-0.2-0.5 0-1-0.2-0.6-0.1-1.1-0.2-0.5-0.1-1-0.3-0.5-0.2-1-0.4-0.5-0.2-1-0.4-0.5-0.2-1-0.4-0.5-0.3-0.9-0.6-0.5-0.2-0.9-0.5-0.5-0.3-0.9-0.6-0.5-0.3-0.9-0.7-0.4-0.3-0.8-0.6-0.4-0.4-0.8-0.8-0.4-0.3-0.7-0.7-0.4-0.4-0.8-0.8-0.3-0.4-0.6-0.8-0.3-0.5-0.6-0.9-0.3-0.5-0.6-0.9-0.3-0.5-0.6-0.9-0.2-0.5-0.4-1-0.3-0.5-0.5-1-0.2-0.5-0.4-1-0.2-0.6-0.5-1.4 0-0.1-0.1-0.3 0 0 0-0.1-0.1-0.5-0.2-1-0.1-0.5-0.2-1-0.1-0.5-0.2-1.1 0-0.5-0.1-1 0-0.2 0-0.4 0-0.5 0-1 0-0.2 0-0.5 0-0.5 0-1 0.1-0.6 0.1-1.1 0.1-0.5 0.2-1 0.1-0.6 0.2-1.1 0.1-0.5 0.3-1 0.1-0.5 0.3-1 0.1-0.6 0.3-1 0.2-0.5 0.4-1 0.3-0.5 0.5-1 0.2-0.5 0.5-1 0.3-0.4 0.6-0.9 0.2-0.4 0.5-0.9 0.4-0.4 0.7-0.8 0.3-0.4 0.7-0.8 0.3-0.4 0.7-0.8 0.4-0.4 0.8-0.8 0.4-0.3 0.8-0.7 0.4-0.3 0.8-0.7 0.4-0.3 0.9-0.6 0.4-0.3 0.8-0.6 0.5-0.3 1-0.5 0.4-0.3 0.9-0.5 0.5-0.2 1-0.5 0.5-0.2 1-0.3 0.7-0.3 1.4-0.5 0.1-0.1 0.3-0.2 0.1 0 0.1 0 0.5-0.1 1-0.2 0.5-0.1 1-0.2 0.6-0.1 1.1-0.1 0.5-0.1 1.1-0.2 0.1 0 0.3 0 0.5 0 1.1 0 0.2 0 0.4 0zm0 0q0.5 0 1.1 0 0.5 0.1 1 0.2 0.5 0 1.1 0.1 0.5 0.1 1 0.2 0.5 0.2 1.1 0.3 0.5 0.1 1 0.3 0.5 0.2 1 0.4 0.5 0.2 1 0.4 0.5 0.2 0.9 0.4 0.5 0.3 1 0.5 0.5 0.3 0.9 0.6 0.5 0.3 0.9 0.6 0.4 0.3 0.9 0.6 0.4 0.4 0.8 0.7 0.4 0.4 0.8 0.8 0.4 0.3 0.7 0.7 0.4 0.4 0.7 0.8 0.4 0.4 0.7 0.8 0.3 0.5 0.6 0.9 0.3 0.5 0.6 0.9 0.3 0.5 0.5 0.9 0.3 0.5 0.6 1 0.2 0.5 0.4 0.9 0.2 0.5 0.4 1 0.2 0.7 0.4 1.4 0.1 0.2 0.2 0.4 0 0 0 0.1 0.1 0.5 0.2 0.9 0.1 0.6 0.2 1.1 0.1 0.5 0.2 1 0 0.6 0.1 1.1 0 0.2 0 0.4 0 0.5 0 1 0 0.3 0 0.5 0 0.5 0 1-0.1 0.6-0.1 1.1-0.1 0.5-0.2 1-0.1 0.6-0.2 1.1-0.1 0.5-0.3 1-0.1 0.6-0.3 1-0.1 0.6-0.3 1.1-0.2 0.5-0.4 1-0.3 0.4-0.5 0.9-0.2 0.5-0.5 1-0.3 0.4-0.6 0.9-0.2 0.4-0.6 0.9-0.3 0.4-0.6 0.8-0.3 0.4-0.7 0.8-0.3 0.4-0.7 0.8-0.4 0.4-0.8 0.8-0.4 0.3-0.8 0.7-0.4 0.3-0.8 0.6-0.4 0.4-0.9 0.7-0.4 0.3-0.9 0.6-0.4 0.2-0.9 0.5-0.5 0.2-0.9 0.5-0.5 0.2-1 0.4-0.5 0.2-1 0.4-0.7 0.3-1.4 0.5-0.2 0.1-0.3 0.1-0.1 0-0.2 0-0.4 0.1-0.9 0.2-0.5 0.2-1.1 0.3-0.5 0-1 0.1-0.6 0.1-1.1 0.1-0.2 0-0.3 0-0.6 0.1-1.1 0-0.2 0-0.4 0-0.5 0.1-1.1 0-0.5 0-1-0.1-0.6-0.1-1.1-0.2-0.5 0-1-0.2-0.6-0.1-1.1-0.2-0.5-0.1-1-0.3-0.5-0.2-1-0.4-0.5-0.2-1-0.4-0.5-0.2-1-0.4-0.5-0.3-0.9-0.6-0.5-0.2-0.9-0.5-0.5-0.3-0.9-0.6-0.5-0.3-0.9-0.7-0.4-0.3-0.8-0.6-0.4-0.4-0.8-0.8-0.4-0.3-0.7-0.7-0.4-0.4-0.8-0.8-0.3-0.4-0.6-0.8-0.3-0.5-0.6-0.9-0.3-0.5-0.6-0.9-0.3-0.5-0.6-0.9-0.2-0.5-0.4-1-0.3-0.5-0.5-1-0.2-0.5-0.4-1-0.2-0.6-0.5-1.4 0-0.1-0.1-0.3 0 0 0-0.1-0.1-0.5-0.2-1-0.1-0.5-0.2-1-0.1-0.5-0.2-1.1 0-0.5-0.1-1 0-0.2 0-0.4 0-0.5 0-1 0-0.2 0-0.5 0-0.5 0-1 0.1-0.6 0.1-1.1 0.1-0.5 0.2-1 0.1-0.6 0.2-1.1 0.1-0.5 0.3-1 0.1-0.5 0.3-1 0.1-0.6 0.3-1 0.2-0.5 0.4-1 0.3-0.5 0.5-1 0.2-0.5 0.5-1 0.3-0.4 0.6-0.9 0.2-0.4 0.5-0.9 0.4-0.4 0.7-0.8 0.3-0.4 0.7-0.8 0.3-0.4 0.7-0.8 0.4-0.4 0.8-0.8 0.4-0.3 0.8-0.7 0.4-0.3 0.8-0.7 0.4-0.3 0.9-0.6 0.4-0.3 0.8-0.6 0.5-0.3 1-0.5 0.4-0.3 0.9-0.5 0.5-0.2 1-0.5 0.5-0.2 1-0.3 0.7-0.3 1.4-0.5 0.1-0.1 0.3-0.2 0.1 0 0.1 0 0.5-0.1 1-0.2 0.5-0.1 1-0.2 0.6-0.1 1.1-0.1 0.5-0.1 1.1-0.2 0.1 0 0.3 0 0.5 0 1.1 0 0.2 0 0.4 0zm0 0q0.5 0 1.1 0 0.5 0.1 1 0.2 0.5 0 1.1 0.1 0.5 0.1 1 0.2 0.5 0.2 1.1 0.3 0.5 0.1 1 0.3 0.5 0.2 1 0.4 0.5 0.2 1 0.4 0.5 0.2 0.9 0.4 0.5 0.3 1 0.5 0.5 0.3 0.9 0.6 0.5 0.3 0.9 0.6 0.4 0.3 0.9 0.6 0.4 0.4 0.8 0.7 0.4 0.4 0.8 0.8 0.4 0.3 0.7 0.7 0.4 0.4 0.7 0.8 0.4 0.4 0.7 0.8 0.3 0.5 0.6 0.9 0.3 0.5 0.6 0.9 0.3 0.5 0.5 0.9 0.3 0.5 0.6 1 0.2 0.5 0.4 0.9 0.2 0.5 0.4 1 0.2 0.7 0.4 1.4 0.1 0.2 0.2 0.4 0 0 0 0.1 0.1 0.5 0.2 0.9 0.1 0.6 0.2 1.1 0.1 0.5 0.2 1 0 0.6 0.1 1.1 0 0.2 0 0.4 0 0.5 0 1 0 0.3 0 0.5 0 0.5 0 1-0.1 0.6-0.1 1.1-0.1 0.5-0.2 1-0.1 0.6-0.2 1.1-0.1 0.5-0.3 1-0.1 0.6-0.3 1-0.1 0.6-0.3 1.1-0.2 0.5-0.4 1-0.3 0.4-0.5 0.9-0.2 0.5-0.5 1-0.3 0.4-0.6 0.9-0.2 0.4-0.6 0.9-0.3 0.4-0.6 0.8-0.3 0.4-0.7 0.8-0.3 0.4-0.7 0.8-0.4 0.4-0.8 0.8-0.4 0.3-0.8 0.7-0.4 0.3-0.8 0.6-0.4 0.4-0.9 0.7-0.4 0.3-0.9 0.6-0.4 0.2-0.9 0.5-0.5 0.2-0.9 0.5-0.5 0.2-1 0.4-0.5 0.2-1 0.4-0.7 0.3-1.4 0.5-0.2 0.1-0.3 0.1-0.1 0-0.2 0-0.4 0.1-0.9 0.2-0.5 0.2-1.1 0.3-0.5 0-1 0.1-0.6 0.1-1.1 0.1-0.2 0-0.3 0-0.6 0.1-1.1 0-0.2 0-0.4 0-0.5 0.1-1.1 0-0.5 0-1-0.1-0.6-0.1-1.1-0.2-0.5 0-1-0.2-0.6-0.1-1.1-0.2-0.5-0.1-1-0.3-0.5-0.2-1-0.4-0.5-0.2-1-0.4-0.5-0.2-1-0.4-0.5-0.3-0.9-0.6-0.5-0.2-0.9-0.5-0.5-0.3-0.9-0.6-0.5-0.3-0.9-0.7-0.4-0.3-0.8-0.6-0.4-0.4-0.8-0.8-0.4-0.3-0.7-0.7-0.4-0.4-0.8-0.8-0.3-0.4-0.6-0.8-0.3-0.5-0.6-0.9-0.3-0.5-0.6-0.9-0.3-0.5-0.6-0.9-0.2-0.5-0.4-1-0.3-0.5-0.5-1-0.2-0.5-0.4-1-0.2-0.6-0.5-1.4 0-0.1-0.1-0.3 0 0 0-0.1-0.1-0.5-0.2-1-0.1-0.5-0.2-1-0.1-0.5-0.2-1.1 0-0.5-0.1-1 0-0.2 0-0.4 0-0.5 0-1 0-0.2 0-0.5 0-0.5 0-1 0.1-0.6 0.1-1.1 0.1-0.5 0.2-1 0.1-0.6 0.2-1.1 0.1-0.5 0.3-1 0.1-0.5 0.3-1 0.1-0.6 0.3-1 0.2-0.5 0.4-1 0.3-0.5 0.5-1 0.2-0.5 0.5-1 0.3-0.4 0.6-0.9 0.2-0.4 0.5-0.9 0.4-0.4 0.7-0.8 0.3-0.4 0.7-0.8 0.3-0.4 0.7-0.8 0.4-0.4 0.8-0.8 0.4-0.3 0.8-0.7 0.4-0.3 0.8-0.7 0.4-0.3 0.9-0.6 0.4-0.3 0.8-0.6 0.5-0.3 1-0.5 0.4-0.3 0.9-0.5 0.5-0.2 1-0.5 0.5-0.2 1-0.3 0.7-0.3 1.4-0.5 0.1-0.1 0.3-0.2 0.1 0 0.1 0 0.5-0.1 1-0.2 0.5-0.1 1-0.2 0.6-0.1 1.1-0.1 0.5-0.1 1.1-0.2 0.1 0 0.3 0 0.5 0 1.1 0 0.2 0 0.4 0zm0 0q0.5 0 1.1 0 0.5 0.1 1 0.2 0.5 0 1.1 0.1 0.5 0.1 1 0.2 0.5 0.2 1.1 0.3 0.5 0.1 1 0.3 0.5 0.2 1 0.4 0.5 0.2 1 0.4 0.5 0.2 0.9 0.4 0.5 0.3 1 0.5 0.5 0.3 0.9 0.6 0.5 0.3 0.9 0.6 0.4 0.3 0.9 0.6 0.4 0.4 0.8 0.7 0.4 0.4 0.8 0.8 0.4 0.3 0.7 0.7 0.4 0.4 0.7 0.8 0.4 0.4 0.7 0.8 0.3 0.5 0.6 0.9 0.3 0.5 0.6 0.9 0.3 0.5 0.5 0.9 0.3 0.5 0.6 1 0.2 0.5 0.4 0.9 0.2 0.5 0.4 1 0.2 0.7 0.4 1.4 0.1 0.2 0.2 0.4 0 0 0 0.1 0.1 0.5 0.2 0.9 0.1 0.6 0.2 1.1 0.1 0.5 0.2 1 0 0.6 0.1 1.1 0 0.2 0 0.4 0 0.5 0 1 0 0.3 0 0.5 0 0.5 0 1-0.1 0.6-0.1 1.1-0.1 0.5-0.2 1-0.1 0.6-0.2 1.1-0.1 0.5-0.3 1-0.1 0.6-0.3 1-0.1 0.6-0.3 1.1-0.2 0.5-0.4 1-0.3 0.4-0.5 0.9-0.2 0.5-0.5 1-0.3 0.4-0.6 0.9-0.2 0.4-0.6 0.9-0.3 0.4-0.6 0.8-0.3 0.4-0.7 0.8-0.3 0.4-0.7 0.8-0.4 0.4-0.8 0.8-0.4 0.3-0.8 0.7-0.4 0.3-0.8 0.6-0.4 0.4-0.9 0.7-0.4 0.3-0.9 0.6-0.4 0.2-0.9 0.5-0.5 0.2-0.9 0.5-0.5 0.2-1 0.4-0.5 0.2-1 0.4-0.7 0.3-1.4 0.5-0.2 0.1-0.3 0.1-0.1 0-0.2 0-0.4 0.1-0.9 0.2-0.5 0.2-1.1 0.3-0.5 0-1 0.1-0.6 0.1-1.1 0.1-0.2 0-0.3 0-0.6 0.1-1.1 0-0.2 0-0.4 0-0.5 0.1-1.1 0-0.5 0-1-0.1-0.6-0.1-1.1-0.2-0.5 0-1-0.2-0.6-0.1-1.1-0.2-0.5-0.1-1-0.3-0.5-0.2-1-0.4-0.5-0.2-1-0.4-0.5-0.2-1-0.4-0.5-0.3-0.9-0.6-0.5-0.2-0.9-0.5-0.5-0.3-0.9-0.6-0.5-0.3-0.9-0.7-0.4-0.3-0.8-0.6-0.4-0.4-0.8-0.8-0.4-0.3-0.7-0.7-0.4-0.4-0.8-0.8-0.3-0.4-0.6-0.8-0.3-0.5-0.6-0.9-0.3-0.5-0.6-0.9-0.3-0.5-0.6-0.9-0.2-0.5-0.4-1-0.3-0.5-0.5-1-0.2-0.5-0.4-1-0.2-0.6-0.5-1.4 0-0.1-0.1-0.3 0 0 0-0.1-0.1-0.5-0.2-1-0.1-0.5-0.2-1-0.1-0.5-0.2-1.1 0-0.5-0.1-1 0-0.2 0-0.4 0-0.5 0-1 0-0.2 0-0.5 0-0.5 0-1 0.1-0.6 0.1-1.1 0.1-0.5 0.2-1 0.1-0.6 0.2-1.1 0.1-0.5 0.3-1 0.1-0.5 0.3-1 0.1-0.6 0.3-1 0.2-0.5 0.4-1 0.3-0.5 0.5-1 0.2-0.5 0.5-1 0.3-0.4 0.6-0.9 0.2-0.4 0.5-0.9 0.4-0.4 0.7-0.8 0.3-0.4 0.7-0.8 0.3-0.4 0.7-0.8 0.4-0.4 0.8-0.8 0.4-0.3 0.8-0.7 0.4-0.3 0.8-0.7 0.4-0.3 0.9-0.6 0.4-0.3 0.8-0.6 0.5-0.3 1-0.5 0.4-0.3 0.9-0.5 0.5-0.2 1-0.5 0.5-0.2 1-0.3 0.7-0.3 1.4-0.5 0.1-0.1 0.3-0.2 0.1 0 0.1 0 0.5-0.1 1-0.2 0.5-0.1 1-0.2 0.6-0.1 1.1-0.1 0.5-0.1 1.1-0.2 0.1 0 0.3 0 0.5 0 1.1 0 0.2 0 0.4 0zm0 0q0.5 0 1.1 0 0.5 0.1 1 0.2 0.5 0 1.1 0.1 0.5 0.1 1 0.2 0.5 0.2 1.1 0.3 0.5 0.1 1 0.3 0.5 0.2 1 0.4 0.5 0.2 1 0.4 0.5 0.2 0.9 0.4 0.5 0.3 1 0.5 0.5 0.3 0.9 0.6 0.5 0.3 0.9 0.6 0.4 0.3 0.9 0.6 0.4 0.4 0.8 0.7 0.4 0.4 0.8 0.8 0.4 0.3 0.7 0.7 0.4 0.4 0.7 0.8 0.4 0.4 0.7 0.8 0.3 0.5 0.6 0.9 0.3 0.5 0.6 0.9 0.3 0.5 0.5 0.9 0.3 0.5 0.6 1 0.2 0.5 0.4 0.9 0.2 0.5 0.4 1 0.2 0.7 0.4 1.4 0.1 0.2 0.2 0.4 0 0 0 0.1 0.1 0.5 0.2 0.9 0.1 0.6 0.2 1.1 0.1 0.5 0.2 1 0 0.6 0.1 1.1 0 0.2 0 0.4 0 0.5 0 1 0 0.3 0 0.5 0 0.5 0 1-0.1 0.6-0.1 1.1-0.1 0.5-0.2 1-0.1 0.6-0.2 1.1-0.1 0.5-0.3 1-0.1 0.6-0.3 1-0.1 0.6-0.3 1.1-0.2 0.5-0.4 1-0.3 0.4-0.5 0.9-0.2 0.5-0.5 1-0.3 0.4-0.6 0.9-0.2 0.4-0.6 0.9-0.3 0.4-0.6 0.8-0.3 0.4-0.7 0.8-0.3 0.4-0.7 0.8-0.4 0.4-0.8 0.8-0.4 0.3-0.8 0.7-0.4 0.3-0.8 0.6-0.4 0.4-0.9 0.7-0.4 0.3-0.9 0.6-0.4 0.2-0.9 0.5-0.5 0.2-0.9 0.5-0.5 0.2-1 0.4-0.5 0.2-1 0.4-0.7 0.3-1.4 0.5-0.2 0.1-0.3 0.1-0.1 0-0.2 0-0.4 0.1-0.9 0.2-0.5 0.2-1.1 0.3-0.5 0-1 0.1-0.6 0.1-1.1 0.1-0.2 0-0.3 0-0.6 0.1-1.1 0-0.2 0-0.4 0-0.5 0.1-1.1 0-0.5 0-1-0.1-0.6-0.1-1.1-0.2-0.5 0-1-0.2-0.6-0.1-1.1-0.2-0.5-0.1-1-0.3-0.5-0.2-1-0.4-0.5-0.2-1-0.4-0.5-0.2-1-0.4-0.5-0.3-0.9-0.6-0.5-0.2-0.9-0.5-0.5-0.3-0.9-0.6-0.5-0.3-0.9-0.7-0.4-0.3-0.8-0.6-0.4-0.4-0.8-0.8-0.4-0.3-0.7-0.7-0.4-0.4-0.8-0.8-0.3-0.4-0.6-0.8-0.3-0.5-0.6-0.9-0.3-0.5-0.6-0.9-0.3-0.5-0.6-0.9-0.2-0.5-0.4-1-0.3-0.5-0.5-1-0.2-0.5-0.4-1-0.2-0.6-0.5-1.4 0-0.1-0.1-0.3 0 0 0-0.1-0.1-0.5-0.2-1-0.1-0.5-0.2-1-0.1-0.5-0.2-1.1 0-0.5-0.1-1 0-0.2 0-0.4 0-0.5 0-1 0-0.2 0-0.5 0-0.5 0-1 0.1-0.6 0.1-1.1 0.1-0.5 0.2-1 0.1-0.6 0.2-1.1 0.1-0.5 0.3-1 0.1-0.5 0.3-1 0.1-0.6 0.3-1 0.2-0.5 0.4-1 0.3-0.5 0.5-1 0.2-0.5 0.5-1 0.3-0.4 0.6-0.9 0.2-0.4 0.5-0.9 0.4-0.4 0.7-0.8 0.3-0.4 0.7-0.8 0.3-0.4 0.7-0.8 0.4-0.4 0.8-0.8 0.4-0.3 0.8-0.7 0.4-0.3 0.8-0.7 0.4-0.3 0.9-0.6 0.4-0.3 0.8-0.6 0.5-0.3 1-0.5 0.4-0.3 0.9-0.5 0.5-0.2 1-0.5 0.5-0.2 1-0.3 0.7-0.3 1.4-0.5 0.1-0.1 0.3-0.2 0.1 0 0.1 0 0.5-0.1 1-0.2 0.5-0.1 1-0.2 0.6-0.1 1.1-0.1 0.5-0.1 1.1-0.2 0.1 0 0.3 0 0.5 0 1.1 0 0.2 0 0.4 0zm0 0q0.5 0 1.1 0 0.5 0.1 1 0.2 0.5 0 1.1 0.1 0.5 0.1 1 0.2 0.5 0.2 1.1 0.3 0.5 0.1 1 0.3 0.5 0.2 1 0.4 0.5 0.2 1 0.4 0.5 0.2 0.9 0.4 0.5 0.3 1 0.5 0.5 0.3 0.9 0.6 0.5 0.3 0.9 0.6 0.4 0.3 0.9 0.6 0.4 0.4 0.8 0.7 0.4 0.4 0.8 0.8 0.4 0.3 0.7 0.7 0.4 0.4 0.7 0.8 0.4 0.4 0.7 0.8 0.3 0.5 0.6 0.9 0.3 0.5 0.6 0.9 0.3 0.5 0.5 0.9 0.3 0.5 0.6 1 0.2 0.5 0.4 0.9 0.2 0.5 0.4 1 0.2 0.7 0.4 1.4 0.1 0.2 0.2 0.4 0 0 0 0.1 0.1 0.5 0.2 0.9 0.1 0.6 0.2 1.1 0.1 0.5 0.2 1 0 0.6 0.1 1.1 0 0.2 0 0.4 0 0.5 0 1 0 0.3 0 0.5 0 0.5 0 1-0.1 0.6-0.1 1.1-0.1 0.5-0.2 1-0.1 0.6-0.2 1.1-0.1 0.5-0.3 1-0.1 0.6-0.3 1-0.1 0.6-0.3 1.1-0.2 0.5-0.4 1-0.3 0.4-0.5 0.9-0.2 0.5-0.5 1-0.3 0.4-0.6 0.9-0.2 0.4-0.6 0.9-0.3 0.4-0.6 0.8-0.3 0.4-0.7 0.8-0.3 0.4-0.7 0.8-0.4 0.4-0.8 0.8-0.4 0.3-0.8 0.7-0.4 0.3-0.8 0.6-0.4 0.4-0.9 0.7-0.4 0.3-0.9 0.6-0.4 0.2-0.9 0.5-0.5 0.2-0.9 0.5-0.5 0.2-1 0.4-0.5 0.2-1 0.4-0.7 0.3-1.4 0.5-0.2 0.1-0.3 0.1-0.1 0-0.2 0-0.4 0.1-0.9 0.2-0.5 0.2-1.1 0.3-0.5 0-1 0.1-0.6 0.1-1.1 0.1-0.2 0-0.3 0-0.6 0.1-1.1 0-0.2 0-0.4 0-0.5 0.1-1.1 0-0.5 0-1-0.1-0.6-0.1-1.1-0.2-0.5 0-1-0.2-0.6-0.1-1.1-0.2-0.5-0.1-1-0.3-0.5-0.2-1-0.4-0.5-0.2-1-0.4-0.5-0.2-1-0.4-0.5-0.3-0.9-0.6-0.5-0.2-0.9-0.5-0.5-0.3-0.9-0.6-0.5-0.3-0.9-0.7-0.4-0.3-0.8-0.6-0.4-0.4-0.8-0.8-0.4-0.3-0.7-0.7-0.4-0.4-0.8-0.8-0.3-0.4-0.6-0.8-0.3-0.5-0.6-0.9-0.3-0.5-0.6-0.9-0.3-0.5-0.6-0.9-0.2-0.5-0.4-1-0.3-0.5-0.5-1-0.2-0.5-0.4-1-0.2-0.6-0.5-1.4 0-0.1-0.1-0.3 0 0 0-0.1-0.1-0.5-0.2-1-0.1-0.5-0.2-1-0.1-0.5-0.2-1.1 0-0.5-0.1-1 0-0.2 0-0.4 0-0.5 0-1 0-0.2 0-0.5 0-0.5 0-1 0.1-0.6 0.1-1.1 0.1-0.5 0.2-1 0.1-0.6 0.2-1.1 0.1-0.5 0.3-1 0.1-0.5 0.3-1 0.1-0.6 0.3-1 0.2-0.5 0.4-1 0.3-0.5 0.5-1 0.2-0.5 0.5-1 0.3-0.4 0.6-0.9 0.2-0.4 0.5-0.9 0.4-0.4 0.7-0.8 0.3-0.4 0.7-0.8 0.3-0.4 0.7-0.8 0.4-0.4 0.8-0.8 0.4-0.3 0.8-0.7 0.4-0.3 0.8-0.7 0.4-0.3 0.9-0.6 0.4-0.3 0.8-0.6 0.5-0.3 1-0.5 0.4-0.3 0.9-0.5 0.5-0.2 1-0.5 0.5-0.2 1-0.3 0.7-0.3 1.4-0.5 0.1-0.1 0.3-0.2 0.1 0 0.1 0 0.5-0.1 1-0.2 0.5-0.1 1-0.2 0.6-0.1 1.1-0.1 0.5-0.1 1.1-0.2 0.1 0 0.3 0 0.5 0 1.1 0 0.2 0 0.4 0zm0 0q0.5 0 1.1 0 0.5 0.1 1 0.2 0.5 0 1.1 0.1 0.5 0.1 1 0.2 0.5 0.2 1.1 0.3 0.5 0.1 1 0.3 0.5 0.2 1 0.4 0.5 0.2 1 0.4 0.5 0.2 0.9 0.4 0.5 0.3 1 0.5 0.5 0.3 0.9 0.6 0.5 0.3 0.9 0.6 0.4 0.3 0.9 0.6 0.4 0.4 0.8 0.7 0.4 0.4 0.8 0.8 0.4 0.3 0.7 0.7 0.4 0.4 0.7 0.8 0.4 0.4 0.7 0.8 0.3 0.5 0.6 0.9 0.3 0.5 0.6 0.9 0.3 0.5 0.5 0.9 0.3 0.5 0.6 1 0.2 0.5 0.4 0.9 0.2 0.5 0.4 1 0.2 0.7 0.4 1.4 0.1 0.2 0.2 0.4 0 0 0 0.1 0.1 0.5 0.2 0.9 0.1 0.6 0.2 1.1 0.1 0.5 0.2 1 0 0.6 0.1 1.1 0 0.2 0 0.4 0 0.5 0 1 0 0.3 0 0.5 0 0.5 0 1-0.1 0.6-0.1 1.1-0.1 0.5-0.2 1-0.1 0.6-0.2 1.1-0.1 0.5-0.3 1-0.1 0.6-0.3 1-0.1 0.6-0.3 1.1-0.2 0.5-0.4 1-0.3 0.4-0.5 0.9-0.2 0.5-0.5 1-0.3 0.4-0.6 0.9-0.2 0.4-0.6 0.9-0.3 0.4-0.6 0.8-0.3 0.4-0.7 0.8-0.3 0.4-0.7 0.8-0.4 0.4-0.8 0.8-0.4 0.3-0.8 0.7-0.4 0.3-0.8 0.6-0.4 0.4-0.9 0.7-0.4 0.3-0.9 0.6-0.4 0.2-0.9 0.5-0.5 0.2-0.9 0.5-0.5 0.2-1 0.4-0.5 0.2-1 0.4-0.7 0.3-1.4 0.5-0.2 0.1-0.3 0.1-0.1 0-0.2 0-0.4 0.1-0.9 0.2-0.5 0.2-1.1 0.3-0.5 0-1 0.1-0.6 0.1-1.1 0.1-0.2 0-0.3 0-0.6 0.1-1.1 0-0.2 0-0.4 0-0.5 0.1-1.1 0-0.5 0-1-0.1-0.6-0.1-1.1-0.2-0.5 0-1-0.2-0.6-0.1-1.1-0.2-0.5-0.1-1-0.3-0.5-0.2-1-0.4-0.5-0.2-1-0.4-0.5-0.2-1-0.4-0.5-0.3-0.9-0.6-0.5-0.2-0.9-0.5-0.5-0.3-0.9-0.6-0.5-0.3-0.9-0.7-0.4-0.3-0.8-0.6-0.4-0.4-0.8-0.8-0.4-0.3-0.7-0.7-0.4-0.4-0.8-0.8-0.3-0.4-0.6-0.8-0.3-0.5-0.6-0.9-0.3-0.5-0.6-0.9-0.3-0.5-0.6-0.9-0.2-0.5-0.4-1-0.3-0.5-0.5-1-0.2-0.5-0.4-1-0.2-0.6-0.5-1.4 0-0.1-0.1-0.3 0 0 0-0.1-0.1-0.5-0.2-1-0.1-0.5-0.2-1-0.1-0.5-0.2-1.1 0-0.5-0.1-1 0-0.2 0-0.4 0-0.5 0-1 0-0.2 0-0.5 0-0.5 0-1 0.1-0.6 0.1-1.1 0.1-0.5 0.2-1 0.1-0.6 0.2-1.1 0.1-0.5 0.3-1 0.1-0.5 0.3-1 0.1-0.6 0.3-1 0.2-0.5 0.4-1 0.3-0.5 0.5-1 0.2-0.5 0.5-1 0.3-0.4 0.6-0.9 0.2-0.4 0.5-0.9 0.4-0.4 0.7-0.8 0.3-0.4 0.7-0.8 0.3-0.4 0.7-0.8 0.4-0.4 0.8-0.8 0.4-0.3 0.8-0.7 0.4-0.3 0.8-0.7 0.4-0.3 0.9-0.6 0.4-0.3 0.8-0.6 0.5-0.3 1-0.5 0.4-0.3 0.9-0.5 0.5-0.2 1-0.5 0.5-0.2 1-0.3 0.7-0.3 1.4-0.5 0.1-0.1 0.3-0.2 0.1 0 0.1 0 0.5-0.1 1-0.2 0.5-0.1 1-0.2 0.6-0.1 1.1-0.1 0.5-0.1 1.1-0.2 0.1 0 0.3 0 0.5 0 1.1 0 0.2 0 0.4 0zm0 0q0.5 0 1.1 0 0.5 0.1 1 0.2 0.5 0 1.1 0.1 0.5 0.1 1 0.2 0.5 0.2 1.1 0.3 0.5 0.1 1 0.3 0.5 0.2 1 0.4 0.5 0.2 1 0.4 0.5 0.2 0.9 0.4 0.5 0.3 1 0.5 0.5 0.3 0.9 0.6 0.5 0.3 0.9 0.6 0.4 0.3 0.9 0.6 0.4 0.4 0.8 0.7 0.4 0.4 0.8 0.8 0.4 0.3 0.7 0.7 0.4 0.4 0.7 0.8 0.4 0.4 0.7 0.8 0.3 0.5 0.6 0.9 0.3 0.5 0.6 0.9 0.3 0.5 0.5 0.9 0.3 0.5 0.6 1 0.2 0.5 0.4 0.9 0.2 0.5 0.4 1 0.2 0.7 0.4 1.4 0.1 0.2 0.2 0.4 0 0 0 0.1 0.1 0.5 0.2 0.9 0.1 0.6 0.2 1.1 0.1 0.5 0.2 1 0 0.6 0.1 1.1 0 0.2 0 0.4 0 0.5 0 1 0 0.3 0 0.5 0 0.5 0 1-0.1 0.6-0.1 1.1-0.1 0.5-0.2 1-0.1 0.6-0.2 1.1-0.1 0.5-0.3 1-0.1 0.6-0.3 1-0.1 0.6-0.3 1.1-0.2 0.5-0.4 1-0.3 0.4-0.5 0.9-0.2 0.5-0.5 1-0.3 0.4-0.6 0.9-0.2 0.4-0.6 0.9-0.3 0.4-0.6 0.8-0.3 0.4-0.7 0.8-0.3 0.4-0.7 0.8-0.4 0.4-0.8 0.8-0.4 0.3-0.8 0.7-0.4 0.3-0.8 0.6-0.4 0.4-0.9 0.7-0.4 0.3-0.9 0.6-0.4 0.2-0.9 0.5-0.5 0.2-0.9 0.5-0.5 0.2-1 0.4-0.5 0.2-1 0.4-0.7 0.3-1.4 0.5-0.2 0.1-0.3 0.1-0.1 0-0.2 0-0.4 0.1-0.9 0.2-0.5 0.2-1.1 0.3-0.5 0-1 0.1-0.6 0.1-1.1 0.1-0.2 0-0.3 0-0.6 0.1-1.1 0-0.2 0-0.4 0-0.5 0.1-1.1 0-0.5 0-1-0.1-0.6-0.1-1.1-0.2-0.5 0-1-0.2-0.6-0.1-1.1-0.2-0.5-0.1-1-0.3-0.5-0.2-1-0.4-0.5-0.2-1-0.4-0.5-0.2-1-0.4-0.5-0.3-0.9-0.6-0.5-0.2-0.9-0.5-0.5-0.3-0.9-0.6-0.5-0.3-0.9-0.7-0.4-0.3-0.8-0.6-0.4-0.4-0.8-0.8-0.4-0.3-0.7-0.7-0.4-0.4-0.8-0.8-0.3-0.4-0.6-0.8-0.3-0.5-0.6-0.9-0.3-0.5-0.6-0.9-0.3-0.5-0.6-0.9-0.2-0.5-0.4-1-0.3-0.5-0.5-1-0.2-0.5-0.4-1-0.2-0.6-0.5-1.4 0-0.1-0.1-0.3 0 0 0-0.1-0.1-0.5-0.2-1-0.1-0.5-0.2-1-0.1-0.5-0.2-1.1 0-0.5-0.1-1 0-0.2 0-0.4 0-0.5 0-1 0-0.2 0-0.5 0-0.5 0-1 0.1-0.6 0.1-1.1 0.1-0.5 0.2-1 0.1-0.6 0.2-1.1 0.1-0.5 0.3-1 0.1-0.5 0.3-1 0.1-0.6 0.3-1 0.2-0.5 0.4-1 0.3-0.5 0.5-1 0.2-0.5 0.5-1 0.3-0.4 0.6-0.9 0.2-0.4 0.5-0.9 0.4-0.4 0.7-0.8 0.3-0.4 0.7-0.8 0.3-0.4 0.7-0.8 0.4-0.4 0.8-0.8 0.4-0.3 0.8-0.7 0.4-0.3 0.8-0.7 0.4-0.3 0.9-0.6 0.4-0.3 0.8-0.6 0.5-0.3 1-0.5 0.4-0.3 0.9-0.5 0.5-0.2 1-0.5 0.5-0.2 1-0.3 0.7-0.3 1.4-0.5 0.1-0.1 0.3-0.2 0.1 0 0.1 0 0.5-0.1 1-0.2 0.5-0.1 1-0.2 0.6-0.1 1.1-0.1 0.5-0.1 1.1-0.2 0.1 0 0.3 0 0.5 0 1.1 0 0.2 0 0.4 0zm-0.4 0q0.2 0.1 0.4 0.1 0.5 0 1.1 0 0.5 0 1 0.1 0.5 0.1 1.1 0.2 0.5 0.1 1 0.2 0.5 0.1 1.1 0.3 0.5 0.1 1 0.2 0.5 0.2 1 0.4 0.5 0.2 1 0.4 0.5 0.2 0.9 0.5 0.5 0.2 1 0.5 0.5 0.3 0.9 0.6 0.5 0.2 0.9 0.5 0.4 0.4 0.9 0.7 0.4 0.3 0.8 0.7 0.4 0.3 0.8 0.7 0.4 0.4 0.7 0.7 0.4 0.4 0.7 0.9 0.4 0.4 0.7 0.8 0.3 0.4 0.6 0.9 0.3 0.4 0.6 0.8 0.3 0.5 0.5 1 0.3 0.4 0.6 0.9 0.2 0.5 0.4 1 0.2 0.5 0.4 1 0.2 0.7 0.4 1.4 0.1 0.1 0.2 0.3 0 0.1 0 0.1 0.1 0.5 0.2 1 0.1 0.5 0.2 1 0.1 0.6 0.2 1.1 0 0.5 0.1 1.1 0 0.1 0 0.3 0 0.5 0 1.1 0 0.2 0 0.4 0 0.5 0 1-0.1 0.6-0.1 1.1-0.1 0.6-0.2 1.1-0.1 0.5-0.2 1-0.1 0.6-0.3 1.1-0.1 0.5-0.3 1-0.1 0.5-0.3 1-0.2 0.5-0.4 1-0.3 0.5-0.5 0.9-0.2 0.5-0.5 1-0.3 0.5-0.6 0.9-0.2 0.5-0.6 0.9-0.3 0.4-0.6 0.9-0.3 0.4-0.7 0.8-0.3 0.4-0.7 0.8-0.4 0.3-0.8 0.7-0.4 0.4-0.8 0.7-0.4 0.4-0.8 0.7-0.4 0.3-0.9 0.6-0.4 0.3-0.9 0.6-0.4 0.3-0.9 0.5-0.5 0.3-0.9 0.5-0.5 0.3-1 0.5-0.5 0.2-1 0.4-0.7 0.2-1.4 0.4-0.2 0.1-0.3 0.2-0.1 0-0.2 0-0.4 0.1-0.9 0.2-0.5 0.1-1.1 0.2-0.5 0.1-1 0.1-0.6 0.1-1.1 0.2-0.2 0-0.3 0-0.6 0-1.1 0-0.2 0-0.4 0-0.5 0-1.1 0-0.5-0.1-1-0.2-0.6 0-1.1-0.1-0.5-0.1-1-0.2-0.6-0.2-1.1-0.3-0.5-0.1-1-0.3-0.5-0.2-1-0.4-0.5-0.2-1-0.4-0.5-0.2-1-0.4-0.5-0.3-0.9-0.6-0.5-0.2-0.9-0.5-0.5-0.3-0.9-0.6-0.5-0.3-0.9-0.7-0.4-0.3-0.8-0.6-0.4-0.4-0.8-0.8-0.4-0.3-0.7-0.7-0.4-0.4-0.8-0.8-0.3-0.4-0.6-0.8-0.3-0.5-0.6-0.9-0.3-0.5-0.6-0.9-0.3-0.5-0.6-0.9-0.2-0.5-0.4-1-0.3-0.5-0.5-1-0.2-0.5-0.4-1-0.2-0.6-0.5-1.4 0-0.1-0.1-0.3 0 0 0-0.1-0.1-0.5-0.2-1-0.1-0.5-0.2-1-0.1-0.6-0.2-1.1 0-0.5-0.1-1 0-0.2 0-0.4 0-0.5 0-1 0-0.2 0-0.5 0-0.5 0-1 0.1-0.6 0.1-1.1 0.1-0.5 0.2-1 0.1-0.6 0.2-1.1 0.1-0.5 0.3-1 0.1-0.5 0.3-1 0.1-0.6 0.3-1 0.2-0.5 0.4-1 0.3-0.5 0.5-1 0.2-0.5 0.5-1 0.3-0.4 0.6-0.9 0.2-0.4 0.5-0.9 0.4-0.4 0.7-0.8 0.3-0.4 0.7-0.8 0.3-0.4 0.7-0.8 0.4-0.4 0.8-0.8 0.4-0.3 0.8-0.7 0.4-0.3 0.8-0.7 0.4-0.3 0.9-0.6 0.4-0.3 0.8-0.6 0.5-0.3 1-0.5 0.4-0.3 0.9-0.5 0.5-0.2 1-0.5 0.5-0.2 1-0.3 0.7-0.3 1.4-0.5 0.1-0.1 0.3-0.2 0.1 0 0.1 0 0.5-0.1 1-0.2 0.5-0.1 1-0.2 0.6-0.1 1.1-0.1 0.5-0.1 1.1-0.2 0.1 0 0.3 0 0.5 0 1.1 0zm0.4 0q0.5 0 1 0 0.6 0.1 1.1 0.1 0.5 0.1 1.1 0.2 0.5 0.1 1 0.2 0.5 0.1 1.1 0.3 0.5 0.1 1 0.3 0.5 0.1 1 0.3 0.5 0.2 1 0.4 0.5 0.3 0.9 0.5 0.5 0.3 1 0.5 0.4 0.3 0.9 0.6 0.4 0.3 0.9 0.6 0.4 0.3 0.8 0.6 0.5 0.3 0.9 0.7 0.4 0.4 0.8 0.7 0.3 0.4 0.7 0.8 0.4 0.4 0.7 0.8 0.4 0.4 0.7 0.8 0.3 0.5 0.6 0.9 0.3 0.4 0.6 0.9 0.3 0.4 0.5 0.9 0.3 0.5 0.5 0.9 0.3 0.5 0.5 1 0.2 0.5 0.4 1 0.2 0.7 0.4 1.4 0.1 0.2 0.2 0.3 0 0.1 0 0.2 0.1 0.4 0.2 0.9 0.1 0.5 0.2 1.1 0.1 0.5 0.1 1 0.1 0.6 0.2 1.1 0 0.2 0 0.3 0 0.6 0 1.1 0 0.2 0 0.4 0 0.6 0 1.1-0.1 0.5-0.2 1.1 0 0.5-0.1 1-0.1 0.6-0.2 1.1-0.1 0.5-0.3 1-0.1 0.5-0.3 1-0.2 0.5-0.4 1-0.1 0.5-0.4 1-0.2 0.5-0.4 1-0.2 0.5-0.5 0.9-0.3 0.5-0.6 0.9-0.3 0.5-0.6 0.9-0.3 0.5-0.6 0.9-0.3 0.4-0.7 0.8-0.3 0.4-0.7 0.8-0.4 0.4-0.8 0.7-0.4 0.4-0.8 0.7-0.4 0.4-0.8 0.7-0.4 0.3-0.9 0.6-0.4 0.4-0.9 0.6-0.4 0.3-0.9 0.6-0.5 0.2-0.9 0.5-0.5 0.2-1 0.4-0.5 0.2-1 0.4-0.7 0.3-1.4 0.5-0.2 0-0.3 0.1-0.1 0-0.2 0-0.5 0.1-0.9 0.2-0.5 0.1-1.1 0.2-0.5 0.1-1 0.2-0.6 0.1-1.1 0.1-0.2 0-0.3 0-0.6 0-1.1 0-0.2 0-0.4 0-0.6 0-1.1 0-0.5 0-1.1-0.1-0.5-0.1-1-0.2-0.5-0.1-1.1-0.2-0.5-0.1-1-0.2-0.5-0.2-1-0.3-0.5-0.2-1-0.4-0.5-0.2-1-0.4-0.5-0.2-1-0.5-0.5-0.2-0.9-0.5-0.5-0.2-0.9-0.5-0.5-0.3-0.9-0.6-0.5-0.3-0.9-0.7-0.4-0.3-0.8-0.7-0.4-0.3-0.8-0.7-0.4-0.4-0.8-0.7-0.3-0.4-0.7-0.8-0.3-0.5-0.6-0.9-0.4-0.4-0.7-0.8-0.3-0.5-0.5-0.9-0.3-0.5-0.6-1-0.2-0.4-0.5-0.9-0.2-0.5-0.4-1-0.2-0.5-0.4-1-0.2-0.7-0.5-1.4 0-0.1-0.1-0.3 0-0.1 0-0.1-0.1-0.5-0.2-1-0.1-0.5-0.2-1-0.1-0.6-0.2-1.1-0.1-0.5-0.1-1.1 0-0.1 0-0.3 0-0.5 0-1.1 0-0.2 0-0.4 0-0.5 0-1 0-0.6 0.1-1.1 0.1-0.5 0.2-1.1 0.1-0.5 0.2-1 0.1-0.5 0.2-1 0.2-0.6 0.4-1.1 0.1-0.5 0.3-1 0.2-0.5 0.4-1 0.2-0.5 0.5-0.9 0.2-0.5 0.5-1 0.2-0.4 0.5-0.9 0.3-0.4 0.6-0.9 0.4-0.4 0.7-0.8 0.3-0.5 0.7-0.9 0.3-0.4 0.7-0.7 0.4-0.4 0.8-0.8 0.3-0.4 0.7-0.7 0.5-0.4 0.9-0.7 0.4-0.3 0.8-0.6 0.5-0.3 0.9-0.6 0.5-0.3 1-0.5 0.4-0.3 0.9-0.5 0.5-0.3 1-0.5 0.5-0.2 1-0.4 0.7-0.2 1.4-0.4 0.1-0.1 0.3-0.2 0.1 0 0.1 0 0.5-0.1 1-0.2 0.5-0.1 1-0.2 0.5-0.1 1.1-0.2 0.5 0 1.1-0.1 0.1 0 0.3 0 0.5 0 1.1 0 0.2 0 0.4 0zm0 0q0.5 0 1 0 0.6 0.1 1.1 0.1 0.5 0.1 1.1 0.2 0.5 0.1 1 0.2 0.5 0.1 1.1 0.3 0.5 0.1 1 0.3 0.5 0.1 1 0.3 0.5 0.2 1 0.4 0.5 0.3 0.9 0.5 0.5 0.3 1 0.5 0.4 0.3 0.9 0.6 0.4 0.3 0.9 0.6 0.4 0.3 0.8 0.6 0.5 0.3 0.9 0.7 0.4 0.4 0.8 0.7 0.3 0.4 0.7 0.8 0.4 0.4 0.7 0.8 0.4 0.4 0.7 0.8 0.3 0.5 0.6 0.9 0.3 0.4 0.6 0.9 0.3 0.4 0.5 0.9 0.3 0.5 0.5 0.9 0.3 0.5 0.5 1 0.2 0.5 0.4 1 0.2 0.7 0.4 1.4 0.1 0.2 0.2 0.3 0 0.1 0 0.2 0.1 0.4 0.2 0.9 0.1 0.5 0.2 1.1 0.1 0.5 0.1 1 0.1 0.6 0.2 1.1 0 0.2 0 0.3 0 0.6 0 1.1 0 0.2 0 0.4 0 0.6 0 1.1-0.1 0.5-0.2 1.1 0 0.5-0.1 1-0.1 0.6-0.2 1.1-0.1 0.5-0.3 1-0.1 0.5-0.3 1-0.2 0.5-0.4 1-0.1 0.5-0.4 1-0.2 0.5-0.4 1-0.2 0.5-0.5 0.9-0.3 0.5-0.6 0.9-0.3 0.5-0.6 0.9-0.3 0.5-0.6 0.9-0.3 0.4-0.7 0.8-0.3 0.4-0.7 0.8-0.4 0.4-0.8 0.7-0.4 0.4-0.8 0.7-0.4 0.4-0.8 0.7-0.4 0.3-0.9 0.6-0.4 0.4-0.9 0.6-0.4 0.3-0.9 0.6-0.5 0.2-0.9 0.5-0.5 0.2-1 0.4-0.5 0.2-1 0.4-0.7 0.3-1.4 0.5-0.2 0-0.3 0.1-0.1 0-0.2 0-0.5 0.1-0.9 0.2-0.5 0.1-1.1 0.2-0.5 0.1-1 0.2-0.6 0.1-1.1 0.1-0.2 0-0.3 0-0.6 0-1.1 0-0.2 0-0.4 0-0.6 0-1.1 0-0.5 0-1.1-0.1-0.5-0.1-1-0.2-0.5-0.1-1.1-0.2-0.5-0.1-1-0.2-0.5-0.2-1-0.3-0.5-0.2-1-0.4-0.5-0.2-1-0.4-0.5-0.2-1-0.5-0.5-0.2-0.9-0.5-0.5-0.2-0.9-0.5-0.5-0.3-0.9-0.6-0.5-0.3-0.9-0.7-0.4-0.3-0.8-0.7-0.4-0.3-0.8-0.7-0.4-0.4-0.8-0.7-0.3-0.4-0.7-0.8-0.3-0.5-0.6-0.9-0.4-0.4-0.7-0.8-0.3-0.5-0.5-0.9-0.3-0.5-0.6-1-0.2-0.4-0.5-0.9-0.2-0.5-0.4-1-0.2-0.5-0.4-1-0.2-0.7-0.5-1.4 0-0.1-0.1-0.3 0-0.1 0-0.1-0.1-0.5-0.2-1-0.1-0.5-0.2-1-0.1-0.6-0.2-1.1-0.1-0.5-0.1-1.1 0-0.1 0-0.3 0-0.5 0-1.1 0-0.2 0-0.4 0-0.5 0-1 0-0.6 0.1-1.1 0.1-0.5 0.2-1.1 0.1-0.5 0.2-1 0.1-0.5 0.2-1 0.2-0.6 0.4-1.1 0.1-0.5 0.3-1 0.2-0.5 0.4-1 0.2-0.5 0.5-0.9 0.2-0.5 0.5-1 0.2-0.4 0.5-0.9 0.3-0.4 0.6-0.9 0.4-0.4 0.7-0.8 0.3-0.5 0.7-0.9 0.3-0.4 0.7-0.7 0.4-0.4 0.8-0.8 0.3-0.4 0.7-0.7 0.5-0.4 0.9-0.7 0.4-0.3 0.8-0.6 0.5-0.3 0.9-0.6 0.5-0.3 1-0.5 0.4-0.3 0.9-0.5 0.5-0.3 1-0.5 0.5-0.2 1-0.4 0.7-0.2 1.4-0.4 0.1-0.1 0.3-0.2 0.1 0 0.1 0 0.5-0.1 1-0.2 0.5-0.1 1-0.2 0.5-0.1 1.1-0.2 0.5 0 1.1-0.1 0.1 0 0.3 0 0.5 0 1.1 0 0.2 0 0.4 0zm0 0q0.5 0 1 0 0.6 0.1 1.1 0.1 0.5 0.1 1.1 0.2 0.5 0.1 1 0.2 0.5 0.1 1.1 0.3 0.5 0.1 1 0.3 0.5 0.1 1 0.3 0.5 0.2 1 0.4 0.5 0.3 0.9 0.5 0.5 0.3 1 0.5 0.4 0.3 0.9 0.6 0.4 0.3 0.9 0.6 0.4 0.3 0.8 0.6 0.5 0.3 0.9 0.7 0.4 0.4 0.8 0.7 0.3 0.4 0.7 0.8 0.4 0.4 0.7 0.8 0.4 0.4 0.7 0.8 0.3 0.5 0.6 0.9 0.3 0.4 0.6 0.9 0.3 0.4 0.5 0.9 0.3 0.5 0.5 0.9 0.3 0.5 0.5 1 0.2 0.5 0.4 1 0.2 0.7 0.4 1.4 0.1 0.2 0.2 0.3 0 0.1 0 0.2 0.1 0.4 0.2 0.9 0.1 0.5 0.2 1.1 0.1 0.5 0.1 1 0.1 0.6 0.2 1.1 0 0.2 0 0.3 0 0.6 0 1.1 0 0.2 0 0.4 0 0.6 0 1.1-0.1 0.5-0.2 1.1 0 0.5-0.1 1-0.1 0.6-0.2 1.1-0.1 0.5-0.3 1-0.1 0.5-0.3 1-0.2 0.5-0.4 1-0.1 0.5-0.4 1-0.2 0.5-0.4 1-0.2 0.5-0.5 0.9-0.3 0.5-0.6 0.9-0.3 0.5-0.6 0.9-0.3 0.5-0.6 0.9-0.3 0.4-0.7 0.8-0.3 0.4-0.7 0.8-0.4 0.4-0.8 0.7-0.4 0.4-0.8 0.7-0.4 0.4-0.8 0.7-0.4 0.3-0.9 0.6-0.4 0.4-0.9 0.6-0.4 0.3-0.9 0.6-0.5 0.2-0.9 0.5-0.5 0.2-1 0.4-0.5 0.2-1 0.4-0.7 0.3-1.4 0.5-0.2 0-0.3 0.1-0.1 0-0.2 0-0.5 0.1-0.9 0.2-0.5 0.1-1.1 0.2-0.5 0.1-1 0.2-0.6 0.1-1.1 0.1-0.2 0-0.3 0-0.6 0-1.1 0-0.2 0-0.4 0-0.6 0-1.1 0-0.5 0-1.1-0.1-0.5-0.1-1-0.2-0.5-0.1-1.1-0.2-0.5-0.1-1-0.2-0.5-0.2-1-0.3-0.5-0.2-1-0.4-0.5-0.2-1-0.4-0.5-0.2-1-0.5-0.5-0.2-0.9-0.5-0.5-0.2-0.9-0.5-0.5-0.3-0.9-0.6-0.5-0.3-0.9-0.7-0.4-0.3-0.8-0.7-0.4-0.3-0.8-0.7-0.4-0.4-0.8-0.7-0.3-0.4-0.7-0.8-0.3-0.5-0.6-0.9-0.4-0.4-0.7-0.8-0.3-0.5-0.5-0.9-0.3-0.5-0.6-1-0.2-0.4-0.5-0.9-0.2-0.5-0.4-1-0.2-0.5-0.4-1-0.2-0.7-0.5-1.4 0-0.1-0.1-0.3 0-0.1 0-0.1-0.1-0.5-0.2-1-0.1-0.5-0.2-1-0.1-0.6-0.2-1.1-0.1-0.5-0.1-1.1 0-0.1 0-0.3 0-0.5 0-1.1 0-0.2 0-0.4 0-0.5 0-1 0-0.6 0.1-1.1 0.1-0.5 0.2-1.1 0.1-0.5 0.2-1 0.1-0.5 0.2-1 0.2-0.6 0.4-1.1 0.1-0.5 0.3-1 0.2-0.5 0.4-1 0.2-0.5 0.5-0.9 0.2-0.5 0.5-1 0.2-0.4 0.5-0.9 0.3-0.4 0.6-0.9 0.4-0.4 0.7-0.8 0.3-0.5 0.7-0.9 0.3-0.4 0.7-0.7 0.4-0.4 0.8-0.8 0.3-0.4 0.7-0.7 0.5-0.4 0.9-0.7 0.4-0.3 0.8-0.6 0.5-0.3 0.9-0.6 0.5-0.3 1-0.5 0.4-0.3 0.9-0.5 0.5-0.3 1-0.5 0.5-0.2 1-0.4 0.7-0.2 1.4-0.4 0.1-0.1 0.3-0.2 0.1 0 0.1 0 0.5-0.1 1-0.2 0.5-0.1 1-0.2 0.5-0.1 1.1-0.2 0.5 0 1.1-0.1 0.1 0 0.3 0 0.5 0 1.1 0 0.2 0 0.4 0zm0 0q0.5 0 1 0 0.6 0.1 1.1 0.1 0.5 0.1 1.1 0.2 0.5 0.1 1 0.2 0.5 0.1 1.1 0.3 0.5 0.1 1 0.3 0.5 0.1 1 0.3 0.5 0.2 1 0.4 0.5 0.3 0.9 0.5 0.5 0.3 1 0.5 0.4 0.3 0.9 0.6 0.4 0.3 0.9 0.6 0.4 0.3 0.8 0.6 0.5 0.3 0.9 0.7 0.4 0.4 0.8 0.7 0.3 0.4 0.7 0.8 0.4 0.4 0.7 0.8 0.4 0.4 0.7 0.8 0.3 0.5 0.6 0.9 0.3 0.4 0.6 0.9 0.3 0.4 0.5 0.9 0.3 0.5 0.5 0.9 0.3 0.5 0.5 1 0.2 0.5 0.4 1 0.2 0.7 0.4 1.4 0.1 0.2 0.2 0.3 0 0.1 0 0.2 0.1 0.4 0.2 0.9 0.1 0.5 0.2 1.1 0.1 0.5 0.1 1 0.1 0.6 0.2 1.1 0 0.2 0 0.3 0 0.6 0 1.1 0 0.2 0 0.4 0 0.6 0 1.1-0.1 0.5-0.2 1.1 0 0.5-0.1 1-0.1 0.6-0.2 1.1-0.1 0.5-0.3 1-0.1 0.5-0.3 1-0.2 0.5-0.4 1-0.1 0.5-0.4 1-0.2 0.5-0.4 1-0.2 0.5-0.5 0.9-0.3 0.5-0.6 0.9-0.3 0.5-0.6 0.9-0.3 0.5-0.6 0.9-0.3 0.4-0.7 0.8-0.3 0.4-0.7 0.8-0.4 0.4-0.8 0.7-0.4 0.4-0.8 0.7-0.4 0.4-0.8 0.7-0.4 0.3-0.9 0.6-0.4 0.4-0.9 0.6-0.4 0.3-0.9 0.6-0.5 0.2-0.9 0.5-0.5 0.2-1 0.4-0.5 0.2-1 0.4-0.7 0.3-1.4 0.5-0.2 0-0.3 0.1-0.1 0-0.2 0-0.5 0.1-0.9 0.2-0.5 0.1-1.1 0.2-0.5 0.1-1 0.2-0.6 0.1-1.1 0.1-0.2 0-0.3 0-0.6 0-1.1 0-0.2 0-0.4 0-0.6 0-1.1 0-0.5 0-1.1-0.1-0.5-0.1-1-0.2-0.5-0.1-1.1-0.2-0.5-0.1-1-0.2-0.5-0.2-1-0.3-0.5-0.2-1-0.4-0.5-0.2-1-0.4-0.5-0.2-1-0.5-0.5-0.2-0.9-0.5-0.5-0.2-0.9-0.5-0.5-0.3-0.9-0.6-0.5-0.3-0.9-0.7-0.4-0.3-0.8-0.7-0.4-0.3-0.8-0.7-0.4-0.4-0.8-0.7-0.3-0.4-0.7-0.8-0.3-0.5-0.6-0.9-0.4-0.4-0.7-0.8-0.3-0.5-0.5-0.9-0.3-0.5-0.6-1-0.2-0.4-0.5-0.9-0.2-0.5-0.4-1-0.2-0.5-0.4-1-0.2-0.7-0.5-1.4 0-0.1-0.1-0.3 0-0.1 0-0.1-0.1-0.5-0.2-1-0.1-0.5-0.2-1-0.1-0.6-0.2-1.1-0.1-0.5-0.1-1.1 0-0.1 0-0.3 0-0.5 0-1.1 0-0.2 0-0.4 0-0.5 0-1 0-0.6 0.1-1.1 0.1-0.5 0.2-1.1 0.1-0.5 0.2-1 0.1-0.5 0.2-1 0.2-0.6 0.4-1.1 0.1-0.5 0.3-1 0.2-0.5 0.4-1 0.2-0.5 0.5-0.9 0.2-0.5 0.5-1 0.2-0.4 0.5-0.9 0.3-0.4 0.6-0.9 0.4-0.4 0.7-0.8 0.3-0.5 0.7-0.9 0.3-0.4 0.7-0.7 0.4-0.4 0.8-0.8 0.3-0.4 0.7-0.7 0.5-0.4 0.9-0.7 0.4-0.3 0.8-0.6 0.5-0.3 0.9-0.6 0.5-0.3 1-0.5 0.4-0.3 0.9-0.5 0.5-0.3 1-0.5 0.5-0.2 1-0.4 0.7-0.2 1.4-0.4 0.1-0.1 0.3-0.2 0.1 0 0.1 0 0.5-0.1 1-0.2 0.5-0.1 1-0.2 0.5-0.1 1.1-0.2 0.5 0 1.1-0.1 0.1 0 0.3 0 0.5 0 1.1 0 0.2 0 0.4 0zm0 0q0.5 0 1 0 0.6 0.1 1.1 0.1 0.5 0.1 1.1 0.2 0.5 0.1 1 0.2 0.5 0.1 1.1 0.3 0.5 0.1 1 0.3 0.5 0.1 1 0.3 0.5 0.2 1 0.4 0.5 0.3 0.9 0.5 0.5 0.3 1 0.5 0.4 0.3 0.9 0.6 0.4 0.3 0.9 0.6 0.4 0.3 0.8 0.6 0.5 0.3 0.9 0.7 0.4 0.4 0.8 0.7 0.3 0.4 0.7 0.8 0.4 0.4 0.7 0.8 0.4 0.4 0.7 0.8 0.3 0.5 0.6 0.9 0.3 0.4 0.6 0.9 0.3 0.4 0.5 0.9 0.3 0.5 0.5 0.9 0.3 0.5 0.5 1 0.2 0.5 0.4 1 0.2 0.7 0.4 1.4 0.1 0.2 0.2 0.3 0 0.1 0 0.2 0.1 0.4 0.2 0.9 0.1 0.5 0.2 1.1 0.1 0.5 0.1 1 0.1 0.6 0.2 1.1 0 0.2 0 0.3 0 0.6 0 1.1 0 0.2 0 0.4 0 0.6 0 1.1-0.1 0.5-0.2 1.1 0 0.5-0.1 1-0.1 0.6-0.2 1.1-0.1 0.5-0.3 1-0.1 0.5-0.3 1-0.2 0.5-0.4 1-0.1 0.5-0.4 1-0.2 0.5-0.4 1-0.2 0.5-0.5 0.9-0.3 0.5-0.6 0.9-0.3 0.5-0.6 0.9-0.3 0.5-0.6 0.9-0.3 0.4-0.7 0.8-0.3 0.4-0.7 0.8-0.4 0.4-0.8 0.7-0.4 0.4-0.8 0.7-0.4 0.4-0.8 0.7-0.4 0.3-0.9 0.6-0.4 0.4-0.9 0.6-0.4 0.3-0.9 0.6-0.5 0.2-0.9 0.5-0.5 0.2-1 0.4-0.5 0.2-1 0.4-0.7 0.3-1.4 0.5-0.2 0-0.3 0.1-0.1 0-0.2 0-0.5 0.1-0.9 0.2-0.5 0.1-1.1 0.2-0.5 0.1-1 0.2-0.6 0.1-1.1 0.1-0.2 0-0.3 0-0.6 0-1.1 0-0.2 0-0.4 0-0.6 0-1.1 0-0.5 0-1.1-0.1-0.5-0.1-1-0.2-0.5-0.1-1.1-0.2-0.5-0.1-1-0.2-0.5-0.2-1-0.3-0.5-0.2-1-0.4-0.5-0.2-1-0.4-0.5-0.2-1-0.5-0.5-0.2-0.9-0.5-0.5-0.2-0.9-0.5-0.5-0.3-0.9-0.6-0.5-0.3-0.9-0.7-0.4-0.3-0.8-0.7-0.4-0.3-0.8-0.7-0.4-0.4-0.8-0.7-0.3-0.4-0.7-0.8-0.3-0.5-0.6-0.9-0.4-0.4-0.7-0.8-0.3-0.5-0.5-0.9-0.3-0.5-0.6-1-0.2-0.4-0.5-0.9-0.2-0.5-0.4-1-0.2-0.5-0.4-1-0.2-0.7-0.5-1.4 0-0.1-0.1-0.3 0-0.1 0-0.1-0.1-0.5-0.2-1-0.1-0.5-0.2-1-0.1-0.6-0.2-1.1-0.1-0.5-0.1-1.1 0-0.1 0-0.3 0-0.5 0-1.1 0-0.2 0-0.4 0-0.5 0-1 0-0.6 0.1-1.1 0.1-0.5 0.2-1.1 0.1-0.5 0.2-1 0.1-0.5 0.2-1 0.2-0.6 0.4-1.1 0.1-0.5 0.3-1 0.2-0.5 0.4-1 0.2-0.5 0.5-0.9 0.2-0.5 0.5-1 0.2-0.4 0.5-0.9 0.3-0.4 0.6-0.9 0.4-0.4 0.7-0.8 0.3-0.5 0.7-0.9 0.3-0.4 0.7-0.7 0.4-0.4 0.8-0.8 0.3-0.4 0.7-0.7 0.5-0.4 0.9-0.7 0.4-0.3 0.8-0.6 0.5-0.3 0.9-0.6 0.5-0.3 1-0.5 0.4-0.3 0.9-0.5 0.5-0.3 1-0.5 0.5-0.2 1-0.4 0.7-0.2 1.4-0.4 0.1-0.1 0.3-0.2 0.1 0 0.1 0 0.5-0.1 1-0.2 0.5-0.1 1-0.2 0.5-0.1 1.1-0.2 0.5 0 1.1-0.1 0.1 0 0.3 0 0.5 0 1.1 0 0.2 0 0.4 0zm0 0q0.5 0 1 0 0.6 0.1 1.1 0.1 0.5 0.1 1.1 0.2 0.5 0.1 1 0.2 0.5 0.1 1.1 0.3 0.5 0.1 1 0.3 0.5 0.1 1 0.3 0.5 0.2 1 0.4 0.5 0.3 0.9 0.5 0.5 0.3 1 0.5 0.4 0.3 0.9 0.6 0.4 0.3 0.9 0.6 0.4 0.3 0.8 0.6 0.5 0.3 0.9 0.7 0.4 0.4 0.8 0.7 0.3 0.4 0.7 0.8 0.4 0.4 0.7 0.8 0.4 0.4 0.7 0.8 0.3 0.5 0.6 0.9 0.3 0.4 0.6 0.9 0.3 0.4 0.5 0.9 0.3 0.5 0.5 0.9 0.3 0.5 0.5 1 0.2 0.5 0.4 1 0.2 0.7 0.4 1.4 0.1 0.2 0.2 0.3 0 0.1 0 0.2 0.1 0.4 0.2 0.9 0.1 0.5 0.2 1.1 0.1 0.5 0.1 1 0.1 0.6 0.2 1.1 0 0.2 0 0.3 0 0.6 0 1.1 0 0.2 0 0.4 0 0.6 0 1.1-0.1 0.5-0.2 1.1 0 0.5-0.1 1-0.1 0.6-0.2 1.1-0.1 0.5-0.3 1-0.1 0.5-0.3 1-0.2 0.5-0.4 1-0.1 0.5-0.4 1-0.2 0.5-0.4 1-0.2 0.5-0.5 0.9-0.3 0.5-0.6 0.9-0.3 0.5-0.6 0.9-0.3 0.5-0.6 0.9-0.3 0.4-0.7 0.8-0.3 0.4-0.7 0.8-0.4 0.4-0.8 0.7-0.4 0.4-0.8 0.7-0.4 0.4-0.8 0.7-0.4 0.3-0.9 0.6-0.4 0.4-0.9 0.6-0.4 0.3-0.9 0.6-0.5 0.2-0.9 0.5-0.5 0.2-1 0.4-0.5 0.2-1 0.4-0.7 0.3-1.4 0.5-0.2 0-0.3 0.1-0.1 0-0.2 0-0.5 0.1-0.9 0.2-0.5 0.1-1.1 0.2-0.5 0.1-1 0.2-0.6 0.1-1.1 0.1-0.2 0-0.3 0-0.6 0-1.1 0-0.2 0-0.4 0-0.6 0-1.1 0-0.5 0-1.1-0.1-0.5-0.1-1-0.2-0.5-0.1-1.1-0.2-0.5-0.1-1-0.2-0.5-0.2-1-0.3-0.5-0.2-1-0.4-0.5-0.2-1-0.4-0.5-0.2-1-0.5-0.5-0.2-0.9-0.5-0.5-0.2-0.9-0.5-0.5-0.3-0.9-0.6-0.5-0.3-0.9-0.7-0.4-0.3-0.8-0.7-0.4-0.3-0.8-0.7-0.4-0.4-0.8-0.7-0.3-0.4-0.7-0.8-0.3-0.5-0.6-0.9-0.4-0.4-0.7-0.8-0.3-0.5-0.5-0.9-0.3-0.5-0.6-1-0.2-0.4-0.5-0.9-0.2-0.5-0.4-1-0.2-0.5-0.4-1-0.2-0.7-0.5-1.4 0-0.1-0.1-0.3 0-0.1 0-0.1-0.1-0.5-0.2-1-0.1-0.5-0.2-1-0.1-0.6-0.2-1.1-0.1-0.5-0.1-1.1 0-0.1 0-0.3 0-0.5 0-1.1 0-0.2 0-0.4 0-0.5 0-1 0-0.6 0.1-1.1 0.1-0.5 0.2-1.1 0.1-0.5 0.2-1 0.1-0.5 0.2-1 0.2-0.6 0.4-1.1 0.1-0.5 0.3-1 0.2-0.5 0.4-1 0.2-0.5 0.5-0.9 0.2-0.5 0.5-1 0.2-0.4 0.5-0.9 0.3-0.4 0.6-0.9 0.4-0.4 0.7-0.8 0.3-0.5 0.7-0.9 0.3-0.4 0.7-0.7 0.4-0.4 0.8-0.8 0.3-0.4 0.7-0.7 0.5-0.4 0.9-0.7 0.4-0.3 0.8-0.6 0.5-0.3 0.9-0.6 0.5-0.3 1-0.5 0.4-0.3 0.9-0.5 0.5-0.3 1-0.5 0.5-0.2 1-0.4 0.7-0.2 1.4-0.4 0.1-0.1 0.3-0.2 0.1 0 0.1 0 0.5-0.1 1-0.2 0.5-0.1 1-0.2 0.5-0.1 1.1-0.2 0.5 0 1.1-0.1 0.1 0 0.3 0 0.5 0 1.1 0 0.2 0 0.4 0zm0 0q0.5 0 1 0 0.6 0.1 1.1 0.1 0.5 0.1 1.1 0.2 0.5 0.1 1 0.2 0.5 0.1 1.1 0.3 0.5 0.1 1 0.3 0.5 0.1 1 0.3 0.5 0.2 1 0.4 0.5 0.3 0.9 0.5 0.5 0.3 1 0.5 0.4 0.3 0.9 0.6 0.4 0.3 0.9 0.6 0.4 0.3 0.8 0.6 0.5 0.3 0.9 0.7 0.4 0.4 0.8 0.7 0.3 0.4 0.7 0.8 0.4 0.4 0.7 0.8 0.4 0.4 0.7 0.8 0.3 0.5 0.6 0.9 0.3 0.4 0.6 0.9 0.3 0.4 0.5 0.9 0.3 0.5 0.5 0.9 0.3 0.5 0.5 1 0.2 0.5 0.4 1 0.2 0.7 0.4 1.4 0.1 0.2 0.2 0.3 0 0.1 0 0.2 0.1 0.4 0.2 0.9 0.1 0.5 0.2 1.1 0.1 0.5 0.1 1 0.1 0.6 0.2 1.1 0 0.2 0 0.3 0 0.6 0 1.1 0 0.2 0 0.4 0 0.6 0 1.1-0.1 0.5-0.2 1.1 0 0.5-0.1 1-0.1 0.6-0.2 1.1-0.1 0.5-0.3 1-0.1 0.5-0.3 1-0.2 0.5-0.4 1-0.1 0.5-0.4 1-0.2 0.5-0.4 1-0.2 0.5-0.5 0.9-0.3 0.5-0.6 0.9-0.3 0.5-0.6 0.9-0.3 0.5-0.6 0.9-0.3 0.4-0.7 0.8-0.3 0.4-0.7 0.8-0.4 0.4-0.8 0.7-0.4 0.4-0.8 0.7-0.4 0.4-0.8 0.7-0.4 0.3-0.9 0.6-0.4 0.4-0.9 0.6-0.4 0.3-0.9 0.6-0.5 0.2-0.9 0.5-0.5 0.2-1 0.4-0.5 0.2-1 0.4-0.7 0.3-1.4 0.5-0.2 0-0.3 0.1-0.1 0-0.2 0-0.5 0.1-0.9 0.2-0.5 0.1-1.1 0.2-0.5 0.1-1 0.2-0.6 0.1-1.1 0.1-0.2 0-0.3 0-0.6 0-1.1 0-0.2 0-0.4 0-0.6 0-1.1 0-0.5 0-1.1-0.1-0.5-0.1-1-0.2-0.5-0.1-1.1-0.2-0.5-0.1-1-0.2-0.5-0.2-1-0.3-0.5-0.2-1-0.4-0.5-0.2-1-0.4-0.5-0.2-1-0.5-0.5-0.2-0.9-0.5-0.5-0.2-0.9-0.5-0.5-0.3-0.9-0.6-0.5-0.3-0.9-0.7-0.4-0.3-0.8-0.7-0.4-0.3-0.8-0.7-0.4-0.4-0.8-0.7-0.3-0.4-0.7-0.8-0.3-0.5-0.6-0.9-0.4-0.4-0.7-0.8-0.3-0.5-0.5-0.9-0.3-0.5-0.6-1-0.2-0.4-0.5-0.9-0.2-0.5-0.4-1-0.2-0.5-0.4-1-0.2-0.7-0.5-1.4 0-0.1-0.1-0.3 0-0.1 0-0.1-0.1-0.5-0.2-1-0.1-0.5-0.2-1-0.1-0.6-0.2-1.1-0.1-0.5-0.1-1.1 0-0.1 0-0.3 0-0.5 0-1.1 0-0.2 0-0.4 0-0.5 0-1 0-0.6 0.1-1.1 0.1-0.5 0.2-1.1 0.1-0.5 0.2-1 0.1-0.5 0.2-1 0.2-0.6 0.4-1.1 0.1-0.5 0.3-1 0.2-0.5 0.4-1 0.2-0.5 0.5-0.9 0.2-0.5 0.5-1 0.2-0.4 0.5-0.9 0.3-0.4 0.6-0.9 0.4-0.4 0.7-0.8 0.3-0.5 0.7-0.9 0.3-0.4 0.7-0.7 0.4-0.4 0.8-0.8 0.3-0.4 0.7-0.7 0.5-0.4 0.9-0.7 0.4-0.3 0.8-0.6 0.5-0.3 0.9-0.6 0.5-0.3 1-0.5 0.4-0.3 0.9-0.5 0.5-0.3 1-0.5 0.5-0.2 1-0.4 0.7-0.2 1.4-0.4 0.1-0.1 0.3-0.2 0.1 0 0.1 0 0.5-0.1 1-0.2 0.5-0.1 1-0.2 0.5-0.1 1.1-0.2 0.5 0 1.1-0.1 0.1 0 0.3 0 0.5 0 1.1 0 0.2 0 0.4 0zm0 0q0.5 0 1 0 0.6 0.1 1.1 0.1 0.5 0.1 1.1 0.2 0.5 0.1 1 0.2 0.5 0.1 1.1 0.3 0.5 0.1 1 0.3 0.5 0.1 1 0.3 0.5 0.2 1 0.4 0.5 0.3 0.9 0.5 0.5 0.3 1 0.5 0.4 0.3 0.9 0.6 0.4 0.3 0.9 0.6 0.4 0.3 0.8 0.6 0.5 0.3 0.9 0.7 0.4 0.4 0.8 0.7 0.3 0.4 0.7 0.8 0.4 0.4 0.7 0.8 0.4 0.4 0.7 0.8 0.3 0.5 0.6 0.9 0.3 0.4 0.6 0.9 0.3 0.4 0.5 0.9 0.3 0.5 0.5 0.9 0.3 0.5 0.5 1 0.2 0.5 0.4 1 0.2 0.7 0.4 1.4 0.1 0.2 0.2 0.3 0 0.1 0 0.2 0.1 0.4 0.2 0.9 0.1 0.5 0.2 1.1 0.1 0.5 0.1 1 0.1 0.6 0.2 1.1 0 0.2 0 0.3 0 0.6 0 1.1 0 0.2 0 0.4 0 0.6 0 1.1-0.1 0.5-0.2 1.1 0 0.5-0.1 1-0.1 0.6-0.2 1.1-0.1 0.5-0.3 1-0.1 0.5-0.3 1-0.2 0.5-0.4 1-0.1 0.5-0.4 1-0.2 0.5-0.4 1-0.2 0.5-0.5 0.9-0.3 0.5-0.6 0.9-0.3 0.5-0.6 0.9-0.3 0.5-0.6 0.9-0.3 0.4-0.7 0.8-0.3 0.4-0.7 0.8-0.4 0.4-0.8 0.7-0.4 0.4-0.8 0.7-0.4 0.4-0.8 0.7-0.4 0.3-0.9 0.6-0.4 0.4-0.9 0.6-0.4 0.3-0.9 0.6-0.5 0.2-0.9 0.5-0.5 0.2-1 0.4-0.5 0.2-1 0.4-0.7 0.3-1.4 0.5-0.2 0-0.3 0.1-0.1 0-0.2 0-0.5 0.1-0.9 0.2-0.5 0.1-1.1 0.2-0.5 0.1-1 0.2-0.6 0.1-1.1 0.1-0.2 0-0.3 0-0.6 0-1.1 0-0.2 0-0.4 0-0.6 0-1.1 0-0.5 0-1.1-0.1-0.5-0.1-1-0.2-0.5-0.1-1.1-0.2-0.5-0.1-1-0.2-0.5-0.2-1-0.3-0.5-0.2-1-0.4-0.5-0.2-1-0.4-0.5-0.2-1-0.5-0.5-0.2-0.9-0.5-0.5-0.2-0.9-0.5-0.5-0.3-0.9-0.6-0.5-0.3-0.9-0.7-0.4-0.3-0.8-0.7-0.4-0.3-0.8-0.7-0.4-0.4-0.8-0.7-0.3-0.4-0.7-0.8-0.3-0.5-0.6-0.9-0.4-0.4-0.7-0.8-0.3-0.5-0.5-0.9-0.3-0.5-0.6-1-0.2-0.4-0.5-0.9-0.2-0.5-0.4-1-0.2-0.5-0.4-1-0.2-0.7-0.5-1.4 0-0.1-0.1-0.3 0-0.1 0-0.1-0.1-0.5-0.2-1-0.1-0.5-0.2-1-0.1-0.6-0.2-1.1-0.1-0.5-0.1-1.1 0-0.1 0-0.3 0-0.5 0-1.1 0-0.2 0-0.4 0-0.5 0-1 0-0.6 0.1-1.1 0.1-0.5 0.2-1.1 0.1-0.5 0.2-1 0.1-0.5 0.2-1 0.2-0.6 0.4-1.1 0.1-0.5 0.3-1 0.2-0.5 0.4-1 0.2-0.5 0.5-0.9 0.2-0.5 0.5-1 0.2-0.4 0.5-0.9 0.3-0.4 0.6-0.9 0.4-0.4 0.7-0.8 0.3-0.5 0.7-0.9 0.3-0.4 0.7-0.7 0.4-0.4 0.8-0.8 0.3-0.4 0.7-0.7 0.5-0.4 0.9-0.7 0.4-0.3 0.8-0.6 0.5-0.3 0.9-0.6 0.5-0.3 1-0.5 0.4-0.3 0.9-0.5 0.5-0.3 1-0.5 0.5-0.2 1-0.4 0.7-0.2 1.4-0.4 0.1-0.1 0.3-0.2 0.1 0 0.1 0 0.5-0.1 1-0.2 0.5-0.1 1-0.2 0.5-0.1 1.1-0.2 0.5 0 1.1-0.1 0.1 0 0.3 0 0.5 0 1.1 0 0.2 0 0.4 0zm0 0q0.5 0 1 0 0.6 0.1 1.1 0.1 0.5 0.1 1.1 0.2 0.5 0.1 1 0.2 0.5 0.1 1.1 0.3 0.5 0.1 1 0.3 0.5 0.1 1 0.3 0.5 0.2 1 0.4 0.5 0.3 0.9 0.5 0.5 0.3 1 0.5 0.4 0.3 0.9 0.6 0.4 0.3 0.9 0.6 0.4 0.3 0.8 0.6 0.5 0.3 0.9 0.7 0.4 0.4 0.8 0.7 0.3 0.4 0.7 0.8 0.4 0.4 0.7 0.8 0.4 0.4 0.7 0.8 0.3 0.5 0.6 0.9 0.3 0.4 0.6 0.9 0.3 0.4 0.5 0.9 0.3 0.5 0.5 0.9 0.3 0.5 0.5 1 0.2 0.5 0.4 1 0.2 0.7 0.4 1.4 0.1 0.2 0.2 0.3 0 0.1 0 0.2 0.1 0.4 0.2 0.9 0.1 0.5 0.2 1.1 0.1 0.5 0.1 1 0.1 0.6 0.2 1.1 0 0.2 0 0.3 0 0.6 0 1.1 0 0.2 0 0.4 0 0.6 0 1.1-0.1 0.5-0.2 1.1 0 0.5-0.1 1-0.1 0.6-0.2 1.1-0.1 0.5-0.3 1-0.1 0.5-0.3 1-0.2 0.5-0.4 1-0.1 0.5-0.4 1-0.2 0.5-0.4 1-0.2 0.5-0.5 0.9-0.3 0.5-0.6 0.9-0.3 0.5-0.6 0.9-0.3 0.5-0.6 0.9-0.3 0.4-0.7 0.8-0.3 0.4-0.7 0.8-0.4 0.4-0.8 0.7-0.4 0.4-0.8 0.7-0.4 0.4-0.8 0.7-0.4 0.3-0.9 0.6-0.4 0.4-0.9 0.6-0.4 0.3-0.9 0.6-0.5 0.2-0.9 0.5-0.5 0.2-1 0.4-0.5 0.2-1 0.4-0.7 0.3-1.4 0.5-0.2 0-0.3 0.1-0.1 0-0.2 0-0.5 0.1-0.9 0.2-0.5 0.1-1.1 0.2-0.5 0.1-1 0.2-0.6 0.1-1.1 0.1-0.2 0-0.3 0-0.6 0-1.1 0-0.2 0-0.4 0-0.6 0-1.1 0-0.5 0-1.1-0.1-0.5-0.1-1-0.2-0.5-0.1-1.1-0.2-0.5-0.1-1-0.2-0.5-0.2-1-0.3-0.5-0.2-1-0.4-0.5-0.2-1-0.4-0.5-0.2-1-0.5-0.5-0.2-0.9-0.5-0.5-0.2-0.9-0.5-0.5-0.3-0.9-0.6-0.5-0.3-0.9-0.7-0.4-0.3-0.8-0.7-0.4-0.3-0.8-0.7-0.4-0.4-0.8-0.7-0.3-0.4-0.7-0.8-0.3-0.5-0.6-0.9-0.4-0.4-0.7-0.8-0.3-0.5-0.5-0.9-0.3-0.5-0.6-1-0.2-0.4-0.5-0.9-0.2-0.5-0.4-1-0.2-0.5-0.4-1-0.2-0.7-0.5-1.4 0-0.1-0.1-0.3 0-0.1 0-0.1-0.1-0.5-0.2-1-0.1-0.5-0.2-1-0.1-0.6-0.2-1.1-0.1-0.5-0.1-1.1 0-0.1 0-0.3 0-0.5 0-1.1 0-0.2 0-0.4 0-0.5 0-1 0-0.6 0.1-1.1 0.1-0.5 0.2-1.1 0.1-0.5 0.2-1 0.1-0.5 0.2-1 0.2-0.6 0.4-1.1 0.1-0.5 0.3-1 0.2-0.5 0.4-1 0.2-0.5 0.5-0.9 0.2-0.5 0.5-1 0.2-0.4 0.5-0.9 0.3-0.4 0.6-0.9 0.4-0.4 0.7-0.8 0.3-0.5 0.7-0.9 0.3-0.4 0.7-0.7 0.4-0.4 0.8-0.8 0.3-0.4 0.7-0.7 0.5-0.4 0.9-0.7 0.4-0.3 0.8-0.6 0.5-0.3 0.9-0.6 0.5-0.3 1-0.5 0.4-0.3 0.9-0.5 0.5-0.3 1-0.5 0.5-0.2 1-0.4 0.7-0.2 1.4-0.4 0.1-0.1 0.3-0.2 0.1 0 0.1 0 0.5-0.1 1-0.2 0.5-0.1 1-0.2 0.5-0.1 1.1-0.2 0.5 0 1.1-0.1 0.1 0 0.3 0 0.5 0 1.1 0 0.2 0 0.4 0z"/>
		<path id="Path 17" class="s4" d="m1837.9 952.8c0 22.2-15.7 43.5-43.7 59.1-27.9 15.7-65.9 24.5-105.5 24.5-82.4 0-149.2-37.4-149.2-83.6 0-46.1 66.8-83.5 149.2-83.5 39.6 0 77.6 8.8 105.5 24.5 28 15.6 43.7 36.9 43.7 59zm-754.2 0c0 22.2-15.7 43.5-43.6 59.1-28 15.7-66 24.5-105.6 24.5-82.3 0-149.1-37.4-149.1-83.6 0-46.1 66.8-83.5 149.1-83.5 39.6 0 77.6 8.8 105.6 24.5 27.9 15.6 43.6 36.9 43.6 59z"/>
		<path id="Path 18" class="s1" d="m854.8 808.6c0-54.9 29.3-105.6 76.8-133 47.5-27.4 106.1-27.4 153.6 0 47.4 27.4 76.7 78.1 76.7 133h-57.1c0-34.6-18.3-66.3-48.2-83.6-29.9-17.3-66.6-17.3-96.5 0-29.9 17.3-48.2 49-48.2 83.6zm606.5 0c0-54.9 29.3-105.6 76.8-133 47.5-27.4 106.1-27.4 153.6 0 47.5 27.4 76.8 78.1 76.8 133h-57.1c0-34.6-18.4-66.3-48.2-83.6-29.9-17.3-66.6-17.3-96.5 0-29.9 17.3-48.3 49-48.3 83.6zm-260.5 98.2c0 39.6 21.1 76.1 55.4 95.9 34.3 19.8 76.5 19.8 110.8 0 34.3-19.8 55.3-56.3 55.3-95.9h28.6c0 49.7-26.6 95.7-69.7 120.6-43 24.9-96.2 24.9-139.3 0-43-24.9-69.6-70.9-69.6-120.6z"/>
	</g>
</svg>
