<?xml version="1.0" encoding="utf-8"?>
<svg viewBox="445.727 810.631 1667.356 1401.088" xmlns="http://www.w3.org/2000/svg">
  <defs>
    <style type="text/css">
	.st0{enable-background:new    ;}
	.st1{fill-rule:evenodd;clip-rule:evenodd;fill:#DBDCD3;}
	.st2{fill-rule:evenodd;clip-rule:evenodd;fill:#1A1A1A;}
	.st3{fill-rule:evenodd;clip-rule:evenodd;fill:#FFFFFF;}
	.st4{fill-rule:evenodd;clip-rule:evenodd;fill:#BDBFAF;}
	.st5{fill-rule:evenodd;clip-rule:evenodd;fill:#FF9BAD;}
	.st6{fill:#F2231F;stroke:#000000;stroke-width:31;stroke-miterlimit:10;}
	.st7{fill:#FFFFFF;stroke:#000000;stroke-width:28;stroke-miterlimit:10;}
	.st8{fill:#FFFFFF;stroke:#000000;stroke-width:27;stroke-miterlimit:10;}
	.st9{fill:#FFFFFF;stroke:#000000;stroke-width:12;stroke-miterlimit:10;}
	.st10{fill-rule:evenodd;clip-rule:evenodd;fill:#FFFFFF;stroke:#000000;stroke-width:4;stroke-miterlimit:10;}
	.st11{fill-rule:evenodd;clip-rule:evenodd;fill:#F20F0F;}
	.st12{opacity:0.5608;fill-rule:evenodd;clip-rule:evenodd;fill:#786161;}
	.st13{opacity:0.5216;fill-rule:evenodd;clip-rule:evenodd;fill:#A66D6D;}
	.st14{fill-rule:evenodd;clip-rule:evenodd;fill:none;stroke:#000000;stroke-width:21;stroke-miterlimit:10;}
	.st15{fill-rule:evenodd;clip-rule:evenodd;fill:#FC2629;}
	.st16{fill-rule:evenodd;clip-rule:evenodd;fill:#74E82C;}
	.st17{fill-rule:evenodd;clip-rule:evenodd;fill:#FAE543;}
	.st18{fill-rule:evenodd;clip-rule:evenodd;fill:none;stroke:#1A1A1A;stroke-width:17;stroke-miterlimit:10;}
</style>
  </defs>
  <g id="Page_1_1_" class="st0">
    <g id="Path_3">
      <g>
        <path class="st1" d="M1227.03,1988.71c-10.75-81.65-48.85-93.23-73.71-89.96c-24.87,3.28-58.68,24.32-47.93,105.97 c10.75,81.65,53.26,194.14,86.85,189.72C1225.83,2190.02,1237.78,2070.36,1227.03,1988.71z"/>
      </g>
    </g>
    <g id="Path_4">
      <g>
        <path class="st2" d="M1244,1986.48c-5.7-43.32-19-70.9-37.03-87.27c-18.03-16.37-39.75-19.56-55.9-17.43 c-16.14,2.13-36.3,10.83-49.48,31.3c-13.18,20.48-18.88,50.56-13.18,93.87c5.62,42.71,19.17,92.11,36.09,131.64 c8.46,19.76,17.64,37,28.08,50.18c10.45,13.18,23.71,25.03,41.88,22.64c18.17-2.4,27.91-17.27,34.59-32.7 c6.68-15.44,11.08-34.46,14.14-55.74C1249.32,2080.42,1249.63,2029.19,1244,1986.48z M1209.32,2118.11 c-2.78,19.39-7,36.21-11.67,47.01c-3.5,8.09-6.82,11.1-7.69,12.02c-1.07-0.66-5.06-2.71-10.53-9.62 c-7.31-9.22-15.73-24.37-23.44-42.39c-15.42-36.02-28.5-83.7-33.62-122.63c-5.05-38.34,0.77-59.6,8.03-70.88 c7.26-11.28,16.43-14.73,25.16-15.88c8.73-1.15,18.48-0.19,28.41,8.83c9.93,9.01,21.05,28.05,26.1,66.38 C1215.18,2029.89,1214.89,2079.32,1209.32,2118.11z"/>
      </g>
    </g>
    <g id="Path_5">
      <g>
        <path class="st1" d="M1569.69,2050.39c-14.93-30.64-34.09-62.27-53.36-87.38c-50.14-65.35-88.93-56.33-108.84-41.05 c-19.91,15.27-38.66,50.4,11.48,115.75c12.77,16.64,28.28,34.04,44.71,50.39c31.49,31.33,70.64,51.2,119.29,37.95 c23.41-6.38,39.21-15.68,40.77-27.5C1625.79,2083.08,1603,2065.7,1569.69,2050.39z"/>
      </g>
    </g>
    <g id="Path_6">
      <g>
        <path class="st2" d="M1621.09,2061.38c-10.35-8.82-23.62-16.6-38.81-23.91c-14.98-29.91-33.36-60.12-52.36-84.88 c-26.6-34.67-51.91-51.9-75.71-57.07c-23.8-5.16-44.21,2.94-57.13,12.86c-12.92,9.92-26.03,27.53-27.21,51.86 c-1.17,24.33,8.93,53.23,35.53,87.9c13.33,17.38,29.3,35.27,46.22,52.1c33.96,33.79,80.78,57.34,135.87,42.33 c12.8-3.48,24.01-7.75,33.42-13.87c9.41-6.12,18.15-15.14,19.83-27.91C1642.93,2084.04,1632.68,2071.27,1621.09,2061.38z M1602.23,2100c-4.73,3.08-13.13,6.65-23.75,9.54c-42.22,11.5-73.69-4.68-102.71-33.57c-15.95-15.87-31.01-32.78-43.21-48.68 c-23.54-30.68-29.14-52.01-28.49-65.41c0.65-13.4,6.87-20.98,13.85-26.34c6.98-5.36,15.92-9.4,29.02-6.56 c13.11,2.84,32.26,13.77,55.81,44.45c18.37,23.94,37.11,54.83,51.55,84.45l2.68,5.5l5.56,2.55c15.77,7.25,28.71,14.99,36.33,21.5 c5.71,4.87,7.21,8.13,7.68,8.94C1606.16,2096.89,1605.14,2098.1,1602.23,2100z"/>
      </g>
    </g>
    <g id="Path_7">
      <g>
        <path class="st1" d="M972.02,1530.54c-12.54-21.73-44.92-44.9-116.24-3.72c-71.32,41.18-158.98,123.5-142.04,152.84 c16.94,29.34,132.06-5.41,203.38-46.59C988.44,1591.89,984.56,1552.26,972.02,1530.54z"/>
      </g>
    </g>
    <g id="Path_8">
      <g>
        <path class="st2" d="M986.85,1521.97c-8.14-14.11-23.9-29.4-47.86-33.74c-23.96-4.34-53.94,1.9-91.77,23.75 c-37.31,21.54-77.77,52.96-107.81,83.72c-15.02,15.38-27.43,30.45-35.61,45.15c-8.18,14.7-14.05,31.48-4.88,47.35 c9.16,15.88,26.63,19.18,43.45,19.45c16.82,0.27,36.08-2.95,56.91-8.27c41.66-10.64,89.1-29.96,126.41-51.5 c37.84-21.85,58.23-44.69,66.45-67.61C1000.36,1557.37,994.99,1536.08,986.85,1521.97z M959.91,1568.72 c-4.53,12.62-17.86,30.18-51.34,49.52c-34.01,19.64-79.79,38.28-117.76,47.98c-18.98,4.85-36.14,7.39-47.9,7.21 c-8.82-0.14-12.87-2.06-14.04-2.5c0.2-1.24,0.57-5.7,4.86-13.41c5.72-10.28,16.5-23.86,30.19-37.88 c27.38-28.03,66.42-58.36,100.43-78c33.49-19.34,55.36-22.1,68.56-19.71c13.19,2.39,19.9,9.54,24.3,17.16 C961.59,1546.71,964.44,1556.1,959.91,1568.72z"/>
      </g>
    </g>
    <g id="Path_9">
      <g>
        <path class="st1" d="M1791.57,1526.81c-71.32-41.18-103.7-18-116.25,3.72c-12.54,21.72-16.42,61.35,54.9,102.53 c71.32,41.18,186.44,75.93,203.39,46.59C1950.54,1650.31,1862.89,1567.99,1791.57,1526.81z"/>
      </g>
    </g>
    <g id="Path_10">
      <g>
        <path class="st2" d="M1943.55,1640.86c-8.18-14.7-20.6-29.77-35.62-45.15c-30.04-30.76-70.5-62.18-107.8-83.72 c-37.84-21.85-67.82-28.09-91.77-23.75c-23.96,4.34-39.72,19.63-47.86,33.74c-8.14,14.1-13.51,35.39-5.29,58.31 c8.22,22.91,28.61,45.76,66.45,67.6c37.31,21.54,84.75,40.86,126.41,51.5c20.83,5.32,40.09,8.53,56.91,8.27 c16.82-0.27,34.29-3.57,43.45-19.45C1957.59,1672.34,1951.73,1655.56,1943.55,1640.86z M1904.44,1673.43 c-11.76,0.18-28.92-2.36-47.9-7.21c-37.97-9.7-83.75-28.34-117.77-47.98c-33.48-19.34-46.81-36.9-51.34-49.52 c-4.53-12.62-1.69-22.01,2.71-29.63c4.4-7.62,11.11-14.77,24.3-17.16c13.2-2.39,35.07,0.38,68.56,19.71 c34.01,19.64,73.05,49.96,100.43,78c13.69,14.02,24.47,27.6,30.19,37.88c4.29,7.71,4.65,12.17,4.85,13.41 C1917.3,1671.37,1913.26,1673.29,1904.44,1673.43z"/>
      </g>
    </g>
    <g id="Path_11">
      <g>
        <path class="st2" d="M1323.69,1013.59h-0.85l-0.03,0c-264.65,0.5-479.52,215.78-479.51,480.43l-0.07,368.09 c0,93.13,75.83,168.97,168.97,168.97c42.36,0,81.2-15.65,110.9-41.46c46.45,59.74,119.08,98.09,200.61,98.09 c81.52,0,154.14-38.34,200.58-98.06c29.7,25.79,68.52,41.43,110.87,41.43c93.14,0,168.97-75.84,168.97-168.97v-368.09 C1804.12,1229.01,1588.7,1013.59,1323.69,1013.59z M1749.33,1862.11c0,63.73-50.45,114.18-114.18,114.18 c-38.24,0-71.48-18.34-92.21-46.69l-25.02-34.21l-20.91,36.86c-34.15,60.19-98.52,100.66-173.3,100.66 c-74.8,0-139.18-40.49-173.32-100.7l-20.92-36.9l-25.03,34.24c-20.73,28.37-53.98,46.72-92.24,46.72 c-63.73,0-114.17-50.45-114.18-114.17l0.07-368.09c0-235.08,189.75-425.19,424.83-425.65h0.77 c235.4,0,425.64,190.24,425.64,425.64V1862.11z"/>
      </g>
    </g>
    <g id="Path_12">
      <g>
        <path class="st3" d="M1323.72,1040.99h-0.86c-249.87,0.48-452.18,203.17-452.17,453.04l-0.04,368.09 c0,78.43,63.14,141.58,141.57,141.58c47.08,0,88.63-22.77,114.34-57.93c38.87,68.52,112.43,114.56,197.14,114.56 c84.71,0,158.27-46.04,197.14-114.56c25.71,35.16,67.26,57.93,114.34,57.93c78.43,0,141.57-63.15,141.57-141.58v-368.09 C1776.76,1243.82,1573.93,1040.99,1323.72,1040.99z"/>
      </g>
    </g>
    <g id="Path_13">
      <g>
        <path class="st1" d="M1323.68,1040.99h-0.82c-60.72,0.12-118.62,12.2-171.5,33.98c164.71,67.82,280.67,229.88,280.67,419.06 v317.84c0,191.68-222.41,212.9-305.49,133.87c50.97,88.28,128,114.58,197.16,114.58c84.7,0,158.25-46.03,197.13-114.54 c25.71,35.15,67.25,57.91,114.32,57.91c78.43,0,141.57-63.15,141.57-141.58v-368.09 C1776.72,1243.82,1573.89,1040.99,1323.68,1040.99z"/>
      </g>
    </g>
    <g id="Path_14">
      <g>
        <path class="st4" d="M1323.68,1040.99h-0.82c-18.54,0.04-36.8,1.21-54.75,3.41c223.93,27.45,397.35,218.28,397.35,449.63v368.09 c0,58.65-35.32,108.74-85.93,130.28c17.05,7.26,35.84,11.29,55.61,11.29c78.43,0,141.57-63.15,141.57-141.58v-368.09 C1776.72,1243.82,1573.89,1040.99,1323.68,1040.99z"/>
      </g>
    </g>
    <g id="Path_15">
      <g>
        <path class="st2" d="M1323.68,1034.14h-0.84c-253.56,0.48-459.01,206.32-459.01,459.89l-0.07,368.09 c0,82.11,66.31,148.42,148.42,148.42c45.69,0,86.34-20.67,113.52-53.03c41.17,65.92,114.31,109.66,197.99,109.66 c83.66,0,156.79-43.73,197.96-109.62c27.19,32.34,67.82,52.99,113.49,52.99c82.11,0,148.42-66.31,148.42-148.42v-368.09 C1783.57,1240.12,1577.59,1034.13,1323.68,1034.14z M1769.87,1862.11c0,74.75-59.97,134.72-134.72,134.72 c-44.86,0-84.33-21.66-108.79-55.1l-6.26-8.55l-5.23,9.21c-37.69,66.43-108.94,111.07-191.17,111.07 c-82.24,0-153.51-44.66-191.2-111.11l-5.23-9.23l-6.25,8.56c-24.46,33.47-63.95,55.15-108.83,55.15 c-74.76,0-134.72-59.97-134.72-134.72l0.07-368.09c0-246.17,199.16-445.71,445.32-446.19h0.82 c246.51,0,446.19,199.68,446.19,446.19V1862.11z"/>
      </g>
    </g>
    <g id="Path_16">
      <g>
        <path class="st4" d="M1638.52,1980c-0.02-0.17-0.04-0.34-0.07-0.5c-0.03-0.17-0.07-0.34-0.11-0.51c-0.03-0.15-0.06-0.3-0.09-0.45 v-0.07c-0.02-0.05-0.05-0.1-0.07-0.15c-0.07-0.23-0.14-0.45-0.23-0.67c-0.06-0.16-0.12-0.32-0.19-0.48 c-0.06-0.16-0.13-0.31-0.2-0.47c-0.08-0.15-0.16-0.3-0.24-0.45c-0.08-0.15-0.16-0.3-0.25-0.44c-0.09-0.15-0.18-0.28-0.28-0.43 c-0.1-0.14-0.2-0.28-0.31-0.42c-0.1-0.14-0.21-0.27-0.32-0.4c-0.11-0.13-0.23-0.26-0.34-0.39c-0.12-0.12-0.24-0.24-0.36-0.36 c-0.12-0.12-0.25-0.24-0.38-0.35c-0.13-0.11-0.26-0.22-0.4-0.33c-0.13-0.11-0.27-0.21-0.41-0.31c-0.14-0.1-0.29-0.19-0.43-0.29 c-0.15-0.09-0.29-0.18-0.44-0.26c-0.15-0.08-0.3-0.16-0.45-0.24c-0.16-0.08-0.31-0.16-0.47-0.23c-0.15-0.07-0.31-0.13-0.47-0.19 c-0.16-0.07-0.32-0.13-0.48-0.18c-0.16-0.05-0.33-0.1-0.49-0.15c-0.17-0.05-0.34-0.09-0.5-0.13c-0.17-0.04-0.34-0.07-0.5-0.1 c-0.17-0.03-0.34-0.06-0.52-0.07c-0.17-0.03-0.33-0.05-0.51-0.07c-0.17,0-0.34,0-0.51,0c-0.07,0-0.13,0-0.2,0 c-0.17,0-0.34,0-0.51,0h-0.16c-0.17,0.02-0.35,0.04-0.52,0.07c-0.17,0.02-0.34,0.04-0.51,0.07c-0.17,0.03-0.34,0.07-0.51,0.11 c-0.15,0.03-0.3,0.06-0.45,0.1h-0.07c-0.05,0.02-0.1,0.04-0.15,0.07c-0.23,0.07-0.45,0.15-0.67,0.23 c-0.16,0.06-0.32,0.13-0.47,0.19c-0.16,0.07-0.32,0.14-0.47,0.21c-0.15,0.07-0.3,0.16-0.45,0.24c-0.15,0.08-0.3,0.16-0.44,0.25 c-0.14,0.09-0.28,0.18-0.42,0.28c-0.14,0.1-0.28,0.2-0.42,0.3c-0.14,0.11-0.27,0.21-0.4,0.32c-0.13,0.11-0.26,0.23-0.38,0.34 c-0.12,0.12-0.25,0.24-0.36,0.36c-0.12,0.12-0.24,0.25-0.35,0.38c-0.11,0.13-0.22,0.26-0.33,0.4c-0.11,0.13-0.21,0.27-0.31,0.41 c-0.1,0.14-0.2,0.28-0.28,0.43c-0.09,0.15-0.18,0.29-0.27,0.44c-0.08,0.15-0.16,0.3-0.24,0.46c-0.08,0.15-0.15,0.3-0.22,0.46 c-0.07,0.16-0.14,0.32-0.2,0.48c-0.06,0.16-0.12,0.32-0.17,0.48c-0.06,0.16-0.11,0.32-0.15,0.49c-0.05,0.16-0.09,0.33-0.12,0.49 c-0.03,0.17-0.07,0.34-0.1,0.51c-0.03,0.17-0.06,0.34-0.08,0.51c-0.03,0.17-0.05,0.34-0.07,0.51c0,0.17,0,0.34,0,0.51v0.2 c0,0.17,0,0.34,0,0.5v0.16c0.02,0.17,0.04,0.34,0.07,0.51c0.02,0.18,0.04,0.35,0.07,0.52c0.03,0.17,0.07,0.34,0.11,0.5 c0.03,0.15,0.06,0.3,0.1,0.45v0.07c0.02,0.05,0.04,0.1,0.07,0.15c0.07,0.23,0.15,0.45,0.23,0.67c0.06,0.16,0.12,0.32,0.19,0.48 c0.07,0.16,0.13,0.31,0.21,0.46c0.07,0.15,0.16,0.3,0.24,0.45c0.08,0.15,0.17,0.3,0.25,0.45c0.09,0.15,0.18,0.29,0.28,0.43 c0.09,0.14,0.19,0.28,0.29,0.42c0.11,0.13,0.21,0.27,0.32,0.4c0.11,0.13,0.23,0.26,0.34,0.38c0.12,0.13,0.24,0.24,0.36,0.36 c0.12,0.12,0.25,0.23,0.38,0.35c0.13,0.11,0.26,0.22,0.4,0.33c0.13,0.1,0.27,0.21,0.41,0.31c0.14,0.1,0.28,0.2,0.43,0.29 c0.14,0.09,0.29,0.18,0.44,0.27c0.15,0.09,0.3,0.16,0.45,0.24c0.16,0.08,0.31,0.15,0.47,0.22c0.16,0.07,0.31,0.13,0.47,0.19 c0.16,0.06,0.32,0.12,0.48,0.18c0.16,0.05,0.33,0.1,0.49,0.15c0.17,0.05,0.33,0.09,0.5,0.13c0.17,0.04,0.34,0.07,0.5,0.1 c0.17,0.03,0.34,0.06,0.51,0.07c0.17,0.03,0.34,0.05,0.51,0.07c0.17,0.01,0.34,0.01,0.51,0c0.07,0.01,0.13,0.01,0.2,0.01 c0.17,0,0.34,0,0.52,0h0.16c0.18-0.02,0.35-0.04,0.52-0.07c0.17-0.02,0.34-0.04,0.51-0.07c0.17-0.03,0.34-0.07,0.5-0.11 c0.15-0.03,0.31-0.06,0.46-0.1h0.07c0.05-0.02,0.1-0.04,0.15-0.07c0.23-0.07,0.45-0.14,0.68-0.23c0.16-0.06,0.32-0.13,0.47-0.19 c0.16-0.07,0.32-0.14,0.47-0.21c0.15-0.07,0.3-0.16,0.45-0.24c0.15-0.08,0.3-0.16,0.44-0.25c0.14-0.09,0.29-0.18,0.43-0.28 c0.14-0.1,0.28-0.19,0.42-0.3c0.14-0.1,0.27-0.21,0.4-0.32c0.13-0.11,0.26-0.22,0.38-0.34c0.12-0.12,0.25-0.24,0.36-0.36 c0.12-0.12,0.23-0.24,0.35-0.37c0.11-0.13,0.22-0.26,0.33-0.39c0.1-0.14,0.21-0.27,0.3-0.41c0.1-0.14,0.2-0.28,0.29-0.42 c0.09-0.14,0.18-0.29,0.27-0.44c0.09-0.15,0.16-0.3,0.24-0.46c0.08-0.15,0.15-0.3,0.22-0.46c0.07-0.15,0.13-0.31,0.19-0.47 c0.06-0.16,0.12-0.32,0.18-0.48c0.05-0.16,0.1-0.33,0.14-0.49c0.05-0.16,0.09-0.33,0.13-0.5c0.03-0.17,0.07-0.34,0.09-0.51 c0.03-0.17,0.06-0.34,0.08-0.51c0.03-0.17,0.05-0.34,0.07-0.52c0-0.01,0-0.01,0-0.02c0-0.16,0-0.33,0-0.49v-0.2 c0-0.01,0-0.01,0-0.02c0-0.17,0-0.33,0-0.5v-0.18C1638.57,1980.35,1638.55,1980.17,1638.52,1980z"/>
      </g>
    </g>
    <g id="Path_17">
      <g>
        <path class="st5" d="M1555.31,1442.28c-13.43-7.52-31.64-11.75-50.64-11.75c-39.55,0-71.61,17.96-71.61,40.11 c0,22.15,32.06,40.1,71.61,40.1c18.99,0,37.21-4.23,50.64-11.75c13.43-7.52,20.98-17.72,20.98-28.36 C1576.29,1460.01,1568.75,1449.81,1555.31,1442.28z M1193.3,1442.28c-13.43-7.52-31.65-11.75-50.64-11.75 c-39.55,0-71.61,17.96-71.61,40.11c0,22.15,32.06,40.1,71.61,40.1c18.99,0,37.21-4.23,50.64-11.75 c13.43-7.52,20.97-17.72,20.97-28.36C1214.28,1460.01,1206.73,1449.81,1193.3,1442.28z"/>
      </g>
    </g>
    <g id="Path_18_copy">
      <g>
        <path class="st2" d="M1214.95,1337.55c-22.79-13.16-50.93-13.16-73.71,0c-22.79,13.16-36.85,37.52-36.85,63.83h27.39 c0-16.57,8.81-31.82,23.16-40.11c14.35-8.28,31.96-8.28,46.32,0c14.35,8.29,23.15,23.54,23.15,40.11h27.4 C1251.8,1375.07,1237.74,1350.71,1214.95,1337.55z M1506.1,1337.55c-22.79-13.16-50.92-13.16-73.71,0 c-22.79,13.16-36.86,37.52-36.86,63.83h27.4c0-16.57,8.81-31.82,23.16-40.11c14.35-8.28,31.96-8.28,46.31,0 c14.35,8.29,23.16,23.54,23.16,40.11h27.39C1542.96,1375.07,1528.89,1350.71,1506.1,1337.55z M1350.25,1494.57 c-16.46,9.5-36.71,9.5-53.16,0c-16.46-9.5-26.58-27.04-26.58-46.04h-13.7c0,23.88,12.75,45.97,33.43,57.9 c20.68,11.94,46.18,11.94,66.86,0c20.67-11.94,33.43-34.03,33.43-57.9h-13.7C1376.83,1467.53,1366.71,1485.07,1350.25,1494.57z"/>
      </g>
    </g>
  </g>
  <g id="Layer_2">
    <g id="Layer_4">
      <path class="st6" d="M1221.38,887.24c102.68-84.89,257.06-101.07,375.1-39.31c67.67,35.4,121.27,92.22,182.65,137.67 c61.38,45.45,138.54,80.64,212.7,62.39c-18.7,41.8-70.65,54.8-115.75,62.73c-91.47,16.07-182.94,32.15-274.42,48.22 c-30,5.27-60.77,10.54-90.71,4.98c-33.2-6.17-62.46-25.11-90.18-44.41c-50.76-35.33-99.74-73.24-146.67-113.52 c-18.95-16.26-38.05-33.56-48.73-56.12C1214.7,927.3,1211.5,895.41,1221.38,887.24z"/>
    </g>
    <g id="Layer_5">
      <path class="st7" d="M2039.19,959.58c-44.46-4.06-75.91,20.17-84.77,61.29c-8.87,41.13,27.67,85.27,72.23,88.12 c44.56,2.85,88.16-35.4,86.38-77.33C2110.2,965.15,2056.82,961.19,2039.19,959.58z"/>
    </g>
    <g id="Layer_6">
      <path class="st4" d="M2033.08,973.81c34.29,22.52,41.94,79.4,27.21,111.72c17.17-2.9,38.91-24.75,42.65-42.01 c3.74-17.25-1.81-40.14-15.58-52.57C2075.69,980.42,2057.14,972.73,2033.08,973.81z"/>
    </g>
    <path class="st8" d="M1675.73,1173.43c-1.2-0.44,3.27,0.05,2-0.08c-4.81-0.49,48.8,13.46,67.24,15.34 c25.66,2.61,69.32-18.76,72.72-44.34c4.5-33.85-21.33-51.04-40.92-63.14c-87.03-53.78-280.84-20.63-375.43-59.62 s-132.4-135.77-234.23-125.89c-30.04,2.91-61.84,22.47-72.89,50.56c-9.08,23.1-8.7,59.21,10.17,75.35 c13.81,11.81,56.26,19.05,71.68,25.63c1.3,0.55,5.18,2.64,3.91,2.02c-36.54-17.86-123.21-14.71-137.09,10.72 c-53.71,98.36,332.74,137.96,492.66,168.4c67.82,12.91,165.17,74.59,233.76,66.76c16.32-1.86,29.67-21.23,34.82-36.83 c7.45-22.56,11.3-37.09-47.63-58.25c0,0-6.16-2.19-7.01-2.5c-16.1-5.78-14.17-4.42-16.37-5.45 C1721.62,1186.74,1675.73,1173.43,1675.73,1173.43z"/>
    <g id="Layer_3">
      <g id="Layer_7">
        <path class="st4" d="M1708.54,1069.73c30.05,24.98,75.16,52.24,31.92,103.65c14.74,4.45,21.9,1.89,36.3-3.54 c21.99-8.3,38.32-21.96,35.42-39.49c-1.86-11.26-14.14-25.23-23.21-32.26C1768.02,1081.81,1734.34,1075.86,1708.54,1069.73z"/>
      </g>
      <g id="Layer_8">
        <path class="st4" d="M1743.02,1210.17c29.18,32.76-8.73,59.59-16.63,68.12c11.23,5.59,34.61,6.42,46.32,1.77 c11.71-4.65,21.71-21.18,22.96-32.82c0.75-7.01,2.25-6.15-1-11.55c-2.7-4.48-5.23-4.82-9.92-8.73 C1776.12,1219.76,1754.21,1212.79,1743.02,1210.17z"/>
      </g>
      <g id="Layer_9">
        <path class="st1" d="M1683.02,1067.17c81.1,58.98,59.73,85.13,57.43,106.21c18.19-19.59,40.26-38.12,24.12-61.99 C1735.45,1068.26,1716.02,1071.39,1683.02,1067.17z"/>
      </g>
      <g id="Layer_10">
        <path class="st1" d="M2003.99,978.16c35.02,16.69,49.3,66.07,59.15,107.37c9.75-28.11,7.08-59.02-3.56-85.13 c-4.47-10.96-13.38-25.71-25-26.7C2019.49,972.42,2015.21,973.69,2003.99,978.16z"/>
      </g>
    </g>
  </g>
  <g id="Layer_40_copy">
    <g id="Layer_41_copy">
      <path class="st10" d="M1007.9,1948.85c-127.52-192.67-156.09-272.36-273.1-409.29c-20.84-24.39-44.47-48.35-78.51-66.07 s-81.36-28.02-124.05-20.03c-56.75,10.62-88.12,50.46-86.45,86.97c1.67,36.51,22.51,67.74,43.2,97.58 c10.81,15.59,32.32,18.08,59.48,15.28c10.67-1.1,23.72-12.85,28.1-18.95c4.53-6.32-14.41-34.86-18.3-41.34 c-9.93-16.55-15.18-18.65-21.36-36.67c-8.28-24.12,12.72-39.17,31.92-38.92c33.62,0.44,50.83,20.13,62.05,29.01 c16.96,13.43,102,119.74,108.88,130.18c87.29,132.47,91.95,159.94,179.24,292.41c2.35,3.56,5.01,6.49,9.16,9.35 c9.21,6.34,21.21,5.87,40.04,5.02C981.98,1982.74,1014.62,1959,1007.9,1948.85z"/>
      <path class="st11" d="M975.78,1898.82c-8.46,30.69-38.56,39.25-68.31,41.82c-14.76-15.88-21.4-33.96-29.81-51.51 c27.61,1.47,59.27-14.16,73.57-41.41"/>
      <path class="st11" d="M910.43,1787.51c-12.92,31.22-38.01,42.25-69.51,40.65c-14.76-15.88-22.65-33.99-31.05-51.54 c31.27,1.59,51.49-12.49,71.41-37.27"/>
      <path class="st11" d="M841.64,1685.53c-13.68,23.28-39.76,36.92-65.48,40.38c-14.76-15.88-24.27-33.89-32.67-51.44 c26.34-7.29,50.16-13.05,65.78-39.77"/>
      <path class="st11" d="M771.46,1588.43c-16.94,23.91-34.87,37.43-64.69,44.38c-14.76-15.88-25.18-28.89-46.4-49.49 c31.07-5.49,51.13-23.24,71.64-41.93"/>
      <path class="st11" d="M678.83,1481.68c-1.37,27.66-30.22,52.47-58.12,56.13c-18.38-9.57-34.18-19.4-58.22-22.83 c33.76-15.47,60.76-31.08,52.04-61.05"/>
      <path class="st11" d="M489.59,1467.24c31.62-0.84,71.15,16.57,72.63,44.83c-22.48,11.45-10.81,8.38-26.43,21.66 c-19.11-33.51-51.92-37.53-78.72-29.69"/>
      <path class="st11" d="M557.25,1583.85c-33.59,2.9-56.31,23.38-69.56,40.4c-14.76-15.88-15.25-21.93-23.65-39.48 c19.34-40.72,40.12-46.16,70.28-39.66"/>
      <g id="Layer_42_copy">
        <path class="st12" d="M989.08,1962.73c-126.66-180.19-241-430.93-343.14-482.93c94.71,30.24,55.47,20.85,90.56,58.98 c143.57,155.98,173.85,265.26,274.19,408C1016.87,1955.58,1026.82,1966.19,989.08,1962.73z"/>
      </g>
      <g id="Layer_42_copy_2">
        <path class="st13" d="M562.49,1628.7c-51.07-71.88-45.89-85.9-29.8-104.45c4.46-5.15,7.43-4.11,8.14,0.05 c10.8,63.27,2.39,61.35,41.42,99.95C584.65,1626.63,571.03,1640.71,562.49,1628.7z"/>
      </g>
      <path class="st14" d="M1010.68,1946.79c-127.52-192.67-156.09-272.36-273.1-409.29c-20.84-24.39-44.47-48.35-78.51-66.07 c-34.03-17.72-81.36-28.02-124.05-20.03c-56.75,10.62-88.12,50.46-86.45,86.97s22.51,67.74,43.2,97.58 c10.81,15.59,25.14,30.11,61.73,18.2c11.9-3.88,24.75-19.85,22.63-28.13c-3.05-11.89-5.83-20.56-15.08-35.08 c-10.37-16.28-15.18-16.65-21.36-34.67c-8.28-24.12,7.06-35.73,26.26-35.48c33.62,0.44,47.83,19.79,59.05,28.68 c16.96,13.43,103.13,116.06,112.14,128.22c94.6,127.78,97.34,156.78,184.63,289.25c2.35,3.56,5.01,6.49,9.16,9.35 c9.21,6.34,21.21,5.87,40.04,5.02C984.76,1980.68,1017.4,1956.94,1010.68,1946.79z"/>
    </g>
  </g>
  <g id="Layer_12_copy_7">
    <ellipse class="st15" cx="739.27" cy="1334.6" rx="17.83" ry="20.11"/>
    <g id="Layer_14_copy_7">
      <path class="st3" d="M734.92,1319.59c-4.29,1.01-8.29,4.14-10.04,8.66c-1.75,4.53-0.32,9.75,2.54,13.49 c2.94,3.83,8.86,5.02,10.86,7.62c-1.12-3.33-3.86-6.67-5.06-8.73c-1.06-1.82-1.55-3.92-2.01-6.03 C730.17,1329.87,733.53,1324.83,734.92,1319.59z"/>
    </g>
    <g id="Layer_12_copy_8">
      <ellipse class="st16" cx="844.15" cy="1303.63" rx="15.46" ry="15.08"/>
      <g id="Layer_14_copy_8">
        <path class="st3" d="M840.37,1292.37c-3.72,0.76-7.19,3.1-8.71,6.5c-1.52,3.39-0.28,7.31,2.2,10.12 c2.55,2.88,7.68,3.76,9.42,5.72c-0.97-2.49-3.35-5-4.39-6.55c-0.92-1.37-1.35-2.94-1.75-4.53 C836.25,1300.08,839.17,1296.3,840.37,1292.37z"/>
      </g>
    </g>
    <g id="Layer_12_copy_6">
      <ellipse class="st16" cx="739.95" cy="1465.44" rx="21.77" ry="22.34"/>
      <g id="Layer_14_copy_6">
        <path class="st3" d="M734.64,1448.76c-5.23,1.12-10.12,4.6-12.26,9.63s-0.4,10.84,3.1,14.99c3.59,4.26,10.82,5.57,13.25,8.47 c-1.37-3.7-4.71-7.41-6.18-9.7c-1.29-2.03-1.9-4.35-2.46-6.71C728.84,1460.18,732.94,1454.58,734.64,1448.76z"/>
      </g>
    </g>
    <g id="Layer_12_copy_5">
      <ellipse class="st17" cx="878.33" cy="1490.15" rx="24.4" ry="25.13"/>
      <g id="Layer_14_copy_5">
        <path class="st3" d="M872.37,1471.39c-5.87,1.26-11.35,5.17-13.75,10.83s-0.44,12.19,3.48,16.86c4.02,4.79,12.13,6.27,14.86,9.53 c-1.53-4.16-5.29-8.33-6.93-10.91c-1.45-2.28-2.13-4.9-2.76-7.54C865.87,1484.24,870.47,1477.95,872.37,1471.39z"/>
      </g>
    </g>
    <g id="Layer_12_copy_4">
      <ellipse class="st16" cx="995.42" cy="1588.92" rx="29.02" ry="28.54"/>
      <g id="Layer_14_copy_4">
        <path class="st3" d="M988.34,1567.62c-6.98,1.43-13.49,5.87-16.35,12.3c-2.85,6.42-0.53,13.84,4.13,19.15 c4.78,5.44,14.42,7.12,17.67,10.82c-1.82-4.72-6.29-9.46-8.24-12.39c-1.72-2.59-2.53-5.56-3.28-8.57 C980.61,1582.21,986.07,1575.06,988.34,1567.62z"/>
      </g>
    </g>
    <g id="Layer_12_copy_12">
      <g id="Layer_14_copy_12">
        <ellipse class="st17" cx="1828.04" cy="1966.78" rx="21.48" ry="23.25"/>
        <path class="st3" d="M1823.72,1949.43c-5.53,1.17-10.69,4.78-12.95,10.02c-2.26,5.23-0.42,11.28,3.27,15.6 c3.79,4.43,11.43,5.8,14,8.81c-1.44-3.85-4.98-7.71-6.53-10.09c-1.37-2.11-2-4.53-2.6-6.98 C1817.59,1961.32,1821.92,1955.49,1823.72,1949.43z"/>
      </g>
    </g>
    <g id="Layer_11">
      <path class="st18" d="M887.08,1349.37c-27.5-26.02-64.95-44.35-102.5-39.6c-37.56,4.75-58.26,47.67-55.9,85.45 c2.63,42.05,44.54,69.18,82.36,87.74c355.75,174.51,767.38,211.51,1120.29,391.7c19.24,9.82,41.45,26.66,36.09,47.59 c-3.87,15.13-20.54,22.74-35.55,27.04c-53.1,15.21-110.6,14.75-163.45-1.31"/>
    </g>
    <g id="Layer_12_copy_11">
      <ellipse class="st16" cx="1975.79" cy="1940.82" rx="22.43" ry="25.97"/>
      <g id="Layer_14_copy_11">
        <path class="st3" d="M1971.27,1921.43c-5.77,1.3-11.16,5.34-13.52,11.19c-2.36,5.84-0.44,12.59,3.42,17.42 c3.95,4.95,11.93,6.48,14.62,9.84c-1.51-4.3-5.2-8.61-6.81-11.27c-1.43-2.36-2.09-5.06-2.71-7.79 C1964.87,1934.71,1969.39,1928.2,1971.27,1921.43z"/>
        <ellipse class="st16" cx="1975.79" cy="1940.82" rx="22.43" ry="25.97"/>
        <path class="st3" d="M1971.27,1921.43c-5.77,1.3-11.16,5.34-13.52,11.19c-2.36,5.84-0.44,12.59,3.42,17.42 c3.95,4.95,11.93,6.48,14.62,9.84c-1.51-4.3-5.2-8.61-6.81-11.27c-1.43-2.36-2.09-5.06-2.71-7.79 C1964.87,1934.71,1969.39,1928.2,1971.27,1921.43z"/>
      </g>
    </g>
    <g id="Layer_12_copy_3">
      <ellipse class="st15" cx="1190.95" cy="1607.5" rx="29.02" ry="28.54"/>
      <g id="Layer_14_copy_3">
        <path class="st3" d="M1183.86,1586.2c-6.98,1.43-13.49,5.87-16.35,12.3s-0.53,13.84,4.13,19.15c4.78,5.44,14.42,7.12,17.67,10.82 c-1.82-4.72-6.29-9.46-8.24-12.39c-1.72-2.59-2.53-5.56-3.28-8.57C1176.13,1600.79,1181.6,1593.64,1183.86,1586.2z"/>
      </g>
    </g>
    <g id="Layer_12_copy_10">
      <ellipse class="st16" cx="1868.68" cy="1873.8" rx="27.27" ry="31.28"/>
      <g id="Layer_14_copy_10">
        <path class="st3" d="M1863.19,1850.45c-7.02,1.57-13.57,6.44-16.44,13.48c-2.87,7.04-0.53,15.17,4.16,20.98 c4.81,5.96,14.51,7.8,17.77,11.86c-1.83-5.17-6.32-10.37-8.28-13.58c-1.73-2.84-2.54-6.09-3.3-9.39 C1855.41,1866.44,1860.91,1858.6,1863.19,1850.45z"/>
        <ellipse class="st16" cx="1868.68" cy="1873.8" rx="27.27" ry="31.28"/>
        <path class="st3" d="M1863.19,1850.45c-7.02,1.57-13.57,6.44-16.44,13.48c-2.87,7.04-0.53,15.17,4.16,20.98 c4.81,5.96,14.51,7.8,17.77,11.86c-1.83-5.17-6.32-10.37-8.28-13.58c-1.73-2.84-2.54-6.09-3.3-9.39 C1855.41,1866.44,1860.91,1858.6,1863.19,1850.45z"/>
      </g>
    </g>
    <g id="Layer_12_copy_9">
      <g id="Layer_14_copy_9">
        <ellipse class="st15" cx="1782.24" cy="1769.25" rx="32.42" ry="33.53"/>
        <path class="st3" d="M1775.71,1744.22c-8.34,1.68-16.13,6.9-19.54,14.45c-3.41,7.55-0.63,16.26,4.94,22.49 c5.72,6.39,17.25,8.37,21.13,12.71c-2.18-5.55-7.51-11.12-9.85-14.56c-2.06-3.04-3.02-6.53-3.92-10.06 C1766.46,1761.37,1773,1752.97,1775.71,1744.22z"/>
      </g>
    </g>
    <g id="Layer_12_copy">
      <ellipse class="st16" cx="1318.43" cy="1695.02" rx="35.62" ry="35.74"/>
      <g id="Layer_14_copy">
        <path class="st3" d="M1311.25,1668.33c-9.17,1.8-17.73,7.36-21.47,15.4c-3.75,8.05-0.69,17.34,5.43,23.98 c6.28,6.81,18.95,8.92,23.22,13.55c-2.39-5.91-8.26-11.85-10.82-15.52c-2.26-3.24-3.32-6.96-4.31-10.73 C1301.09,1686.61,1308.27,1677.65,1311.25,1668.33z"/>
        <ellipse class="st16" cx="1318.43" cy="1695.02" rx="35.62" ry="35.74"/>
        <path class="st3" d="M1311.25,1668.33c-9.17,1.8-17.73,7.36-21.47,15.4c-3.75,8.05-0.69,17.34,5.43,23.98 c6.28,6.81,18.95,8.92,23.22,13.55c-2.39-5.91-8.26-11.85-10.82-15.52c-2.26-3.24-3.32-6.96-4.31-10.73 C1301.09,1686.61,1308.27,1677.65,1311.25,1668.33z"/>
      </g>
    </g>
    <g id="Layer_13_copy">
      <g id="Layer_12_copy_2">
        <ellipse class="st17" cx="1528.35" cy="1690.95" rx="34.59" ry="34.78"/>
        <g id="Layer_14_copy_2">
          <path class="st3" d="M1519.91,1664.99c-8.32,1.75-16.08,7.16-19.48,14.99s-0.63,16.87,4.93,23.33 c5.7,6.63,17.19,8.68,21.06,13.18c-2.17-5.75-7.49-11.53-9.82-15.1c-2.05-3.16-3.01-6.78-3.91-10.44 C1510.69,1682.77,1517.21,1674.06,1519.91,1664.99z"/>
        </g>
      </g>
    </g>
    <g id="Layer_13">
      <g id="Layer_12">
        <g id="Layer_14">
          <path class="st3" d="M1620.95,1767.1c-10.1,2.11-19.53,8.64-23.66,18.1c-4.13,9.45-0.76,20.37,5.98,28.18 c6.92,8.01,20.87,10.48,25.58,15.92c-2.64-6.95-9.1-13.92-11.92-18.24c-2.49-3.81-3.66-8.18-4.75-12.61 C1609.76,1788.58,1617.67,1778.05,1620.95,1767.1z"/>
          <circle class="st16" cx="1631.2" cy="1798.45" r="42"/>
          <path class="st3" d="M1620.95,1767.1c-10.1,2.11-19.53,8.64-23.66,18.1c-4.13,9.45-0.76,20.37,5.98,28.18 c6.92,8.01,20.87,10.48,25.58,15.92c-2.64-6.95-9.1-13.92-11.92-18.24c-2.49-3.81-3.66-8.18-4.75-12.61 C1609.76,1788.58,1617.67,1778.05,1620.95,1767.1z"/>
        </g>
      </g>
    </g>
  </g>
</svg>