<?xml version="1.0" encoding="UTF-8"?>
<svg width="240" height="240" version="1.1" viewBox="0 0 240 240" xmlns="http://www.w3.org/2000/svg"><path d="m0 0h240v240h-240z" fill="#fff"/><path d="m0 0h240v240h-240zm180.802 194.819c6.72363-1.20636 13.342-3.97318 18.3954-8.63956 1.04282-2.51189-1.82104-4.56964-2.65278-6.7865-1.79815-2.91322-3.63469-5.89465-6.27276-8.13408-3.09423 4e-3 -5.22304 2.84563-8.20788 3.40652-6.8185 2.3949-15.4676 1.31195-20.213-4.56644-5.6238-6.79944-4.70623-18.3227 2.58475-23.6009 5.28518-3.83895 12.5335-4.0295 18.5247-1.8841 2.34161 0.73153 5.32032 3.85424 7.22069 0.83291 3.15235-4.01624 6.1973-8.2873 7.82622-13.1781-1.34433-2.39096-4.17943-3.23261-6.39657-4.58833-14.2486-6.90136-32.8753-4.51606-44.2005 6.80356-6.5045 6.6376-9.66272 16.0677-9.43923 25.2723-0.30764 10.7236 4.50434 21.578 13.1218 28.0889 7.44099 5.79368 17.1764 7.98701 26.4708 7.2542 1.08267-0.0468 2.16576-0.12104 3.23833-0.2804zm-121.086-1.19854c2.07174-2.11506 0.925232-5.35318 1.34-7.98796 0.12488-8.15744 0.17484-16.3158 0.26544-24.4736 6.50958 10.6063 12.7393 21.4007 19.5376 31.8196 2.23925 1.74177 5.31005 0.68344 7.92917 0.97522 3.1449 0.0108 6.31047 0.19752 9.43494-0.26236 2.82273-1.59262 1.24838-5.40147 1.76232-8.01717 0.136602-18.5547 0.127002-37.111-0.12548-55.6647 1.06386-3.279-2.30614-5.45026-5.22144-4.61984-4.28225-0.0496-8.6176-0.3182-12.8593 0.3634-2.60416 1.59385-0.972324 5.28982-1.5479 7.81205-0.15176 8.76339-0.18492 17.5282-0.2772 26.2923-6.324-11.1192-12.9011-22.0952-19.3128-33.1616-1.91841-2.00025-4.98847-1.06012-7.45533-1.32698-3.3939-0.0168-6.8152-0.19064-10.1796 0.36564-2.90843 1.54572-1.01324 5.46324-1.63101 8.07249-0.13848 19.5406-0.05352 39.0818-0.07716 58.6227 2.0121 2.31934 5.37614 1.40881 8.06869 1.60927 3.45192-0.0236 6.91922 0.0392 10.3491-0.41846zm69.0928-0.11668c1.85342-2.1413 0.68941-5.16868 1.08895-7.7169 0.1492-13.6902 0.31876-27.3838 0.0184-41.0732-0.4358-2.13815 0.81288-6.30447-2.39714-6.49763-4.838-0.35232-9.6949 0.0108-14.5344-0.13288-3.45344-0.0758-2.74396 4.06708-2.87211 6.39428-0.3344 14.4361-0.29344 28.885-0.0124 43.3234-0.0767 2.52394-0.0728 6.84662 3.62824 6.13408 4.84018 0.1062 9.71089 0.25316 14.5324-0.20144l0.2838-0.0915 0.26432-0.13824zm-4.33675-64.4555c5.32475-2.31232 7.27112-9.67098 3.97702-14.4023-1.9138-3.14977-5.60942-5.087-9.29794-4.64796-5.31415 0.22168-9.85938 5.44618-9.1578 10.7668 0.13524 5.7163 6.09097 10.3285 11.6611 9.17596 0.98395-0.12068 1.93837-0.43846 2.81765-0.89248zm57.2665-13.4951c6.43458-1.43219 12.7669-4.09412 17.6303-8.64359 0.26696-2.7608-2.05247-4.82627-3.18307-7.13965-1.73905-2.68982-3.38317-5.53104-5.85466-7.63072-2.6228-0.16464-4.42269 2.22677-6.83705 2.8784-6.52917 2.79566-14.9295 2.46116-20.253-2.65182-5.20884-4.68801-6.38208-12.8839-3.5351-19.1427 2.68162-5.8743 9.16569-9.3298 15.4991-9.18738 4.35099-0.02 8.54864 1.48566 12.3049 3.57753 2.98884 0.177 3.96434-3.58013 5.74-5.39955 1.83162-2.72345 3.61105-5.53604 4.67058-8.66324-0.82919-3.20093-4.71704-3.79581-7.17083-5.37038-5.23763-2.45944-11.0289-3.57662-16.8024-3.38568-11.6367-0.088-23.5814 5.24336-30.153 15.0609-5.63447 8.25809-6.90035 18.9081-5.09846 28.5834 1.80297 9.82876 8.15332 18.772 17.1152 23.3048 7.89844 4.21208 17.1628 5.21841 25.9276 3.80973zm-122.262-1.28267c2.69485-1.79016 0.861692-5.49526 1.68759-8.11959 0.29284-2.21947 3.94222-0.42913 5.58277-1.05046 9.30891-0.24192 19.1979-2.04971 26.5145-8.21065 5.65634-4.96013 8.89427-12.5187 8.63156-20.0318 0.17652-5.43995-0.32644-11.0782-2.96057-15.9478-3.63039-7.16155-11.0979-11.5146-18.7016-13.3153-6.26412-1.69135-12.7924-1.73848-19.2316-1.62292-6.0272-1e-5 -12.0615-0.0164-18.0774 0.40385-2.57094 1.63623-0.980032 5.27974-1.55315 7.802-0.15268 19.6642-0.0328 39.329-0.06992 58.9935 1.81217 2.04486 4.83398 1.30413 7.25148 1.54033 3.64499 0.0132 7.30565 0.0411 10.9264-0.44109zm2.05044-28.2702c-0.614888-4.1182-0.14516-8.30138-0.2666-12.4469 0.02-2.96507 0.04148-5.93012 0.06144-8.89518 5.6698 0.13832 11.9542-0.65283 16.9063 2.71939 2.69815 1.95447 3.96428 5.38447 3.68992 8.6423 0.09264 4.4155-3.42024 8.26354-7.63799 9.1905-4.03652 1.10302-8.28052 0.931712-12.422 0.8524l-0.33108-0.06256zm67.5504 15.3138c1.21171-2.33789 0.58246-5.0704 0.87588-7.58994 0.21768-13.837 0.2424-27.6782-0.0416-41.5144-0.13692-2.31833 0.49224-6.64424-3.1721-6.09966-4.89766-0.20976-9.8085-0.0308-14.7021-0.038-2.6146 0.94976-1.6781 4.37342-1.93917 6.55059-0.3216 14.8205-0.26956 29.6503 0.0268 44.47 0.22012 1.78473-0.15648 4.62226 2.31483 4.82281 2.48286 0.12248 4.9745-0.0336 7.46585 0.0388 2.9146-0.0523 5.88412 0.17888 8.75818-0.3282l0.41353-0.31192z" fill="#e40613"/></svg>
